<svg width="63" height="64" viewBox="0 0 63 64" fill="none" xmlns="http://www.w3.org/2000/svg">
<path d="M19.6978 35L19.4347 36.251C18.585 40.2888 16.9556 44.1142 14.6411 47.5046C12.3267 50.8951 9.3734 53.7829 5.95312 56H7.70949C12.3257 56 16.8386 54.6082 20.6795 52C21.2971 53.2578 21.646 54.6346 21.7033 56.0397C21.7607 57.4448 21.5252 58.8463 21.0124 60.152L20.6795 61C23.6049 59.2121 25.9612 56.6019 27.4654 53.483C28.9696 50.3641 29.5577 46.8691 29.159 43.418L28.5336 38L19.6978 35Z" fill="#FDC741"/>
<path d="M29.2798 45.53C29.2821 46.583 29.1901 47.634 29.0049 48.67C28.4104 48.404 27.9005 47.9746 27.5322 47.43C27.0414 46.7228 26.3226 46.2133 25.501 45.9904C24.6793 45.7674 23.8069 45.8452 23.0358 46.21C22.2225 46.591 21.2997 46.6527 20.4445 46.3832C19.5893 46.1138 18.8619 45.5322 18.4018 44.75C18.1171 45.27 17.8324 45.79 17.5772 46.32C17.3705 46.7394 17.2963 47.2137 17.3644 47.6778C17.4327 48.1419 17.6401 48.5731 17.9582 48.9126C18.2764 49.252 18.6898 49.4829 19.1418 49.5737C19.5938 49.6646 20.0623 49.6109 20.4832 49.42C20.8235 49.2669 21.1958 49.2026 21.5666 49.2329C21.9374 49.2633 22.2949 49.3873 22.6067 49.5938C22.9186 49.8003 23.1751 50.0827 23.3529 50.4156C23.5306 50.7484 23.624 51.1211 23.6248 51.5V51.58C23.6239 53.4425 24.3027 55.2388 25.5294 56.62C24.1979 58.378 22.5524 59.864 20.6795 61L21.0133 60.15C21.4762 58.977 21.7128 57.7242 21.7104 56.46C21.7113 54.912 21.3583 53.385 20.6795 52C16.8393 54.6089 12.3265 56.0008 7.71048 56H5.95312C9.3735 53.783 12.3267 50.8951 14.6409 47.5044C16.9551 44.1137 18.584 40.288 19.4327 36.25L19.6978 35L28.5336 38L29.1619 43.42C29.2401 44.1205 29.2794 44.825 29.2798 45.53Z" fill="#EFAD1B"/>
<path d="M43.2601 37L44.1202 37.876C47.1703 40.9828 49.4082 44.818 50.6299 49.0318C51.8515 53.2456 52.018 57.7039 51.1142 62L50.6351 59.229C50.3093 57.3452 49.4899 55.5861 48.2634 54.1376C47.037 52.6891 45.4491 51.605 43.6676 51C43.5464 53.0835 42.8344 55.0864 41.6179 56.7659C40.4013 58.4454 38.7325 59.7294 36.8139 60.462L35.406 61L35.5582 60.482C36.4024 57.6155 36.4689 54.5697 35.7507 51.6678C35.0326 48.766 33.5564 46.1163 31.479 44L43.2601 37Z" fill="#FDC741"/>
<path d="M51.1142 62L50.6331 59.23C50.3089 57.345 49.4896 55.5847 48.2624 54.1357C47.0351 52.6867 45.4456 51.6031 43.6627 51C43.5436 53.0837 42.8324 55.0872 41.6158 56.7667C40.3992 58.4463 38.7295 59.7294 36.81 60.46L35.406 61L35.5631 60.48C36.4059 57.6133 36.4713 54.5678 35.7522 51.6663C35.0332 48.7649 33.5565 46.1158 31.479 44L43.2601 37L44.1241 37.88C45.0636 38.8353 45.927 39.8652 46.7061 40.96C45.9984 41.161 45.3675 41.5767 44.8974 42.152C44.4274 42.7272 44.1406 43.4346 44.075 44.18C44.0229 44.7699 43.8324 45.3384 43.5197 45.8377C43.207 46.337 42.7812 46.7526 42.2781 47.0495C41.775 47.3464 41.2092 47.5159 40.6284 47.5439C40.0476 47.5718 39.4688 47.4573 38.9404 47.21C38.5653 47.0331 38.1638 46.9215 37.7525 46.88L38.0175 48.38C38.0981 48.8517 38.3276 49.2837 38.6711 49.6105C39.0146 49.9373 39.4535 50.1411 39.9209 50.1909C40.3884 50.2406 40.859 50.1337 41.2615 49.8863C41.6639 49.6389 41.9761 49.2645 42.1507 48.82C42.2776 48.4968 42.4777 48.2087 42.7346 47.9792C42.9915 47.7497 43.2981 47.5854 43.6294 47.4996C43.9605 47.4138 44.307 47.4089 44.6404 47.4855C44.9737 47.562 45.2846 47.7178 45.5476 47.94C47.1369 49.293 49.0227 50.2363 51.0455 50.69C51.8784 54.4097 51.9019 58.2701 51.1142 62Z" fill="#EFAD1B"/>
<path d="M34.4466 4.568C34.9364 5.27557 35.6543 5.78576 36.4754 6.00978C37.2964 6.23379 38.1686 6.15743 38.9401 5.794C39.4682 5.54558 40.0471 5.42998 40.6282 5.45691C41.2093 5.48385 41.7756 5.65254 42.2793 5.94879C42.7831 6.24505 43.2097 6.6602 43.5231 7.15932C43.8365 7.65844 44.0278 8.22695 44.0806 8.817C44.1576 9.67874 44.5289 10.4857 45.1295 11.0976C45.7302 11.7094 46.5225 12.0875 47.3685 12.166C47.9473 12.2202 48.505 12.4152 48.9946 12.7345C49.4841 13.0537 49.8912 13.488 50.1818 14.0008C50.4724 14.5137 50.638 15.09 50.6645 15.6815C50.6911 16.273 50.5779 16.8623 50.3344 17.4C49.9781 18.1856 49.9034 19.0735 50.1233 19.9094C50.3432 20.7452 50.8438 21.4762 51.538 21.975C52.0133 22.3166 52.4011 22.7695 52.6687 23.2956C52.9364 23.8217 53.0761 24.4055 53.0761 24.998C53.0761 25.5905 52.9364 26.1743 52.6687 26.7004C52.4011 27.2265 52.0133 27.6794 51.538 28.021C50.8429 28.52 50.3418 29.2516 50.1217 30.0884C49.9018 30.9251 49.977 31.814 50.3344 32.6C50.5783 33.1379 50.6918 33.7276 50.6653 34.3195C50.6388 34.9114 50.4733 35.4882 50.1824 36.0013C49.8916 36.5144 49.484 36.9489 48.994 37.2682C48.504 37.5874 47.9459 37.7822 47.3665 37.836C46.5205 37.9145 45.7283 38.2926 45.1275 38.9044C44.5269 39.5163 44.1557 40.3233 44.0786 41.185C44.0254 41.7746 43.834 42.3426 43.5205 42.8413C43.2071 43.3399 42.7807 43.7546 42.2773 44.0506C41.7737 44.3466 41.208 44.5152 40.6272 44.5422C40.0465 44.5693 39.468 44.454 38.9401 44.206C38.1688 43.8431 37.2971 43.767 36.4765 43.991C35.6559 44.215 34.9382 44.7249 34.4485 45.432C34.1132 45.9161 33.6685 46.3111 33.152 46.5837C32.6355 46.8563 32.0624 46.9986 31.4807 46.9986C30.899 46.9986 30.3258 46.8563 29.8093 46.5837C29.2928 46.3111 28.8482 45.9161 28.5128 45.432C28.0229 44.724 27.3047 44.2135 26.4831 43.9894C25.6617 43.7654 24.789 43.842 24.0173 44.206C23.4892 44.4544 22.9103 44.57 22.3292 44.5431C21.7481 44.5161 21.1818 44.3475 20.6781 44.0512C20.1743 43.755 19.7477 43.3398 19.4343 42.8407C19.1209 42.3416 18.9296 41.7731 18.8768 41.183C18.7998 40.3213 18.4286 39.5143 17.8279 38.9024C17.2272 38.2906 16.4349 37.9125 15.5889 37.834C15.0101 37.7798 14.4524 37.5848 13.9628 37.2655C13.4733 36.9463 13.0662 36.512 12.7756 35.9992C12.485 35.4863 12.3195 34.91 12.2929 34.3185C12.2663 33.727 12.3795 33.1377 12.623 32.6C12.9793 31.8144 13.054 30.9265 12.8341 30.0906C12.6142 29.2548 12.1136 28.5238 11.4194 28.025C10.9441 27.6834 10.5563 27.2305 10.2887 26.7044C10.0211 26.1783 9.88135 25.5945 9.88135 25.002C9.88135 24.4095 10.0211 23.8257 10.2887 23.2996C10.5563 22.7735 10.9441 22.3206 11.4194 21.979C12.1145 21.48 12.6156 20.7484 12.8357 19.9116C13.0556 19.0749 12.9804 18.186 12.623 17.4C12.3791 16.8621 12.2657 16.2724 12.2921 15.6805C12.3186 15.0886 12.4841 14.5118 12.775 13.9987C13.0658 13.4856 13.4734 13.0511 13.9634 12.7318C14.4534 12.4126 15.0115 12.2178 15.5909 12.164C16.4369 12.0855 17.2291 11.7074 17.8299 11.0956C18.4305 10.4837 18.8017 9.67673 18.8788 8.815C18.932 8.22538 19.1234 7.6574 19.4369 7.15875C19.7503 6.6601 20.1767 6.24536 20.6801 5.94937C21.1837 5.65338 21.7495 5.48479 22.3302 5.45775C22.9109 5.43072 23.4894 5.54603 24.0173 5.794C24.7886 6.1569 25.6603 6.23297 26.481 6.00898C27.3015 5.78498 28.0192 5.2751 28.5089 4.568C28.8442 4.08351 29.289 3.68818 29.8056 3.41531C30.3223 3.14243 30.8957 3 31.4777 3C32.0597 3 32.6332 3.14243 33.1499 3.41531C33.6665 3.68818 34.1112 4.08351 34.4466 4.568Z" fill="#FCEA42"/>
<path d="M50.6722 34.15C50.6709 35.0733 50.3308 35.9627 49.7186 36.6436C49.1065 37.3245 48.2665 37.7477 47.3637 37.83C46.5178 37.9097 45.7259 38.2882 45.1253 38.9C44.5246 39.5118 44.153 40.3184 44.0748 41.18C43.994 42.0996 43.5785 42.9552 42.91 43.5787C42.2416 44.2022 41.3684 44.5487 40.4619 44.55C39.9367 44.5488 39.4177 44.4328 38.9402 44.21C38.4598 43.9851 37.9373 43.8691 37.4086 43.87C36.8277 43.8682 36.255 44.0091 35.7389 44.2807C35.2227 44.5522 34.7785 44.9465 34.4437 45.43C34.1095 45.9149 33.6656 46.3106 33.1496 46.5838C32.6335 46.8571 32.0604 46.9997 31.4788 46.9997C30.8972 46.9997 30.3242 46.8571 29.808 46.5838C29.292 46.3106 28.8481 45.9149 28.5139 45.43C28.1791 44.9465 27.7349 44.5522 27.2188 44.2807C26.7026 44.0091 26.1299 43.8682 25.549 43.87C25.0203 43.8691 24.4978 43.9851 24.0174 44.21C23.5399 44.4328 23.0209 44.5488 22.4957 44.55C21.5892 44.5487 20.7161 44.2022 20.0476 43.5787C19.3791 42.9552 18.9636 42.0996 18.8828 41.18C18.8046 40.3184 18.433 39.5118 17.8323 38.9C17.2317 38.2882 16.4398 37.9097 15.5939 37.83C14.6911 37.7477 13.8511 37.3245 13.239 36.6436C12.6268 35.9627 12.2867 35.0733 12.2854 34.15C12.2866 33.615 12.4005 33.0864 12.6192 32.6C12.84 32.1107 12.9539 31.5785 12.953 31.04C12.9548 30.4483 12.8164 29.8649 12.5498 29.3392C12.2832 28.8135 11.8961 28.361 11.4214 28.02C10.9454 27.6796 10.5569 27.2274 10.2887 26.7018C10.0204 26.1761 9.88037 25.5924 9.88037 25C9.88037 24.4076 10.0204 23.8239 10.2887 23.2982C10.5569 22.7726 10.9454 22.3204 11.4214 21.98C11.8961 21.639 12.2832 21.1865 12.5498 20.6608C12.8164 20.1351 12.9548 19.5517 12.953 18.96C12.9539 18.4215 12.84 17.8893 12.6192 17.4C12.4005 16.9136 12.2866 16.385 12.2854 15.85C12.2867 14.9267 12.6268 14.0373 13.239 13.3564C13.8511 12.6755 14.6911 12.2523 15.5939 12.17C16.4398 12.0903 17.2317 11.7118 17.8323 11.1C18.433 10.4882 18.8046 9.6816 18.8828 8.82002C18.9356 8.21255 19.1354 7.62788 19.4644 7.11832C19.7934 6.60875 20.2412 6.19017 20.7678 5.90002C20.7089 6.59002 20.6794 7.29002 20.6794 8.00002C20.6794 14.6304 23.2653 20.9893 27.8682 25.6777C32.4711 30.3661 38.714 33 45.2235 33C46.9261 33.0038 48.6244 32.8227 50.2893 32.46C50.3013 32.5081 50.3177 32.555 50.3384 32.6C50.5572 33.0864 50.671 33.615 50.6722 34.15Z" fill="#FDC741"/>
<path d="M31.4787 41C40.1541 41 47.1868 33.8366 47.1868 25C47.1868 16.1634 40.1541 9 31.4787 9C22.8033 9 15.7705 16.1634 15.7705 25C15.7705 33.8366 22.8033 41 31.4787 41Z" fill="#EF5350"/>
<path d="M45.0861 33.0001C43.9435 35.0096 42.3852 36.7417 40.5194 38.0761C38.6536 39.4106 36.5249 40.3153 34.2813 40.7275C32.0377 41.1398 29.7329 41.0496 27.527 40.4633C25.321 39.877 23.2667 38.8086 21.5069 37.3324C19.747 35.8561 18.3238 34.0074 17.3359 31.9145C16.3481 29.8217 15.8193 27.5349 15.7863 25.2129C15.7534 22.891 16.217 20.5896 17.1451 18.4685C18.0731 16.3474 19.4434 14.4576 21.1606 12.9301C22.2752 18.5673 25.2631 23.6411 29.6211 27.2967C33.979 30.9524 39.4406 32.9666 45.0861 33.0001Z" fill="#E53935"/>
<path d="M31.4789 37C37.9854 37 43.26 31.6274 43.26 25C43.26 18.3726 37.9854 13 31.4789 13C24.9724 13 19.6978 18.3726 19.6978 25C19.6978 31.6274 24.9724 37 31.4789 37Z" fill="#FCEA42"/>
<path d="M40.6387 32.56C39.6592 33.792 38.4499 34.8143 37.0805 35.5677C35.7111 36.3212 34.2088 36.7909 32.6603 36.9499C31.1117 37.1089 29.5476 36.9539 28.0582 36.4938C26.5688 36.0338 25.1835 35.2779 23.9824 34.2697C22.7813 33.2616 21.7881 32.0211 21.0601 30.6198C20.3322 29.2186 19.8838 27.6844 19.7411 26.1058C19.5984 24.5272 19.7639 22.9354 20.2282 21.4223C20.6926 19.9092 21.4466 18.5047 22.4466 17.29C23.9772 21.1859 26.4458 24.6266 29.6251 27.2952C32.8043 29.9638 36.5918 31.7744 40.6387 32.56Z" fill="#FDC741"/>
<path d="M31.5278 24.95H37.0817L37.7758 24.243C37.9582 24.0573 38.1028 23.8368 38.2015 23.5942C38.3002 23.3516 38.3511 23.0915 38.3512 22.8288C38.3512 22.5662 38.3004 22.3061 38.2017 22.0634C38.1032 21.8208 37.9586 21.6003 37.7762 21.4145C37.5939 21.2287 37.3776 21.0814 37.1393 20.9808C36.9011 20.8803 36.6458 20.8285 36.3879 20.8284C36.13 20.8284 35.8747 20.8801 35.6364 20.9806C35.3982 21.081 35.1817 21.2283 34.9993 21.414L31.5278 24.95Z" fill="#52B788"/>
<path d="M37.0817 24.95H31.5278L34.9993 28.485C35.3697 28.8493 35.8656 29.0509 36.3805 29.0463C36.8953 29.0418 37.3878 28.8315 37.7518 28.4606C38.1159 28.0898 38.3224 27.5882 38.3269 27.0638C38.3313 26.5394 38.1334 26.0342 37.7758 25.6569L37.0817 24.95Z" fill="#95D5B2"/>
<path d="M31.528 19.293L30.8339 18.586C30.4636 18.2217 29.9676 18.0201 29.4528 18.0246C28.9379 18.0292 28.4455 18.2395 28.0814 18.6104C27.7173 18.9812 27.5108 19.4828 27.5064 20.0072C27.5019 20.5316 27.6998 21.0368 28.0575 21.414L31.528 24.95V19.293Z" fill="#52B788"/>
<path d="M34.9993 21.414C35.3675 21.0388 35.5743 20.5301 35.5743 19.9996C35.5742 19.4692 35.3672 18.9605 34.9988 18.5855C34.6306 18.2105 34.1311 17.9999 33.6103 17.9999C33.0895 18 32.5901 18.2108 32.2219 18.586L31.5278 19.293V24.95L34.9993 21.414Z" fill="#95D5B2"/>
<path d="M32.2219 31.3139C32.4043 31.4997 32.6207 31.6472 32.859 31.7478C33.0974 31.8483 33.3527 31.9001 33.6106 31.9001C33.8685 31.9001 34.124 31.8483 34.3623 31.7478C34.6005 31.6472 34.817 31.4997 34.9993 31.3139C35.1817 31.1282 35.3265 30.9078 35.4252 30.6651C35.5239 30.4223 35.5747 30.1622 35.5747 29.8995C35.5747 29.6368 35.5239 29.3766 35.4252 29.1339C35.3265 28.8911 35.1817 28.6707 34.9993 28.485L31.5278 24.95V30.607L32.2219 31.3139Z" fill="#52B788"/>
<path d="M28.0573 28.485C27.8749 28.6707 27.7303 28.8911 27.6316 29.1338C27.5329 29.3764 27.482 29.6364 27.4819 29.899C27.4819 30.1617 27.5327 30.4219 27.6314 30.6646C27.7299 30.9072 27.8745 31.1276 28.0569 31.3134C28.2392 31.4992 28.4555 31.6466 28.6938 31.7472C28.932 31.8477 29.1874 31.8995 29.4452 31.8995C29.7031 31.8996 29.9584 31.8479 30.1967 31.7474C30.4349 31.647 30.6514 31.4996 30.8338 31.3139L31.5279 30.607V24.95L28.0573 28.485Z" fill="#95D5B2"/>
<path d="M28.0572 21.414C27.8748 21.2282 27.6583 21.0809 27.42 20.9804C27.1818 20.8798 26.9264 20.8281 26.6685 20.8281C26.4106 20.8281 26.1552 20.8798 25.917 20.9804C25.6787 21.0809 25.4622 21.2282 25.2798 21.414C25.0974 21.5998 24.9528 21.8203 24.8541 22.063C24.7553 22.3057 24.7046 22.5658 24.7046 22.8285C24.7046 23.0912 24.7553 23.3513 24.8541 23.594C24.9528 23.8367 25.0974 24.0572 25.2798 24.243L25.9739 24.95H31.5277L28.0572 21.414Z" fill="#95D5B2"/>
<path d="M25.9741 24.95L25.28 25.6569C24.9118 26.0321 24.7051 26.5409 24.7051 27.0714C24.7052 27.6018 24.9122 28.1105 25.2805 28.4855C25.6487 28.8605 26.1483 29.071 26.6691 29.0709C27.1898 29.0709 27.6892 28.8601 28.0574 28.485L31.5279 24.95H25.9741Z" fill="#52B788"/>
<path d="M35.3272 30.87C35.2427 31.0332 35.1333 31.1817 35.0033 31.31C34.821 31.496 34.6044 31.6435 34.366 31.7441C34.1276 31.8448 33.8721 31.8966 33.6141 31.8966C33.3561 31.8966 33.1005 31.8448 32.8621 31.7441C32.6238 31.6435 32.4072 31.496 32.2249 31.31L31.5278 30.61V28.75C32.7282 29.5731 34 30.2828 35.3272 30.87Z" fill="#40916C"/>
<path d="M31.528 28.75V30.61L30.831 31.31C30.4581 31.6554 29.969 31.8415 29.4651 31.8298C28.9612 31.8181 28.481 31.6094 28.1239 31.247C27.7669 30.8847 27.5604 30.3963 27.5471 29.8831C27.5338 29.3698 27.7148 28.8711 28.0526 28.49L29.4074 27.11C30.0865 27.693 30.7942 28.2403 31.528 28.75Z" fill="#52B788"/>
<path d="M27.1986 24.95H25.9714L25.2842 24.24C25.0009 23.9507 24.8114 23.58 24.7412 23.1778C24.671 22.7755 24.7235 22.361 24.8915 21.99C25.5831 23.0368 26.3545 24.0265 27.1986 24.95Z" fill="#52B788"/>
<path d="M29.4072 27.11L28.0523 28.49C27.6782 28.8341 27.1886 29.0184 26.6847 29.0049C26.1808 28.9913 25.7014 28.7809 25.3456 28.4172C24.9898 28.0535 24.7849 27.5645 24.7735 27.0512C24.762 26.538 24.9447 26.0398 25.2838 25.66L25.971 24.95H27.1982C27.8856 25.7202 28.6236 26.4418 29.4072 27.11Z" fill="#40916C"/>
<path d="M50.1079 34.928C50.1246 34.997 50.1491 35.064 50.1698 35.128L50.1079 34.928Z" fill="#FCEA42"/>
<path d="M52.0958 6H51.1141V5C51.1141 4.73478 51.0106 4.48043 50.8265 4.29289C50.6424 4.10536 50.3927 4 50.1323 4C49.8719 4 49.6222 4.10536 49.4381 4.29289C49.254 4.48043 49.1505 4.73478 49.1505 5V6H48.1688C47.9084 6 47.6586 6.10536 47.4746 6.29289C47.2905 6.48043 47.187 6.73478 47.187 7C47.187 7.26522 47.2905 7.51957 47.4746 7.70711C47.6586 7.89464 47.9084 8 48.1688 8H49.1505V9C49.1505 9.26522 49.254 9.51957 49.4381 9.70711C49.6222 9.89464 49.8719 10 50.1323 10C50.3927 10 50.6424 9.89464 50.8265 9.70711C51.0106 9.51957 51.1141 9.26522 51.1141 9V8H52.0958C52.3562 8 52.6059 7.89464 52.79 7.70711C52.9741 7.51957 53.0776 7.26522 53.0776 7C53.0776 6.73478 52.9741 6.48043 52.79 6.29289C52.6059 6.10536 52.3562 6 52.0958 6Z" fill="#FCEA42"/>
<path d="M57.9864 20H57.0047V19C57.0047 18.7348 56.9012 18.4804 56.7171 18.2929C56.533 18.1054 56.2833 18 56.0229 18C55.7626 18 55.5128 18.1054 55.3287 18.2929C55.1446 18.4804 55.0412 18.7348 55.0412 19V20H54.0594C53.799 20 53.5493 20.1054 53.3652 20.2929C53.1811 20.4804 53.0776 20.7348 53.0776 21C53.0776 21.2652 53.1811 21.5196 53.3652 21.7071C53.5493 21.8946 53.799 22 54.0594 22H55.0412V23C55.0412 23.2652 55.1446 23.5196 55.3287 23.7071C55.5128 23.8946 55.7626 24 56.0229 24C56.2833 24 56.533 23.8946 56.7171 23.7071C56.9012 23.5196 57.0047 23.2652 57.0047 23V22H57.9864C58.2468 22 58.4966 21.8946 58.6806 21.7071C58.8647 21.5196 58.9682 21.2652 58.9682 21C58.9682 20.7348 58.8647 20.4804 58.6806 20.2929C58.4966 20.1054 58.2468 20 57.9864 20Z" fill="#FCEA42"/>
<path d="M58.9681 7C59.5103 7 59.9498 6.55228 59.9498 6C59.9498 5.44772 59.5103 5 58.9681 5C58.4259 5 57.9863 5.44772 57.9863 6C57.9863 6.55228 58.4259 7 58.9681 7Z" fill="#FCEA42"/>
<path d="M54.0594 15C54.6016 15 55.0412 14.5523 55.0412 14C55.0412 13.4477 54.6016 13 54.0594 13C53.5172 13 53.0776 13.4477 53.0776 14C53.0776 14.5523 53.5172 15 54.0594 15Z" fill="#FCEA42"/>
<path d="M3.98957 7H4.97133V8C4.97133 8.26522 5.07477 8.51957 5.25888 8.70711C5.443 8.89464 5.69271 9 5.95309 9C6.21348 9 6.46319 8.89464 6.64731 8.70711C6.83142 8.51957 6.93485 8.26522 6.93485 8V7H7.91662C8.177 7 8.42671 6.89464 8.61083 6.70711C8.79494 6.51957 8.89838 6.26522 8.89838 6C8.89838 5.73478 8.79494 5.48043 8.61083 5.29289C8.42671 5.10536 8.177 5 7.91662 5H6.93485V4C6.93485 3.73478 6.83142 3.48043 6.64731 3.29289C6.46319 3.10536 6.21348 3 5.95309 3C5.69271 3 5.443 3.10536 5.25888 3.29289C5.07477 3.48043 4.97133 3.73478 4.97133 4V5H3.98957C3.72919 5 3.47948 5.10536 3.29536 5.29289C3.11125 5.48043 3.00781 5.73478 3.00781 6C3.00781 6.26522 3.11125 6.51957 3.29536 6.70711C3.47948 6.89464 3.72919 7 3.98957 7Z" fill="#FCEA42"/>
<path d="M7.91662 19H6.93485V18C6.93485 17.7348 6.83142 17.4804 6.64731 17.2929C6.46319 17.1054 6.21348 17 5.95309 17C5.69271 17 5.443 17.1054 5.25888 17.2929C5.07477 17.4804 4.97133 17.7348 4.97133 18V19H3.98957C3.72919 19 3.47948 19.1054 3.29536 19.2929C3.11125 19.4804 3.00781 19.7348 3.00781 20C3.00781 20.2652 3.11125 20.5196 3.29536 20.7071C3.47948 20.8946 3.72919 21 3.98957 21H4.97133V22C4.97133 22.2652 5.07477 22.5196 5.25888 22.7071C5.443 22.8946 5.69271 23 5.95309 23C6.21348 23 6.46319 22.8946 6.64731 22.7071C6.83142 22.5196 6.93485 22.2652 6.93485 22V21H7.91662C8.177 21 8.42671 20.8946 8.61083 20.7071C8.79494 20.5196 8.89838 20.2652 8.89838 20C8.89838 19.7348 8.79494 19.4804 8.61083 19.2929C8.42671 19.1054 8.177 19 7.91662 19Z" fill="#FCEA42"/>
<path d="M14.7889 9C15.3311 9 15.7706 8.55228 15.7706 8C15.7706 7.44772 15.3311 7 14.7889 7C14.2467 7 13.8071 7.44772 13.8071 8C13.8071 8.55228 14.2467 9 14.7889 9Z" fill="#FCEA42"/>
<path d="M8.89826 16C9.44047 16 9.88002 15.5523 9.88002 15C9.88002 14.4477 9.44047 14 8.89826 14C8.35606 14 7.9165 14.4477 7.9165 15C7.9165 15.5523 8.35606 16 8.89826 16Z" fill="#FCEA42"/>
<path d="M6.93489 30C7.47709 30 7.91665 29.5523 7.91665 29C7.91665 28.4477 7.47709 28 6.93489 28C6.39268 28 5.95312 28.4477 5.95312 29C5.95312 29.5523 6.39268 30 6.93489 30Z" fill="#FCEA42"/>
</svg>
