<svg width="45" height="48" viewBox="0 0 45 48" fill="none" xmlns="http://www.w3.org/2000/svg">
<path opacity="0.62" d="M27.5584 37.8249C32.1011 32.8562 31.6946 24.3673 26.6592 18.8518C21.6211 13.3378 13.8701 12.8943 9.3259 17.8653C4.78594 22.8301 -2.32102 39.5465 2.71642 45.0613C7.75668 50.5768 23.0233 42.7936 27.5619 37.828" fill="#FBED21"/>
<path opacity="0.62" d="M28.8822 32.75C32.6548 28.6236 32.318 21.5724 28.1353 16.9908C23.9498 12.4109 17.5094 12.043 13.7382 16.1717C9.9698 20.2951 4.06425 34.1808 8.24837 38.7553C12.4346 43.3376 25.1181 36.8726 28.8801 32.7477" fill="#FBED21"/>
<path d="M19.6026 27.7984C23.8946 32.4964 27.3677 37.4528 29.8523 42.1569C30.1989 39.7867 31.6526 36.0552 36.0397 28.2273C44.7532 12.6779 45.6509 1.56505 44.6982 0.526883C44.6695 0.493339 44.6396 0.460924 44.6087 0.4297C44.5795 0.395889 44.5492 0.363217 44.5179 0.331745C43.5708 -0.714906 33.4227 0.274669 19.2116 9.81022C12.0602 14.6123 8.64766 16.2004 6.48584 16.5814C10.782 19.2972 15.3128 23.1028 19.6033 27.8007" fill="#D1D2D3"/>
<path d="M41.8551 0.064209C37.8183 0.438288 29.6142 2.82854 19.2081 9.8111C12.0568 14.6132 8.64424 16.2013 6.48242 16.5823C10.7786 19.2981 15.3094 23.1044 19.5999 27.8016C19.7803 27.9991 19.9466 28.1996 20.1284 28.3963C18.8072 15.1994 32.0832 6.44593 41.8544 0.064209" fill="#86A7AC"/>
<path d="M23.6606 40.5928C25.8534 42.9946 27.6312 45.526 28.9002 47.9325C29.0757 46.72 29.8184 44.8118 32.0598 40.8103C36.5131 32.8621 36.9761 27.1838 36.4856 26.6531C36.4715 26.6369 36.4532 26.6207 36.4398 26.6046C36.4264 26.5884 36.4102 26.5691 36.394 26.5544C35.9099 26.0207 30.7217 26.5259 23.4611 31.3989C19.8062 33.8532 18.0615 34.6654 16.9531 34.859C19.1523 36.245 21.4677 38.1925 23.6606 40.5928Z" fill="#DE374B"/>
<path d="M29.3826 34.0072C27.5132 36.5355 26.0885 39.7572 25.7129 43.0537C26.9721 44.685 28.0565 46.3356 28.8985 47.9307C29.074 46.7182 29.8167 44.81 32.0581 40.8085C35.6842 34.3373 36.6622 29.3717 36.6383 27.4635C34.2319 29.6632 31.3908 31.2853 29.3826 34.0072Z" fill="#C5344D"/>
<path d="M6.70813 21.952C8.90096 24.3538 10.6781 26.886 11.9471 29.2917C12.1226 28.0792 12.8645 26.171 15.1088 22.1695C19.5607 14.2213 20.0208 8.54301 19.5332 8.01159C19.5191 7.99462 19.5022 7.97919 19.4867 7.963C19.4698 7.94603 19.4571 7.92752 19.4409 7.91286C18.9575 7.37835 13.7686 7.88432 6.50802 12.7574C2.85377 15.2116 1.1091 16.0238 0 16.2174C2.19917 17.605 4.51531 19.5525 6.70813 21.952Z" fill="#DE374B"/>
<path d="M9.05034 16.5313C12.9928 14.465 17.1121 12.1303 19.5621 8.06789C19.5508 8.05092 19.5438 8.02393 19.5438 8.02393C19.5191 7.99539 19.5022 7.97996 19.4867 7.963C19.4698 7.94603 19.4571 7.92752 19.4409 7.91286C18.9575 7.37835 13.7686 7.88432 6.50802 12.7574C2.85377 15.2117 1.1091 16.0238 0 16.2174C1.48255 17.153 3.01514 18.3601 4.52869 19.7708C5.89683 18.4746 7.4176 17.385 9.05034 16.5313Z" fill="#C5344D"/>
<path d="M37.3667 8.53131C38.5814 9.67746 39.5778 10.9085 40.3113 12.0932C40.3614 11.4646 40.6777 10.4511 41.6959 8.30147C43.7175 4.03311 43.7591 1.09215 43.4899 0.840705C43.4837 0.830779 43.4752 0.822805 43.4653 0.817566C43.4578 0.808304 43.4495 0.799787 43.4406 0.792113C43.1729 0.537585 40.5234 1.00808 36.9509 3.80943C35.1569 5.22245 34.2874 5.70914 33.7251 5.85568C34.8997 6.47966 36.1589 7.38671 37.3667 8.53131Z" fill="#243438"/>
</svg>
