<svg width="383" height="298" viewBox="0 0 383 298" fill="none" xmlns="http://www.w3.org/2000/svg">
<path d="M253.211 1.18307C262.217 2.94897 267.318 6.69379 270.303 11.5493C273.311 16.4419 274.226 22.5434 274.67 29.1419C274.794 30.9811 274.881 32.8615 274.969 34.7605C275.195 39.6223 275.426 44.6066 276.293 49.3372C277.505 55.9489 279.971 62.1739 285.451 67.0975C293.315 74.1623 302.861 75.7673 311.824 77.2741C312.752 77.4301 313.673 77.585 314.586 77.7449C324.369 79.4579 333.171 81.7215 338.633 91.4473C343.97 100.95 342.272 109.391 339.338 118.354C338.866 119.796 338.361 121.251 337.85 122.727C335.19 130.4 332.342 138.614 332.969 148.079C333.534 156.616 336.627 164.244 340.639 171.312C343.512 176.375 346.878 181.184 350.133 185.834C351.411 187.661 352.672 189.462 353.879 191.245C358.182 197.599 361.813 203.728 363.302 210.031C364.783 216.299 364.15 222.766 359.851 229.832C352.494 241.924 341.35 243.904 328.73 244.672C327.002 244.777 325.246 244.859 323.469 244.942C312.328 245.463 300.381 246.021 289.555 252.556C279.998 258.325 274.26 265.955 268.784 273.235C268.148 274.081 267.516 274.922 266.881 275.754C260.776 283.767 254.464 291.062 242.962 294.915C228.755 299.674 217.426 296.298 205.774 291.486C203.94 290.729 202.096 289.935 200.232 289.132C190.271 284.843 179.713 280.296 166.806 279.696C155.708 279.18 145.858 282.576 136.668 285.743C134.545 286.475 132.456 287.195 130.396 287.852C119.383 291.361 109.109 293.111 98.0434 285.813C90.7692 281.015 87.9685 274.573 85.344 267.693C85.1623 267.217 84.9814 266.738 84.7998 266.258C82.3662 259.82 79.8174 253.077 73.6184 247.329C65.97 240.237 56.6611 238.699 47.8826 237.249C47.1209 237.124 46.3632 236.998 45.6109 236.87C36.138 235.258 27.5017 233.194 21.8511 223.956C17.6876 217.15 17.0693 211.017 18.6 205.15C20.1404 199.247 23.8684 193.569 28.499 187.722C30.5813 185.093 32.8349 182.443 35.1426 179.73C35.3975 179.43 35.6532 179.129 35.9093 178.828C38.4805 175.802 41.0995 172.696 43.5871 169.469C48.5612 163.017 53.0336 156.056 55.5835 148.226C59.8961 134.981 59.7301 122.447 59.5738 110.649C59.5353 107.74 59.4973 104.877 59.5272 102.058C59.6787 87.7854 61.5488 74.5703 73.642 62.0527C85.6352 49.6387 101.568 51.5767 118.343 55.7704C121.222 56.4902 124.129 57.2774 127.04 58.0656C132.556 59.559 138.084 61.0559 143.459 62.1044C151.687 63.7095 159.679 64.2941 166.944 62.2132C174.228 60.1269 181.009 54.7486 187.621 48.0669C191.984 43.658 196.317 38.6339 200.692 33.5605C202.945 30.9492 205.208 28.3248 207.492 25.7646C214.24 18.2032 221.195 11.1701 228.717 6.46954C236.224 1.77838 244.264 -0.571184 253.211 1.18307Z" fill="#330043" stroke="#330043" stroke-width="1.20402"/>
<path d="M47.0156 144.475C58.2894 109.792 40.3582 79.9077 66.2313 53.0805C92.1045 26.2533 134.924 61.7197 165.033 53.0805C181.383 48.3894 195.546 27.5213 211.254 10.6406M341.152 144.475C339.595 120.915 358.596 104.89 347.053 84.3031C335.206 63.1739 308.764 74.5805 290.768 58.3853C282.109 50.5934 280.712 39.6215 280.107 28.6257" stroke="#330043" stroke-width="1.20402"/>
<path d="M206.603 170.297V180.27H190.899V170.297H206.603Z" fill="#F47155" stroke="#330043" stroke-width="1.20402"/>
<path d="M164.025 188.866C164.251 187.796 165.084 186.694 166.594 185.606C168.375 184.323 170.992 183.142 174.279 182.14C180.846 180.14 189.955 178.893 200.042 178.893C210.129 178.893 219.238 180.14 225.805 182.14C229.092 183.142 231.709 184.323 233.49 185.606C235 186.694 235.833 187.796 236.059 188.866H164.025Z" fill="#FFCD34" stroke="#330043" stroke-width="1.20402"/>
<path d="M162.772 188.253C172.574 186.666 187.338 184.625 198.372 184.625C209.322 184.625 223.944 186.635 233.746 188.216C240.189 189.255 245.555 193.625 247.502 199.82C249.518 206.23 251.604 214.471 251.604 221.064C251.604 227.637 249.531 235.846 247.522 242.248C245.567 248.476 240.158 252.858 233.676 253.875C223.873 255.412 209.294 257.36 198.372 257.36C187.365 257.36 172.644 255.382 162.841 253.839C156.481 252.838 151.145 248.593 149.13 242.514C146.998 236.085 144.766 227.747 144.766 221.064C144.766 214.361 147.012 205.992 149.15 199.555C151.157 193.509 156.451 189.276 162.772 188.253Z" fill="#FF4A97" stroke="#330043" stroke-width="1.20402"/>
<path d="M200.268 212.384L201.999 214.257C202.359 214.647 202.793 214.962 203.276 215.184L205.591 216.251C207.094 216.944 207.688 218.771 206.879 220.215L205.633 222.439C205.373 222.903 205.208 223.413 205.145 223.94L204.846 226.472C204.652 228.116 203.098 229.245 201.475 228.922L198.974 228.424C198.453 228.32 197.917 228.32 197.396 228.424L194.895 228.922C193.272 229.245 191.718 228.116 191.524 226.472L191.224 223.94C191.162 223.413 190.996 222.903 190.737 222.439L189.49 220.215C188.681 218.771 189.275 216.944 190.778 216.251L193.094 215.184C193.576 214.962 194.01 214.647 194.371 214.257L196.101 212.384C197.224 211.169 199.145 211.169 200.268 212.384Z" fill="#FFCD34" stroke="#330043" stroke-width="1.20402"/>
<circle cx="15.0456" cy="156.655" r="14.4436" fill="#330043" stroke="#330043" stroke-width="1.20402"/>
<circle cx="160.921" cy="18.2331" r="14.4436" fill="#330043" stroke="#330043" stroke-width="1.20402"/>
<circle cx="367.827" cy="129.716" r="14.4436" fill="#330043" stroke="#330043" stroke-width="1.20402"/>
<path d="M262.655 123.815C261.479 132.717 253.982 141.618 244.852 141.618L248.882 110.379C255.502 106.496 264.568 109.329 262.655 123.815Z" fill="#F47155"/>
<path d="M133.697 123.815C134.873 132.717 142.369 141.618 151.5 141.618L147.469 110.379C140.849 106.496 131.784 109.329 133.697 123.815Z" fill="#F47155"/>
<path d="M251.596 123.84C251.596 149.873 227.75 171.097 198.177 171.097C168.604 171.097 144.758 149.873 144.758 123.84V123.78V123.72V123.66V123.601V123.541V123.482V123.422V123.363V123.304V123.245V123.187V123.128V123.07V123.011V122.953V122.895V122.837V122.779V122.721V122.663V122.606V122.548V122.491V122.434V122.377V122.32V122.263V122.206V122.15V122.093V122.037V121.98V121.924V121.868V121.812V121.757V121.701V121.646V121.59V121.535V121.48V121.425V121.37V121.315V121.26V121.206V121.151V121.097V121.043V120.989V120.935V120.881V120.827V120.773V120.72V120.667V120.613V120.56V120.507V120.454V120.402V120.349V120.296V120.244V120.192V120.139V120.087V120.035V119.984V119.932V119.88V119.829V119.778V119.726V119.675V119.624V119.573V119.523V119.472V119.422V119.371V119.321V119.271V119.221V119.171V119.121V119.071V119.022V118.972V118.923V118.874V118.825V118.776V118.727V118.678V118.63V118.581V118.533V118.485V118.436V118.388V118.341V118.293V118.245V118.198V118.15V118.103V118.056V118.009V117.962V117.915V117.868V117.822V117.775V117.729V117.683V117.637V117.591V117.545V117.499V117.453V117.408V117.362V117.317V117.272V117.227V117.182V117.137V117.093V117.048V117.004V116.959V116.915V116.871V116.827V116.783V116.739V116.696V116.652V116.609V116.566V116.523V116.48V116.437V116.394V116.351V116.309V116.266V116.224V116.182V116.14V116.098V116.056V116.014V115.973V115.931V115.89V115.849V115.807V115.766V115.725V115.685V115.644V115.604V115.563V115.523V115.483V115.443V115.403V115.363V115.323V115.284V115.244V115.205V115.165V115.126V115.087V115.049V115.01V114.971V114.933V114.894V114.856V114.818V114.78V114.742V114.704V114.666V114.629V114.591V114.554V114.517V114.48V114.443V114.406V114.369V114.332V114.296V114.259V114.223V114.187V114.151V114.115V114.079V114.043V114.008V113.972V113.937V113.902V113.867V113.832V113.797V113.762V113.728V113.693V113.659V113.624V113.59V113.556V113.522V113.488V113.455V113.421V113.388V113.354V113.321V113.288V113.255V113.222V113.189V113.157V113.124V113.092V113.06V113.027V112.995V112.963V112.932V112.9V112.868V112.837V112.806V112.774V112.743V112.712V112.681V112.651V112.62V112.589V112.559V112.529V112.499V112.469V112.439V112.409V112.379V112.349V112.32V112.291V112.261V112.232V112.203V112.174V112.146V112.117V112.089V112.06V112.032V112.004V111.976V111.948V111.92V111.892V111.865V111.837V111.81V111.782V111.755V111.728V111.701V111.675V111.648V111.621V111.595V111.569V111.543V111.516V111.491V111.465V111.439V111.413V111.388V111.363V111.337V111.312V111.287V111.262V111.237V111.213V111.188V111.164V111.139V111.115V111.091V111.067V111.043V111.02V110.996V110.972V110.949V110.926V110.903V110.88V110.857V110.834V110.811V110.789V110.766V110.744V110.722V110.7V110.678V110.656V110.634V110.612V110.591V110.569V110.548V110.527V110.506V110.485V110.464V110.443V110.423V110.402V110.382V110.362V110.342V110.322V110.302V110.282V110.262V110.243V110.223V110.204V110.185V110.166V110.147V110.128V110.109V110.091V110.072V110.054V110.035V110.017V109.999V109.981V109.964V109.946V109.928V109.911V109.894V109.876V109.859V109.842V109.825V109.809V109.792V109.775V109.759V109.743V109.727V109.71V109.695V109.679V109.663V109.647V109.632V109.617V109.601V109.586V109.571V109.556V109.541V109.527V109.512V109.498V109.483V109.469V109.455V109.441V109.427V109.414V109.4V109.386V109.373V109.36V109.347V109.334V109.321V109.308V109.295V109.282V109.27V109.258V109.245V109.233V109.233C144.911 109.239 145.091 109.246 145.295 109.253C146.047 109.28 147.135 109.307 148.48 109.313C151.169 109.326 154.89 109.251 159.016 108.903C167.236 108.21 177.188 106.424 183.755 101.985C190.325 97.5435 195.469 88.8836 198.955 81.4326C200.705 77.6914 202.051 74.2247 202.96 71.6934C203.337 70.6414 203.639 69.7503 203.864 69.0675C204.096 69.571 204.386 70.1928 204.73 70.9111C205.701 72.9368 207.1 75.7327 208.812 78.8141C212.228 84.9602 216.924 92.3059 221.988 96.9162C226.95 101.433 234.508 104.496 240.762 106.428C243.9 107.398 246.731 108.089 248.779 108.538C249.803 108.762 250.631 108.926 251.204 109.034C251.352 109.062 251.483 109.086 251.596 109.107V109.108V109.118V109.129V109.14V109.152V109.163V109.174V109.186V109.198V109.209V109.221V109.233V109.245V109.258V109.27V109.282V109.295V109.308V109.321V109.334V109.347V109.36V109.373V109.386V109.4V109.414V109.427V109.441V109.455V109.469V109.483V109.498V109.512V109.527V109.541V109.556V109.571V109.586V109.601V109.617V109.632V109.647V109.663V109.679V109.695V109.71V109.727V109.743V109.759V109.775V109.792V109.809V109.825V109.842V109.859V109.876V109.894V109.911V109.928V109.946V109.964V109.981V109.999V110.017V110.035V110.054V110.072V110.091V110.109V110.128V110.147V110.166V110.185V110.204V110.223V110.243V110.262V110.282V110.302V110.322V110.342V110.362V110.382V110.402V110.423V110.443V110.464V110.485V110.506V110.527V110.548V110.569V110.591V110.612V110.634V110.656V110.678V110.7V110.722V110.744V110.766V110.789V110.811V110.834V110.857V110.88V110.903V110.926V110.949V110.972V110.996V111.02V111.043V111.067V111.091V111.115V111.139V111.164V111.188V111.213V111.237V111.262V111.287V111.312V111.337V111.363V111.388V111.413V111.439V111.465V111.491V111.516V111.543V111.569V111.595V111.621V111.648V111.675V111.701V111.728V111.755V111.782V111.81V111.837V111.865V111.892V111.92V111.948V111.976V112.004V112.032V112.06V112.089V112.117V112.146V112.174V112.203V112.232V112.261V112.291V112.32V112.349V112.379V112.409V112.439V112.469V112.499V112.529V112.559V112.589V112.62V112.651V112.681V112.712V112.743V112.774V112.806V112.837V112.868V112.9V112.932V112.963V112.995V113.027V113.06V113.092V113.124V113.157V113.189V113.222V113.255V113.288V113.321V113.354V113.388V113.421V113.455V113.488V113.522V113.556V113.59V113.624V113.659V113.693V113.728V113.762V113.797V113.832V113.867V113.902V113.937V113.972V114.008V114.043V114.079V114.115V114.151V114.187V114.223V114.259V114.296V114.332V114.369V114.406V114.443V114.48V114.517V114.554V114.591V114.629V114.666V114.704V114.742V114.78V114.818V114.856V114.894V114.933V114.971V115.01V115.049V115.087V115.126V115.165V115.205V115.244V115.284V115.323V115.363V115.403V115.443V115.483V115.523V115.563V115.604V115.644V115.685V115.725V115.766V115.807V115.849V115.89V115.931V115.973V116.014V116.056V116.098V116.14V116.182V116.224V116.266V116.309V116.351V116.394V116.437V116.48V116.523V116.566V116.609V116.652V116.696V116.739V116.783V116.827V116.871V116.915V116.959V117.004V117.048V117.093V117.137V117.182V117.227V117.272V117.317V117.362V117.408V117.453V117.499V117.545V117.591V117.637V117.683V117.729V117.775V117.822V117.868V117.915V117.962V118.009V118.056V118.103V118.15V118.198V118.245V118.293V118.341V118.388V118.436V118.485V118.533V118.581V118.63V118.678V118.727V118.776V118.825V118.874V118.923V118.972V119.022V119.071V119.121V119.171V119.221V119.271V119.321V119.371V119.422V119.472V119.523V119.573V119.624V119.675V119.726V119.778V119.829V119.88V119.932V119.984V120.035V120.087V120.139V120.192V120.244V120.296V120.349V120.402V120.454V120.507V120.56V120.613V120.667V120.72V120.773V120.827V120.881V120.935V120.989V121.043V121.097V121.151V121.206V121.26V121.315V121.37V121.425V121.48V121.535V121.59V121.646V121.701V121.757V121.812V121.868V121.924V121.98V122.037V122.093V122.15V122.206V122.263V122.32V122.377V122.434V122.491V122.548V122.606V122.663V122.721V122.779V122.837V122.895V122.953V123.011V123.07V123.128V123.187V123.245V123.304V123.363V123.422V123.482V123.541V123.601V123.66V123.72V123.78V123.84Z" fill="#F47155" stroke="#330043" stroke-width="1.20402"/>
<circle cx="172.04" cy="117.908" r="1.80603" fill="#330043"/>
<circle cx="214.447" cy="117.908" r="1.80603" fill="#330043"/>
<path d="M181.984 141.465C181.984 141.465 185.593 148.2 198.176 148.2C210.759 148.2 214.368 141.465 214.368 141.465" stroke="#330043" stroke-width="1.20402" stroke-linecap="round"/>
<path d="M196.315 113.523C196.315 113.523 196.098 117.161 194.738 120.688C193.378 124.215 191.586 126.42 191.586 126.42" stroke="#330043" stroke-width="1.20402" stroke-linecap="round"/>
<path d="M258.044 142.216L257.466 142.383L257.466 142.383L258.044 142.216ZM252.204 137.381C252.466 137.177 252.513 136.798 252.309 136.536C252.104 136.274 251.726 136.227 251.464 136.432L252.204 137.381ZM258.586 151.135C258.586 155.182 257.954 158.819 256.953 161.422C256.452 162.725 255.87 163.738 255.254 164.416C254.639 165.093 254.037 165.386 253.477 165.386V166.59C254.493 166.59 255.394 166.052 256.145 165.226C256.896 164.4 257.545 163.238 258.077 161.854C259.143 159.081 259.79 155.291 259.79 151.135H258.586ZM253.477 165.386C252.916 165.386 252.315 165.093 251.699 164.416C251.084 163.738 250.502 162.725 250 161.422C248.999 158.819 248.368 155.182 248.368 151.135H247.164C247.164 155.291 247.81 159.081 248.876 161.854C249.409 163.238 250.057 164.4 250.808 165.226C251.559 166.052 252.46 166.59 253.477 166.59V165.386ZM257.466 142.383C258.166 144.804 258.586 147.836 258.586 151.135H259.79C259.79 147.74 259.359 144.595 258.622 142.048L257.466 142.383ZM255.068 137.608C256.175 138.819 256.757 139.934 257.466 142.383L258.622 142.048C257.884 139.495 257.232 138.19 255.957 136.796L255.068 137.608ZM248.368 151.135C248.368 147.824 248.791 144.783 249.495 142.358C250.208 139.905 251.18 138.179 252.204 137.381L251.464 136.432C250.134 137.468 249.072 139.498 248.339 142.022C247.598 144.573 247.164 147.729 247.164 151.135H248.368Z" fill="#FFCD34"/>
<path d="M138.308 142.216L138.886 142.383L138.886 142.383L138.308 142.216ZM144.147 137.381C143.885 137.177 143.838 136.798 144.043 136.536C144.247 136.274 144.626 136.227 144.888 136.432L144.147 137.381ZM137.766 151.135C137.766 155.182 138.397 158.819 139.398 161.422C139.899 162.725 140.481 163.738 141.097 164.416C141.713 165.093 142.314 165.386 142.875 165.386V166.59C141.858 166.59 140.957 166.052 140.206 165.226C139.455 164.4 138.807 163.238 138.274 161.854C137.208 159.081 136.562 155.291 136.562 151.135H137.766ZM142.875 165.386C143.435 165.386 144.037 165.093 144.652 164.416C145.268 163.738 145.85 162.725 146.351 161.422C147.352 158.819 147.984 155.182 147.984 151.135H149.188C149.188 155.291 148.541 159.081 147.475 161.854C146.943 163.238 146.294 164.4 145.543 165.226C144.792 166.052 143.891 166.59 142.875 166.59V165.386ZM138.886 142.383C138.186 144.804 137.766 147.836 137.766 151.135H136.562C136.562 147.74 136.993 144.595 137.729 142.048L138.886 142.383ZM141.283 137.608C140.176 138.819 139.594 139.934 138.886 142.383L137.729 142.048C138.468 139.495 139.12 138.19 140.395 136.796L141.283 137.608ZM147.984 151.135C147.984 147.824 147.561 144.783 146.856 142.358C146.144 139.905 145.171 138.179 144.147 137.381L144.888 136.432C146.217 137.468 147.279 139.498 148.012 142.022C148.754 144.573 149.188 147.729 149.188 151.135H147.984Z" fill="#FFCD34"/>
</svg>
