<svg width="4478" height="4426" viewBox="0 0 4478 4426" fill="none" xmlns="http://www.w3.org/2000/svg">
<path d="M54.5389 1995.21C-76.2698 1294.66 461.272 647.453 1173.93 647.453H1950.67C2135.87 647.453 2318.27 692.621 2482.06 779.041L3780.95 1464.36C4533.08 1861.19 4600.65 2912.48 3905.52 3402.34L2880.72 4124.52C2491.23 4399 1972.03 4401.96 1579.44 4131.93L675.313 3510.08C427.024 3339.31 256.548 3077.08 201.236 2780.85L54.5389 1995.21Z" fill="#DDC7F8"/>
<path d="M54.5389 1995.21C-76.2698 1294.66 461.272 647.453 1173.93 647.453H1950.67C2135.87 647.453 2318.27 692.621 2482.06 779.041L3780.95 1464.36C4533.08 1861.19 4600.65 2912.48 3905.52 3402.34L2880.72 4124.52C2491.23 4399 1972.03 4401.96 1579.44 4131.93L675.313 3510.08C427.024 3339.31 256.548 3077.08 201.236 2780.85L54.5389 1995.21Z" fill="#DDC7F8"/>
<path d="M2813.68 3582.3L3294.72 3362.72L3387.82 3566.68C3387.82 3566.68 3244.53 3643.95 3149.68 3687.17C3056.45 3729.64 2906.78 3786.25 2906.78 3786.25L2813.68 3582.3Z" fill="white"/>
<path d="M2902.04 3775.86C2902.04 3775.86 3054.08 3721.21 3148.13 3678.28C3242.18 3635.35 3383.07 3556.28 3383.07 3556.28C3383.07 3556.28 3836.1 3598.14 3876.6 3618.97C3917.1 3639.81 3919.24 3656.98 3919.24 3656.98C3919.24 3656.98 3656.73 3798.81 3482.93 3878.1C3310.12 3956.93 3032.53 4061.73 3032.53 4061.73L2902.04 3775.86Z" fill="#FF4A97"/>
<path d="M3495 3676.65L3503.07 3532.14" stroke="#330043" stroke-width="8" stroke-linecap="round"/>
<path d="M3447.95 3559.4L3380.49 3356.97" stroke="#330043" stroke-width="8" stroke-linecap="round"/>
<path d="M3546.48 3676.5L3554.55 3531.98" stroke="#330043" stroke-width="8" stroke-linecap="round"/>
<path d="M3597.96 3676.5L3606.03 3531.98" stroke="#330043" stroke-width="8" stroke-linecap="round"/>
<path d="M3449.53 3564.42C3449.53 3564.42 3393.04 3202.54 3452.13 3288.17C3494.33 3349.32 3449.52 3564.42 3449.52 3564.42" stroke="#330043" stroke-width="8" stroke-linecap="round"/>
<path d="M3671.29 3590.13C3671.29 3590.13 3669.89 3601.58 3684.2 3669.45C3698.52 3737.32 3724.98 3755.34 3724.98 3755.34" stroke="white" stroke-width="8" stroke-linecap="square"/>
<path d="M3051.5 4103.3C3051.5 4103.3 3330.69 4000.09 3504.01 3920.97C3677.33 3841.86 3938.21 3698.54 3938.21 3698.54L3915.08 3647.86C3915.08 3647.86 3654.2 3791.18 3480.88 3870.3C3307.56 3949.41 3028.37 4052.62 3028.37 4052.62L3051.5 4103.3Z" fill="#FF4A97"/>
<path d="M2883 3717.28C2883 3717.28 3031.27 3664.66 3122.83 3622.87C3214.4 3581.07 3351.28 3503.53 3351.28 3503.53" stroke="#330043" stroke-width="8" stroke-linecap="round"/>
<path d="M3029.97 4047.7C3029.97 4047.7 3297.61 3962.64 3445.45 3895.15C3593.3 3827.67 3915.88 3657.88 3915.88 3657.88" stroke="white" stroke-width="8" stroke-linecap="square"/>
<path d="M2851.15 3647.5C2851.15 3647.5 2999.41 3594.89 3090.98 3553.09C3182.55 3511.29 3319.43 3433.75 3319.43 3433.75" stroke="#330043" stroke-width="8" stroke-linecap="round"/>
<path d="M2943.15 3857.44C2943.15 3857.44 3031.09 3800.51 3130.23 3841.62C3229.37 3882.74 3248.46 3969.4 3248.46 3969.4" stroke="white" stroke-width="8" stroke-linecap="square"/>
<path d="M1501.79 3166.23L1782.28 3614.5L1592.22 3733.42C1592.22 3733.42 1496.9 3601.44 1441.68 3513.04C1387.4 3426.16 1311.74 3285.15 1311.74 3285.15L1501.79 3166.23Z" fill="white"/>
<path d="M1321.43 3279.09C1321.43 3279.09 1395.45 3422.71 1450.28 3510.35C1505.12 3597.99 1601.91 3727.36 1601.91 3727.36C1601.91 3727.36 1619.54 4181.97 1604.17 4224.84C1588.8 4267.72 1572.05 4272.08 1572.05 4272.08C1572.05 4272.08 1397.17 4030.33 1295.88 3868.37C1195.16 3707.32 1055.03 3445.78 1055.03 3445.78L1321.43 3279.09Z" fill="#FF4A97"/>
<path d="M1497.18 3854.04L1641.51 3843.18" stroke="#330043" stroke-width="8" stroke-linecap="round"/>
<path d="M1607.29 3792.09L1799.18 3698.78" stroke="#330043" stroke-width="8" stroke-linecap="round"/>
<path d="M1504.05 3905.06L1648.38 3894.2" stroke="#330043" stroke-width="8" stroke-linecap="round"/>
<path d="M1510.77 3956.1L1655.1 3945.24" stroke="#330043" stroke-width="8" stroke-linecap="round"/>
<path d="M1602.52 3794.31C1602.52 3794.31 1953.93 3691.07 1876.75 3760.83C1821.63 3810.65 1602.52 3794.3 1602.52 3794.3" stroke="#330043" stroke-width="8" stroke-linecap="round"/>
<path d="M1605.97 4017.53C1605.97 4017.53 1594.44 4017.63 1529.02 4040.68C1463.59 4063.73 1449.19 4092.33 1449.19 4092.33" stroke="white" stroke-width="8" stroke-linecap="square"/>
<path d="M1016.3 3470.02C1016.3 3470.02 1155.06 3733.35 1256.12 3894.86C1357.18 4056.37 1533.33 4296.32 1533.33 4296.32L1580.55 4266.77C1580.55 4266.77 1404.41 4026.82 1303.35 3865.31C1202.29 3703.8 1063.52 3440.47 1063.52 3440.47L1016.3 3470.02Z" fill="#FF4A97"/>
<path d="M1377.02 3252.58C1377.02 3252.58 1448.54 3392.71 1501.93 3478.03C1555.32 3563.36 1650.07 3688.95 1650.07 3688.95" stroke="#330043" stroke-width="8" stroke-linecap="round"/>
<path d="M1068.61 3441.41C1068.61 3441.41 1187.88 3695.66 1274.08 3833.44C1360.29 3971.21 1570.73 4268.87 1570.73 4268.87" stroke="white" stroke-width="8" stroke-linecap="square"/>
<path d="M1442.04 3211.89C1442.04 3211.89 1513.56 3352.02 1566.95 3437.35C1620.34 3522.68 1715.09 3648.27 1715.09 3648.27" stroke="#330043" stroke-width="8" stroke-linecap="round"/>
<path d="M1245.91 3330.53C1245.91 3330.53 1313.83 3410.29 1286.01 3513.95C1258.19 3617.61 1174.76 3647.84 1174.76 3647.84" stroke="white" stroke-width="8" stroke-linecap="square"/>
<path d="M1113.81 827.509C1196.79 705.292 1333.97 698.455 1480.84 709.237C1506.1 711.091 1531.67 713.469 1557.26 715.849C1605.69 720.354 1654.19 724.865 1700.79 725.842C1772.11 727.337 1839.83 720.609 1897.53 692.688C1955.35 664.71 2004.3 609.907 2050.04 544.242C2080.22 500.921 2109.24 452.51 2138.56 403.585C2153.67 378.383 2168.86 353.046 2184.33 328.197C2229.96 254.905 2278.17 185.638 2334.58 135.128C2390.91 84.6963 2455.23 53.1173 2533.23 54.8275C2611.63 56.5466 2660.22 80.6444 2692.59 117.334C2725.15 154.239 2741.75 204.356 2755.09 259.105C2758.82 274.411 2762.3 290.096 2765.8 305.923C2774.77 346.37 2783.93 387.747 2798.07 426.111C2817.81 479.698 2847.44 528.105 2900.32 561.273C2976.3 608.937 3058.42 608.52 3135.87 608.127C3143.88 608.087 3151.83 608.046 3159.73 608.059C3244.34 608.199 3322.01 614.366 3382.36 688.478C3441.29 760.842 3439.27 834.568 3427.68 914.148C3425.81 926.964 3423.69 939.942 3421.54 953.089C3410.39 1021.36 3398.49 1094.17 3417.46 1172.45C3434.58 1243.06 3471.53 1302.42 3515.42 1355.83C3546.87 1394.09 3582.06 1429.5 3616.13 1463.78C3629.52 1477.25 3642.74 1490.55 3655.49 1503.78C3700.86 1550.85 3740.39 1597.14 3762.14 1648.07C3783.8 1698.79 3787.92 1754.3 3762.01 1820.14C3717.64 1932.88 3626.47 1965.83 3521.63 1990.65C3507.25 1994.06 3492.62 1997.31 3477.82 2000.59C3385.06 2021.19 3285.92 2043.19 3204.8 2113.59C3133.16 2175.77 3096.2 2247.95 3060.84 2317.04C3056.73 2325.06 3052.65 2333.03 3048.53 2340.95C3008.93 2417.13 2966.45 2487.8 2875.2 2537.04C2762.53 2597.86 2662.2 2585.94 2557.33 2562.5C2540.8 2558.8 2524.16 2554.82 2507.33 2550.79C2417.49 2529.29 2322.49 2506.55 2213.52 2520.27C2119.86 2532.07 2042.36 2574.76 1969.86 2614.71C1953.08 2623.96 1936.57 2633.06 1920.19 2641.59C1832.78 2687.12 1748.7 2716.95 1644.73 2671.6C1576.34 2641.76 1543.31 2591.49 1511.26 2537.55C1509.04 2533.82 1506.83 2530.08 1504.62 2526.32C1474.81 2475.81 1443.73 2423.14 1383.57 2384.07C1309.35 2335.87 1229.32 2336.51 1153.5 2337.12C1146.93 2337.17 1140.4 2337.22 1133.91 2337.24C1052.05 2337.5 976.083 2332.76 914.856 2263.05C869.813 2211.76 855.59 2160.89 859.926 2109.12C864.284 2057.08 887.405 2003.83 917.774 1948C931.434 1922.88 946.502 1897.34 961.919 1871.21C963.623 1868.33 965.33 1865.43 967.041 1862.53C984.216 1833.4 1001.66 1803.53 1017.83 1772.86C1050.16 1711.52 1077.5 1646.73 1087.48 1577.48C1104.37 1460.25 1084.78 1355.52 1066.3 1256.75C1061.74 1232.37 1057.25 1208.36 1053.39 1184.62C1033.87 1064.5 1030.29 950.516 1113.81 827.509Z" fill="#330043" stroke="#330043" stroke-width="8"/>
<path d="M1016.03 1566.31C1060.17 1258.83 866.187 1034.11 1044.29 771.31C1222.39 508.505 1633.37 743.846 1873.49 627.52C2003.88 564.356 2092.38 368.606 2199.64 204.073M3484.6 1138.25C3437.24 942.783 3573.39 780.64 3446.55 624.661C3316.38 464.572 3111.06 598.786 2936.45 489.056C2852.45 436.263 2824.75 346.214 2803.67 254.811" stroke="#330043" stroke-width="8"/>
<path d="M2824.46 1059.84C2835.81 1125.28 2794.12 1187.15 2731.34 1198.04L2668.73 1208.89L2668.16 999.629C2668.16 999.629 2699.94 979.235 2728.27 974.322C2791.05 963.436 2813.12 994.406 2824.46 1059.84Z" fill="#F47155"/>
<path d="M2221.29 1559.23L2311.89 1559.24L2332.33 1727.25H2214.06L2221.29 1559.23Z" fill="#F47155"/>
<path d="M2316.36 1574.58L2221.96 1583.94C2221.96 1583.94 2304.51 1650.2 2316.36 1615.81C2325.63 1588.94 2316.36 1574.58 2316.36 1574.58Z" fill="#330043" stroke="#330043" stroke-width="8" stroke-linecap="round" stroke-linejoin="round"/>
<path d="M1635.69 1296.58C1649.86 1378.27 1724.88 1433.48 1803.25 1419.89L1881.42 1406.33L1794.12 1160.09C1794.12 1160.09 1748.2 1149.48 1712.83 1155.61C1634.45 1169.2 1621.53 1214.88 1635.69 1296.58Z" fill="#F47155"/>
<path d="M2708.1 1094.52C2746.57 1316.35 2574.77 1531.38 2324.37 1574.8C2073.98 1618.22 1839.81 1473.59 1801.35 1251.75C1786.44 1165.79 1787.44 1160 1787.44 1160C1787.44 1160 2003.06 1098.67 2098.32 1007.01C2193.52 915.419 2219.46 691.182 2219.46 691.182C2219.46 691.182 2321.2 846.507 2418.13 908.198C2512.56 968.296 2691 995.905 2691 995.905C2691 995.905 2693.19 1008.55 2708.1 1094.52Z" fill="#F47155"/>
<circle cx="2154.47" cy="1112.51" r="14.6464" transform="rotate(-9.83761 2154.47 1112.51)" fill="#330043"/>
<circle cx="2467.89" cy="1062.59" r="14.6464" transform="rotate(-9.83761 2467.89 1062.59)" fill="#330043"/>
<path d="M2324.08 1049.83C2324.08 1049.83 2322.13 1088.32 2326.89 1112.25C2331.13 1133.59 2345 1164.94 2345 1164.94" stroke="#330043" stroke-width="7.48415" stroke-linecap="round"/>
<path d="M2506.5 1291.83C2506.5 1362.14 2350.44 1436.71 2280.13 1436.71C2209.82 1436.71 2119.41 1375.72 2119.41 1305.41C2119.41 1235.11 2246.05 1253.35 2316.36 1253.35C2386.67 1253.35 2506.5 1221.52 2506.5 1291.83Z" fill="#330043"/>
<path d="M2405.47 1393.06C2405.47 1393.06 2334.75 1429.69 2280.81 1431.7C2210.5 1431.7 2163.08 1383.61 2163.08 1383.61C2170.82 1344.9 2235.56 1329.21 2286.44 1336.95C2346.79 1346.14 2375.16 1360.97 2405.47 1393.06Z" fill="#FF4A97"/>
<circle cx="765.516" cy="1715.04" r="124.156" transform="rotate(-9.83761 765.516 1715.04)" fill="#330043" stroke="#330043" stroke-width="8"/>
<circle cx="1788.31" cy="341.059" r="124.156" transform="rotate(-9.83761 1788.31 341.059)" fill="#330043" stroke="#330043" stroke-width="8"/>
<circle cx="3687.09" cy="975.547" r="124.156" transform="rotate(-9.83761 3687.09 975.547)" fill="#330043" stroke="#330043" stroke-width="8"/>
<path d="M1807.8 1355.27C1807.8 1355.27 1843.12 1446.03 1847.89 1489.63C1855.45 1558.64 1836.58 1617.33 1805.76 1620.7C1774.93 1624.08 1743.82 1570.86 1736.27 1501.84C1733 1471.94 1740.15 1421.61 1740.15 1421.61" stroke="#FFCD34" stroke-width="8" stroke-linecap="round"/>
<path d="M2746.03 1153.12C2746.03 1153.12 2726.96 1248.62 2729.82 1292.39C2734.33 1361.67 2763.08 1416.2 2794.02 1414.19C2824.96 1412.17 2829.18 1361.67 2824.67 1292.39C2820.83 1233.44 2794.02 1183.13 2794.02 1183.13" stroke="#FFCD34" stroke-width="8" stroke-linecap="round"/>
<path d="M2735.82 1079.08C2735.82 1079.08 2718.09 1113.3 2712.5 1137.06" stroke="#330043" stroke-width="8" stroke-linecap="round"/>
<path d="M1718.55 1233.69C1718.55 1233.69 1740.92 1265.08 1749.79 1287.81C1757.7 1308.08 1762.88 1341.97 1762.88 1341.97" stroke="#330043" stroke-width="8" stroke-linecap="round"/>
<path d="M2708.1 1094.65C2746.56 1316.49 2574.76 1531.52 2324.37 1574.94C2073.98 1618.36 1839.81 1473.72 1801.34 1251.89" stroke="#330043" stroke-width="8" stroke-linecap="round"/>
<path d="M2744.44 3606.17C2744.36 3606.05 2744.28 3605.91 2744.2 3605.78C2743 3603.83 2741.24 3600.94 2738.97 3597.2C2734.43 3589.72 2727.85 3578.85 2719.67 3565.25C2703.32 3538.04 2680.62 3499.95 2655.19 3456.39C2604.33 3369.24 2542.63 3260.28 2499.15 3172.83C2448.06 3070.07 2394.37 2934.84 2353.44 2825.2C2332.97 2770.4 2315.71 2722.03 2303.56 2687.36C2297.48 2670.03 2292.69 2656.12 2289.41 2646.55C2287.77 2641.76 2286.52 2638.06 2285.67 2635.55C2285.64 2635.46 2285.6 2635.36 2285.57 2635.27L2885.94 2383.71L3327.38 3357.58C3326.32 3358.21 3325 3358.99 3323.42 3359.92C3318.88 3362.62 3312.26 3366.52 3303.98 3371.35C3287.42 3381.01 3264.21 3394.39 3237.62 3409.25C3184.41 3438.98 3117.78 3474.58 3063.81 3498.23C3003.08 3524.84 2922.55 3552.02 2857.11 3572.58C2824.4 3582.84 2795.5 3591.45 2774.78 3597.48C2764.42 3600.5 2756.1 3602.88 2750.38 3604.5C2747.9 3605.2 2745.9 3605.76 2744.44 3606.17Z" fill="#9854CB" stroke="#9854CB" stroke-width="8" stroke-linecap="round" stroke-linejoin="round"/>
<path d="M2672 3493.37C2672 3493.37 2850.74 3480.4 3025.5 3389.91C3200.26 3299.41 3286.76 3226.82 3286.76 3226.82" stroke="#DDC7F8" stroke-width="8" stroke-linecap="round" stroke-linejoin="round"/>
<path d="M2430.59 2797.88L2402.34 2990.01C2402.34 2990.01 2468.34 2934.32 2482.51 2893.22C2493.58 2861.1 2516.05 2782.55 2516.05 2782.55L2430.59 2797.88Z" fill="#330043" stroke="#330043" stroke-width="8" stroke-linecap="round" stroke-linejoin="round"/>
<path d="M2437.67 2803.18C2437.67 2803.18 2530.26 3060.78 2618.54 3210.18C2706.82 3359.58 2804.16 3470.5 2804.16 3470.5" stroke="#DDC7F8" stroke-width="8" stroke-linecap="round" stroke-linejoin="round"/>
<path d="M1851.98 2540.67C1852.22 2539.89 1852.43 2539.21 1852.61 2538.61L2520.22 2538.61C2520.17 2538.94 2520.11 2539.28 2520.05 2539.65C2519.45 2543.36 2518.54 2548.85 2517.33 2555.92C2514.91 2570.07 2511.27 2590.58 2506.38 2616C2496.61 2666.83 2481.88 2737.28 2462.03 2815.73C2422.3 2972.77 2362.19 3161.4 2280.61 3289.15C2199.12 3416.77 2083.47 3505.45 1988.04 3562.26C1940.35 3590.66 1897.76 3611.06 1867.11 3624.35C1851.78 3631 1839.44 3635.87 1830.95 3639.08C1826.7 3640.68 1823.42 3641.86 1821.2 3642.65C1820.78 3642.79 1820.41 3642.93 1820.07 3643.04C1819.06 3642.11 1817.63 3640.79 1815.83 3639.11C1811.96 3635.5 1806.36 3630.25 1799.42 3623.64C1785.55 3610.42 1766.34 3591.8 1744.99 3570.19C1702.24 3526.93 1651.08 3471.86 1616.96 3424.23C1584.65 3379.12 1550.43 3316.69 1524.24 3265.41C1511.16 3239.79 1500.1 3217 1492.32 3200.62C1488.43 3192.43 1485.36 3185.84 1483.26 3181.31C1482.52 3179.73 1481.91 3178.39 1481.42 3177.33C1482.64 3176.49 1484.24 3175.38 1486.18 3174.03C1490.98 3170.7 1497.88 3165.88 1506.27 3159.96C1523.04 3148.13 1545.76 3131.88 1569.54 3114.25C1593.32 3096.63 1618.2 3077.6 1639.27 3060.2C1660.24 3042.88 1677.76 3026.93 1686.55 3015.5C1691.15 3009.52 1697.11 2997.44 1703.94 2981.41C1710.85 2965.22 1718.83 2944.56 1727.43 2921.07C1744.63 2874.08 1764.37 2815.6 1783.04 2758.54C1801.71 2701.47 1819.32 2645.78 1832.26 2604.36C1838.73 2583.65 1844.03 2566.5 1847.72 2554.54C1849.56 2548.55 1851 2543.86 1851.98 2540.67Z" fill="#9854CB" stroke="#9854CB" stroke-width="8" stroke-linecap="round" stroke-linejoin="round"/>
<path d="M1803.21 2682.62L1779.2 2769.23C1779.2 2769.23 1784.29 2765.61 1838.81 2727.08C1870.73 2704.52 1923.95 2696.43 1923.95 2696.43L1803.21 2682.62Z" fill="#330043"/>
<path d="M1779.2 2769.23L1775.35 2768.16L1772.34 2779.03L1781.52 2772.49L1779.2 2769.23ZM1803.21 2682.62L1803.66 2678.64C1801.71 2678.42 1799.88 2679.65 1799.36 2681.55L1803.21 2682.62ZM1923.95 2696.43L1924.55 2700.39C1926.53 2700.08 1927.99 2698.36 1927.95 2696.36C1927.91 2694.35 1926.4 2692.68 1924.4 2692.46L1923.95 2696.43ZM1838.81 2727.08L1841.11 2730.35L1838.81 2727.08ZM1783.06 2770.3L1807.06 2683.69L1799.36 2681.55L1775.35 2768.16L1783.06 2770.3ZM1802.76 2686.59L1923.49 2700.4L1924.4 2692.46L1803.66 2678.64L1802.76 2686.59ZM1923.95 2696.43C1923.35 2692.48 1923.35 2692.48 1923.35 2692.48C1923.35 2692.48 1923.34 2692.48 1923.34 2692.48C1923.34 2692.48 1923.34 2692.48 1923.33 2692.48C1923.33 2692.48 1923.31 2692.48 1923.3 2692.48C1923.27 2692.49 1923.23 2692.49 1923.17 2692.5C1923.07 2692.52 1922.91 2692.55 1922.7 2692.58C1922.29 2692.65 1921.69 2692.75 1920.91 2692.88C1919.36 2693.15 1917.12 2693.56 1914.34 2694.13C1908.78 2695.25 1901.03 2696.99 1892.27 2699.44C1874.84 2704.32 1853.03 2712.13 1836.5 2723.82L1841.11 2730.35C1856.51 2719.47 1877.27 2711.95 1894.43 2707.15C1902.96 2704.76 1910.51 2703.06 1915.93 2701.97C1918.63 2701.42 1920.8 2701.02 1922.29 2700.76C1923.03 2700.63 1923.6 2700.54 1923.99 2700.48C1924.18 2700.44 1924.32 2700.42 1924.42 2700.41C1924.46 2700.4 1924.5 2700.39 1924.52 2700.39C1924.53 2700.39 1924.54 2700.39 1924.55 2700.39C1924.55 2700.39 1924.55 2700.39 1924.55 2700.39C1924.55 2700.39 1924.55 2700.39 1924.55 2700.39C1924.55 2700.39 1924.55 2700.39 1923.95 2696.43ZM1836.5 2723.82C1809.24 2743.08 1794.34 2753.62 1786.25 2759.34C1782.21 2762.2 1779.87 2763.86 1778.54 2764.8C1777.87 2765.27 1777.46 2765.56 1777.21 2765.74C1777.09 2765.82 1777.01 2765.88 1776.96 2765.92C1776.93 2765.94 1776.91 2765.95 1776.9 2765.96C1776.9 2765.96 1776.89 2765.97 1776.89 2765.97C1776.89 2765.97 1776.89 2765.97 1776.88 2765.97C1776.88 2765.97 1776.88 2765.97 1776.88 2765.97C1776.88 2765.97 1776.88 2765.97 1776.88 2765.97C1776.88 2765.97 1776.88 2765.97 1779.2 2769.23C1781.52 2772.49 1781.52 2772.49 1781.52 2772.49C1781.52 2772.49 1781.52 2772.49 1781.52 2772.49C1781.52 2772.49 1781.52 2772.49 1781.52 2772.49C1781.52 2772.49 1781.53 2772.49 1781.53 2772.49C1781.53 2772.48 1781.53 2772.48 1781.54 2772.48C1781.55 2772.47 1781.57 2772.46 1781.59 2772.44C1781.64 2772.4 1781.72 2772.35 1781.84 2772.26C1782.09 2772.09 1782.5 2771.8 1783.16 2771.33C1784.49 2770.38 1786.83 2768.73 1790.87 2765.87C1798.95 2760.15 1813.85 2749.61 1841.11 2730.35L1836.5 2723.82Z" fill="#330043"/>
<path d="M1564.73 3084C1564.73 3084 1605.46 3216.42 1732.72 3370.34C1859.97 3524.26 1969.03 3601.79 1969.03 3601.79" stroke="#DDC7F8" stroke-width="8" stroke-linecap="round" stroke-linejoin="round"/>
<path d="M2145.76 2653.58C2145.76 2653.58 2193.2 2868.86 2094.68 3076.84C1996.16 3284.82 1729.8 3361.45 1729.8 3361.45" stroke="#DDC7F8" stroke-width="8" stroke-linecap="round" stroke-linejoin="round"/>
<path d="M2216.81 1661.04C2216.81 1661.04 2253.33 1702.57 2293.46 1689.9C2330.73 1678.13 2323.91 1661.04 2323.91 1661.04C2323.91 1661.04 2535.79 1669.05 2701.5 1868.62C2878.54 2081.84 2955.4 2483.34 2955.4 2483.34C2955.4 2483.34 2654.95 2668.86 2426.21 2710.51C2192.69 2753.05 1761.61 2694.05 1761.61 2694.05C1761.61 2694.05 1736.66 2181.32 1899.7 1922.07C2056.97 1671.99 2216.81 1661.04 2216.81 1661.04Z" fill="#FFCD34"/>
<path d="M3451.81 1668.61L3454.53 1668.97L3454.53 1668.97L3454.53 1668.97L3454.54 1668.97L3454.61 1668.98C3454.65 1668.98 3454.7 1668.99 3454.76 1668.99C3454.8 1669 3454.85 1669.01 3454.9 1669.01C3455.15 1669.04 3455.55 1669.09 3456.06 1669.14C3457.09 1669.25 3458.6 1669.4 3460.54 1669.54C3464.41 1669.84 3469.94 1670.14 3476.54 1670.14C3489.77 1670.16 3507.15 1669 3524.01 1664.4C3540.88 1659.8 3556.9 1651.84 3567.86 1638.49C3578.73 1625.26 3585.04 1606.25 3581.65 1578.66C3580.31 1567.81 3575.82 1560.02 3571.68 1554.95C3569.61 1552.41 3567.63 1550.55 3566.19 1549.35C3565.47 1548.75 3564.88 1548.31 3564.5 1548.03C3564.31 1547.89 3564.16 1547.8 3564.07 1547.74C3564.03 1547.71 3564 1547.69 3563.99 1547.68L3563.99 1547.68L3563.98 1547.68L3563.98 1547.68L3563.98 1547.67L3559.49 1544.87L3451.81 1668.61ZM3451.81 1668.61L3450.5 1671.01L3450.5 1671.01L3450.5 1671.01L3450.5 1671.01L3450.49 1671.02L3450.49 1671.02C3450.49 1671.03 3450.48 1671.04 3450.47 1671.06C3450.45 1671.09 3450.43 1671.14 3450.39 1671.2C3450.37 1671.23 3450.35 1671.27 3450.32 1671.31C3450.18 1671.54 3449.95 1671.92 3449.62 1672.41C3448.97 1673.4 3447.92 1674.87 3446.42 1676.72C3443.42 1680.42 3438.59 1685.63 3431.38 1691.44C3416.98 1703.06 3393.02 1717.16 3355.05 1726.5C3317.28 1735.79 3280.65 1733.03 3253.37 1727.89C3239.75 1725.33 3228.51 1722.18 3220.69 1719.68C3216.78 1718.43 3213.73 1717.34 3211.67 1716.57C3211.28 1716.43 3210.93 1716.3 3210.61 1716.18L3188.25 1578.05L3199.64 1464.6C3199.67 1464.52 3199.7 1464.42 3199.74 1464.31C3199.88 1463.86 3200.1 1463.19 3200.38 1462.33C3200.94 1460.6 3201.78 1458.11 3202.85 1455.03C3205 1448.86 3208.1 1440.36 3211.91 1431.04C3219.57 1412.25 3229.88 1390.64 3240.79 1377.8C3253.74 1362.55 3265.74 1351.85 3279.22 1343.65C3292.72 1335.43 3307.87 1329.6 3327.27 1324.29C3363.21 1314.46 3403.73 1315.03 3432.37 1336.91C3441.19 1343.65 3445.64 1353.11 3447.87 1361.13C3448.98 1365.12 3449.51 1368.68 3449.77 1371.23C3449.9 1372.5 3449.96 1373.52 3449.99 1374.2C3450 1374.54 3450 1374.79 3450.01 1374.96C3450.01 1375.04 3450.01 1375.1 3450.01 1375.14L3450.01 1375.16L3450.01 1375.17L3450.01 1375.17V1375.17V1375.17L3449.94 1380.97L3455.39 1378.97L3455.39 1378.97L3455.39 1378.97L3455.39 1378.96L3455.42 1378.95L3455.53 1378.91C3455.64 1378.87 3455.8 1378.82 3456.01 1378.74C3456.44 1378.59 3457.08 1378.37 3457.91 1378.1C3459.56 1377.55 3461.96 1376.79 3464.94 1375.94C3470.89 1374.24 3479.08 1372.2 3488.05 1370.85C3497.04 1369.49 3506.68 1368.84 3515.59 1369.83C3524.52 1370.82 3532.39 1373.42 3538.19 1378.28C3550.18 1388.32 3551.71 1399.47 3550.4 1408.21C3549.73 1412.67 3548.31 1416.54 3547.04 1419.31C3546.41 1420.69 3545.82 1421.77 3545.4 1422.5C3545.19 1422.86 3545.03 1423.14 3544.92 1423.31C3544.86 1423.4 3544.82 1423.46 3544.8 1423.49L3544.78 1423.52L3544.78 1423.53L3544.78 1423.53L3544.78 1423.53L3544.78 1423.53L3540.12 1430.43L3548.42 1429.75L3548.42 1429.75L3548.42 1429.75L3548.43 1429.75L3548.43 1429.75L3548.47 1429.74C3548.51 1429.74 3548.59 1429.74 3548.69 1429.73C3548.88 1429.72 3549.19 1429.7 3549.59 1429.69C3550.39 1429.67 3551.57 1429.65 3553.01 1429.7C3555.92 1429.81 3559.84 1430.17 3563.97 1431.18C3572.33 1433.23 3580.79 1437.71 3584.37 1447.3C3588.53 1458.46 3590.45 1466.5 3590.44 1475.41C3590.43 1484.43 3588.44 1494.6 3584.25 1510.03C3582.07 1518.11 3576.96 1525.9 3572.2 1531.82C3569.84 1534.74 3567.63 1537.14 3566.01 1538.8C3565.2 1539.63 3564.55 1540.27 3564.1 1540.7C3563.87 1540.91 3563.7 1541.07 3563.59 1541.18C3563.53 1541.23 3563.49 1541.27 3563.46 1541.29L3563.44 1541.32L3563.43 1541.32L3563.43 1541.32L3563.43 1541.32L3451.81 1668.61Z" fill="#F47155" stroke="#F47155" stroke-width="8"/>
<path d="M2324.21 1660.97L2678.35 2036.49C2678.35 2036.49 2977.25 2064.18 3124.48 1909.69C3207.45 1822.62 3236.68 1730.81 3236.68 1730.81L3196.05 1464.8C3196.05 1464.8 3060.93 1472.35 2782.5 1540.26C2558.51 1594.9 2324.21 1660.97 2324.21 1660.97Z" fill="#FFCD34"/>
<path d="M2810.52 2037C2810.52 2037 2760.89 1930.52 2710.82 1878.01" stroke="#330043" stroke-width="8" stroke-linecap="round"/>
<rect x="3252.45" y="1282.72" width="77.2699" height="89.5532" transform="rotate(-24.9499 3252.45 1282.72)" fill="#9854CB"/>
<path d="M3001.85 1313.57C3008.25 1313.57 3015.17 1312.02 3022.08 1308.93C3027.82 1306.37 3033.14 1303.11 3038.27 1299.96C3042.53 1297.35 3046.55 1294.88 3050.81 1292.77L3046.53 1284.12C3041.88 1286.41 3037.48 1289.12 3033.22 1291.74C3028.12 1294.86 3023.31 1297.81 3018.15 1300.11C3013.25 1302.3 3000.77 1306.81 2990.84 1301.35C2978.67 1294.69 2977.23 1276.31 2983.55 1263.99C2990.71 1250.04 3005.02 1240.61 3017.66 1232.31L3012.35 1224.24C2999.41 1232.76 2983.28 1243.37 2974.96 1259.58C2966.44 1276.19 2968.92 1300.35 2986.2 1309.82C2990.77 1312.32 2996.1 1313.57 3001.85 1313.57Z" fill="#DDC7F8"/>
<path d="M3815.28 1173.42C3815.28 1173.42 3805.67 1175.94 3779.36 1177.49C3776.01 1177.69 3772.4 1177.87 3768.47 1178.06C3765.31 1178.2 3761.89 1178.32 3758.35 1178.39C3726.94 1179.17 3680.33 1178.45 3613.14 1173.42C3613.14 1173.42 3529.33 1160.33 3421.71 1213.21C3393.73 1226.94 3359.36 1246.22 3322.28 1265.05C3319 1266.79 3315.77 1268.46 3312.55 1270.01C3271.09 1290.78 3226.67 1310.38 3184.42 1320.76C3180.37 1321.73 3176.37 1322.63 3172.37 1323.4C3170.64 1323.79 3168.96 1324.11 3167.22 1324.43C3110.67 1335.07 3059.28 1326.56 3025.49 1278.85C2981.39 1216.63 2991.26 1164.08 3028.33 1114.17C3030.19 1111.59 3032.13 1108.95 3034.26 1106.37C3035.23 1105.07 3036.26 1103.78 3037.35 1102.5C3066.95 1066.84 3109.32 1032.29 3154.7 996.175C3157.74 993.725 3160.77 991.275 3163.87 988.893C3171.02 983.15 3178.11 977.474 3185.39 971.674C3310.87 871.027 3338.4 820.988 3346.21 795.713C3352.79 774.049 3379.74 647.477 3418.36 606.475C3420.1 604.663 3421.78 603.056 3423.52 601.575C3425.19 600.219 3426.87 598.988 3428.54 597.894C3432.16 595.638 3435.89 594.282 3439.63 593.837C3538.02 581.78 3680.85 766.437 3717.33 823.894C3717.33 823.894 3893.43 1123.84 3815.28 1173.42Z" fill="#9854CB"/>
<path d="M3491.22 847.835C3522.2 909.326 3556.1 974.304 3598.76 1032.51C3645.97 1097 3698.87 1145.66 3755.93 1177.13C3756.71 1177.51 3757.48 1178 3758.35 1178.39C3766.36 1178.2 3773.31 1177.9 3779.39 1177.51C3772.73 1175.11 3766.45 1171.92 3760.57 1168.64C3704.76 1137.83 3652.92 1090.15 3606.49 1026.82C3601.47 1019.97 3596.54 1013.11 3591.91 1006.06L3591.81 1005.96C3591.72 1005.87 3591.62 1005.77 3591.52 1005.57C3556.19 953.541 3526.93 897.167 3499.81 843.493C3495.86 835.573 3491.8 827.653 3488.03 819.744C3486.58 816.838 3485.13 813.944 3483.79 811.049C3450.67 742.413 3424.61 674.255 3428.18 602.917C3428.28 601.276 3428.37 599.533 3428.57 597.892C3425.09 600.114 3421.71 602.917 3418.33 606.484C3415.44 689.89 3451.15 768.19 3491.22 847.835Z" fill="#DDC7F8"/>
<path d="M3597.29 1015.55C3611.04 998.852 3625.26 981.588 3633.81 960.836C3651.37 918.239 3639.37 864.85 3605.25 833.899C3571.17 802.914 3516.88 796.088 3476.15 817.683L3480.67 826.195C3517.93 806.469 3567.58 812.714 3598.77 841.044C3629.97 869.362 3640.95 918.193 3624.89 957.167C3616.89 976.573 3603.13 993.257 3589.83 1009.4L3597.29 1015.55Z" fill="#DDC7F8"/>
<path d="M3154.68 996.217C3164.43 1104.44 3223.12 1207.84 3312.52 1270C3315.8 1268.46 3318.99 1266.82 3322.27 1265.08C3230.85 1203.48 3171.67 1098.45 3163.85 988.879C3160.76 991.295 3157.76 993.71 3154.68 996.217Z" fill="#DDC7F8"/>
<path d="M3028.3 1114.19C3034.39 1193.93 3078.31 1269.81 3146.38 1313.06C3153.61 1317.7 3160.56 1321.56 3167.22 1324.45C3172.92 1323.39 3178.61 1322.14 3184.41 1320.78C3174.27 1317.79 3163.46 1312.49 3151.58 1304.96C3084.11 1261.99 3040.37 1182.54 3037.37 1102.51C3034.09 1106.37 3031.11 1110.33 3028.3 1114.19Z" fill="#DDC7F8"/>
<path d="M3340.26 1434.71L3402.93 1434.71L3388.16 1450.01L3381.76 1465.6L3385.65 1481.74L3394.84 1496.77L3377.03 1522.94L3388.99 1550.5L3403.47 1568.59L3388.99 1578.61L3356.36 1509.81L3338.89 1472.26L3335.7 1459.95L3340.26 1434.71Z" fill="#9854CB"/>
<path d="M3542.06 1428.52C3542.06 1428.52 3524.73 1459.4 3483.72 1484.28C3451.09 1504.07 3394.12 1521.73 3383.26 1474.67C3377.26 1448.66 3408.47 1433.06 3408.47 1433.06" stroke="#330043" stroke-width="8" stroke-linecap="round" stroke-linejoin="round"/>
<path d="M3563.69 1541.48C3563.69 1541.48 3529.17 1573.57 3505.65 1579.73C3476.68 1587.3 3397.26 1577.5 3382.46 1541.48C3369.67 1510.36 3397.26 1498.68 3397.26 1498.68" stroke="#330043" stroke-width="8" stroke-linecap="round" stroke-linejoin="round"/>
<path d="M3450.83 1379.61C3450.83 1379.61 3450.83 1403.46 3428.15 1423.33C3401.89 1446.34 3340.22 1432.71 3340.22 1432.71C3340.22 1432.71 3337.55 1467.94 3324.54 1486.46C3312.27 1503.91 3299.83 1512.53 3299.83 1512.53" stroke="#330043" stroke-width="8" stroke-linecap="round" stroke-linejoin="round"/>
<path d="M3455.47 1669.56C3455.47 1669.56 3397.84 1664.78 3381.66 1620.37C3365.47 1575.95 3409.07 1566.87 3409.07 1566.87" stroke="#330043" stroke-width="8" stroke-linecap="round" stroke-linejoin="round"/>
<path d="M1762.05 2521.42L1996.05 2160.58L1996.05 2717.12L1762.05 2693.64L1762.05 2521.42Z" fill="#F4BD15"/>
<path d="M1449.23 2707.91L1507.35 2769.23L1380.85 2889.12C1363.91 2905.17 1337.18 2904.45 1321.13 2887.52C1305.08 2870.59 1305.8 2843.85 1322.73 2827.81L1449.23 2707.91Z" fill="#F47155"/>
<path d="M1420.85 2682.64L1517.2 2708.98L1388.41 2831.04C1370.77 2847.76 1342.92 2847.01 1326.2 2829.37C1310.46 2812.76 1310.07 2786.87 1325.31 2769.8L1371.26 2718.32L1420.85 2682.64Z" fill="#F47155"/>
<path fill-rule="evenodd" clip-rule="evenodd" d="M1589.04 2725.87L1589.07 2725.82L1463.66 2693.16L1333.19 2896.76C1323.27 2912.25 1325.18 2932.5 1337.83 2945.85C1356.14 2965.17 1388.07 2961.69 1403.11 2939.73C1432.73 2896.49 1478.92 2837.45 1510.35 2837.45C1511.16 2837.45 1511.98 2837.38 1512.79 2837.26C1519.18 2837.95 1527.35 2842.44 1521.89 2862.38C1517.13 2879.8 1511.35 2913.36 1507.24 2939.13C1504.12 2958.75 1516.86 2977.28 1536.23 2981.7C1551.62 2985.21 1567.59 2978.88 1575.69 2965.34C1591.1 2939.57 1614.63 2896.28 1621.1 2862.38C1630.63 2812.45 1621.1 2732.21 1621.1 2732.21L1589.04 2725.87Z" fill="#F47155"/>
<path d="M1743.01 1818.24C1546.81 1978.87 1334.01 2204.62 1315.66 2377.84C1297.31 2551.05 1410.51 2696.34 1410.51 2696.34L1632.95 2748.13C1809.64 2654.89 1982.29 2252.46 1982.29 2252.46L2215.34 1661.2C2215.34 1661.2 1939.22 1657.61 1743.01 1818.24Z" fill="#FFCD34"/>
<path d="M1406.88 2800.47C1406.88 2800.47 1370.68 2834.63 1356.09 2854.51C1345.72 2868.64 1334.61 2894.22 1334.61 2894.22" stroke="black" stroke-width="8" stroke-linecap="round"/>
<path d="M1376.28 2766.61C1376.28 2766.61 1348.54 2791.66 1333.95 2811.53C1323.57 2825.67 1312.46 2851.25 1312.46 2851.25" stroke="black" stroke-width="8" stroke-linecap="round"/>
<path d="M4139 622.429C4093.02 641.215 4027.78 681.27 3941.16 685.477" stroke="#330043" stroke-width="48.0778" stroke-linecap="round"/>
<path d="M4108.2 341.059C4069.59 403.973 3968.67 543.515 3873.84 598.368" stroke="#330043" stroke-width="48.0778" stroke-linecap="round"/>
<path d="M3797.69 544.422C3809.26 503.636 3838.47 415.383 3862.82 388.654" stroke="#330043" stroke-width="48.0778" stroke-linecap="round"/>
<path d="M290.242 807.41C283.791 864.388 251.217 978.343 172.523 978.343" stroke="#330043" stroke-width="24.1887" stroke-linecap="round"/>
<path d="M290.243 1102.51C296.693 1040.16 329.267 915.452 407.961 915.452" stroke="#330043" stroke-width="24.1887" stroke-linecap="round"/>
<path d="M290.243 805.797C296.693 842.349 329.267 915.452 407.961 915.452" stroke="#330043" stroke-width="24.1887" stroke-linecap="round"/>
<path d="M290.242 1102.51C283.791 1061.66 251.217 979.956 172.523 979.956" stroke="#330043" stroke-width="24.1887" stroke-linecap="round"/>
<path d="M4347.28 2083.42C4353.73 2140.4 4386.31 2254.35 4465 2254.35" stroke="#330043" stroke-width="24.1887" stroke-linecap="round"/>
<path d="M4347.28 2378.52C4340.83 2316.17 4308.26 2191.46 4229.56 2191.46" stroke="#330043" stroke-width="24.1887" stroke-linecap="round"/>
<path d="M4347.28 2081.81C4340.83 2118.36 4308.26 2191.46 4229.56 2191.46" stroke="#330043" stroke-width="24.1887" stroke-linecap="round"/>
<path d="M4347.28 2378.52C4353.73 2337.67 4386.31 2255.97 4465 2255.97" stroke="#330043" stroke-width="24.1887" stroke-linecap="round"/>
</svg>
