<svg width="1442" height="1172" viewBox="0 0 1442 1172" fill="none" xmlns="http://www.w3.org/2000/svg">
<path d="M1440.91 588.471L1.12135 588.471V0.470696C1.12135 0.470696 300.985 22.2626 459.509 131.96C605.347 232.879 567.578 425.283 736.045 489.39C889.142 547.649 1020.16 418.503 1180.41 456.981C1292.6 483.92 1440.91 588.471 1440.91 588.471Z" fill="#FEF0ED"/>
<path d="M452.382 585.348C349.698 545.346 361.571 524.505 267.82 524.165C173.418 523.822 0.999944 588.471 0.999944 588.471" stroke="url(#paint0_linear_1981_1175)" stroke-width="2"/>
<path d="M1440.51 579.266C1440.51 579.266 1265.06 496.848 1172.12 496.495C1078.54 496.139 1045.8 544.402 963.044 535.832C881.378 527.375 848.455 479.97 770.157 456.458C676.53 428.342 603.737 465.601 522.865 412.871C400.573 333.134 484.807 155.307 369.84 66.3575C246.454 -29.1055 1.4295 48.1773 1.4295 48.1773" stroke="url(#paint1_linear_1981_1175)" stroke-width="2"/>
<path d="M1.23853 134.739C14.9898 155.725 26.3613 166.479 48.7306 179.649C69.9434 192.138 88.8712 186.355 109.221 200.02C169.122 240.248 70.8226 316.917 109.221 375.494C161.068 454.59 262.263 404.945 357.179 433.831C448.381 461.588 489.559 510.747 585.142 519.022C684.493 527.624 721.119 479.205 835.1 469.945C949.081 460.685 1158.05 580.137 1441 586.619" stroke="url(#paint2_linear_1981_1175)" stroke-width="2"/>
<path d="M1 588.471H1441V1171.47C1441 1171.47 1141.09 1149.86 982.545 1041.1C836.686 941.038 874.46 750.27 705.969 686.709C552.849 628.946 421.813 756.993 261.543 718.842C149.334 692.132 1 588.471 1 588.471Z" fill="#FEF0ED"/>
<defs>
<linearGradient id="paint0_linear_1981_1175" x1="249.394" y1="624.649" x2="473.651" y2="628.924" gradientUnits="userSpaceOnUse">
<stop stop-color="#FF4A97"/>
<stop offset="1" stop-color="#FF4A97" stop-opacity="0"/>
</linearGradient>
<linearGradient id="paint1_linear_1981_1175" x1="793.262" y1="894.663" x2="1508.51" y2="899.745" gradientUnits="userSpaceOnUse">
<stop stop-color="#FF4A97"/>
<stop offset="1" stop-color="#FF4A97" stop-opacity="0"/>
</linearGradient>
<linearGradient id="paint2_linear_1981_1175" x1="886.092" y1="171.315" x2="1551.59" y2="749.52" gradientUnits="userSpaceOnUse">
<stop stop-color="#FF4A97"/>
<stop offset="1" stop-color="#FF4A97" stop-opacity="0"/>
</linearGradient>
</defs>
</svg>
