<svg width="1440" height="641" viewBox="0 0 1440 641" fill="none" xmlns="http://www.w3.org/2000/svg">
<path d="M1448.91 635L-0.11792 635V0C-0.11792 0 301.67 23.5338 461.211 142C607.985 250.986 569.974 458.769 739.522 528C893.601 590.915 1025.46 451.446 1186.73 493C1299.65 522.093 1448.91 635 1448.91 635Z" fill="#FEF0ED"/>
<path d="M453.648 636.802C349.341 590.726 361.732 567.488 266.032 566.005C169.668 564.512 -7.17704 635 -7.17704 635" stroke="url(#paint0_linear_633_3)" stroke-width="2"/>
<path d="M1462.02 633.5C1462.02 633.5 1282.38 542.42 1186.67 540.936C1090.31 539.443 1055.99 591.171 970.884 580.936C886.893 570.835 853.579 519.255 773.244 492.936C677.179 461.465 601.758 500.836 519.134 442.936C394.194 355.382 483.145 164.353 365.861 66.9363C239.99 -37.6133 -13.2859 42.9363 -13.2859 42.9363" stroke="url(#paint1_linear_633_3)" stroke-width="2"/>
<path d="M-0.015625 145.439C13.7379 168.103 25.1113 179.716 47.4844 193.939C68.7006 207.426 87.6316 201.181 107.984 215.939C167.896 259.382 69.58 342.18 107.984 405.439C159.841 490.856 261.053 437.243 355.984 468.439C447.201 498.414 488.386 551.502 583.984 560.439C683.352 569.728 719.984 517.439 833.984 507.439C947.984 497.439 1156.98 626.439 1439.98 633.439" stroke="url(#paint2_linear_633_3)" stroke-width="2"/>
<path d="M417.923 354.656C417.923 488.212 411.225 460.947 331.488 510.612C270.098 548.849 118.319 459.091 118.319 395.965C118.319 262.409 122.093 245.579 254.11 211.696C343.283 188.808 397.07 263.217 417.923 354.656Z" fill="url(#paint3_linear_633_3)"/>
<path d="M354 390.628V401.601C379.415 386.82 399.166 364.287 410.217 337.463C421.268 310.64 423.009 281.009 415.172 253.124C407.336 225.239 390.354 200.641 366.838 183.11C343.321 165.579 314.569 156.084 285 156.084C255.431 156.084 226.679 165.579 203.162 183.11C179.646 200.641 162.665 225.239 154.828 253.124C146.991 281.009 148.732 310.64 159.783 337.463C170.834 364.287 190.585 386.82 216 401.601V390.628C208.92 344.152 204.6 285.002 223.86 266.165C246.12 244.394 323.88 244.394 346.14 266.165C365.4 284.884 361.08 344.152 354 390.628Z" fill="#FFF873"/>
<path d="M222 411.46V433.407C262.766 447.488 307.234 447.488 348 433.407V411.46C328.453 421.069 306.878 426.074 285 426.074C263.122 426.074 241.547 421.069 222 411.46Z" fill="#D9D9D9"/>
<path d="M348 392.33C307.153 405.944 262.847 405.944 222 392.33V405.122C241.408 415.178 263.037 420.435 285 420.435C306.963 420.435 328.592 415.178 348 405.122V392.33Z" fill="#DDC7F8"/>
<path d="M261.42 370.266L285 378.95L308.58 370.266C314.862 367.946 320.274 363.813 324.1 358.416C327.925 353.019 329.983 346.612 330 340.045V335.115C330 334.337 330.316 333.591 330.879 333.041C331.441 332.491 332.204 332.181 333 332.181C333.72 332.181 336 329.071 336 323.379C336 317.687 333.72 314.577 333 314.577C332.454 314.573 331.92 314.423 331.455 314.144C330.99 313.865 330.611 313.467 330.36 312.993L313.32 281.657C306.856 288.657 298.903 294.186 290.019 297.856C281.135 301.526 271.537 303.248 261.9 302.899C254.486 302.944 247.106 301.916 240 299.848V311.584C240 312.362 239.684 313.109 239.121 313.659C238.559 314.209 237.796 314.518 237 314.518C236.28 314.518 234 317.628 234 323.321C234 329.013 236.28 332.123 237 332.123C237.796 332.123 238.559 332.432 239.121 332.982C239.684 333.532 240 334.279 240 335.057V339.986C240.005 346.563 242.057 352.983 245.883 358.392C249.71 363.801 255.129 367.942 261.42 370.266Z" fill="#F47155"/>
<path d="M341.94 270.273C322.26 251.084 247.74 251.084 227.94 270.273C214.62 283.3 212.28 324.201 221.22 385.581C233.098 389.764 245.382 392.752 257.88 394.501V375.195C250.786 372.279 244.728 367.385 240.46 361.124C236.192 354.863 233.903 347.511 233.88 339.986V337.228C231.771 335.584 230.118 333.45 229.07 331.021C228.022 328.592 227.612 325.944 227.88 323.32C227.612 320.697 228.022 318.049 229.07 315.62C230.118 313.19 231.771 311.057 233.88 309.413V295.799C233.882 295.329 233.997 294.867 234.216 294.449C234.435 294.031 234.751 293.669 235.14 293.393C235.544 293.137 236.002 292.973 236.479 292.912C236.956 292.851 237.442 292.895 237.9 293.041C245.596 295.746 253.722 297.097 261.9 297.031C271.394 297.405 280.844 295.567 289.471 291.67C298.098 287.773 305.655 281.927 311.52 274.615C311.823 274.236 312.217 273.937 312.667 273.742C313.117 273.548 313.609 273.465 314.1 273.5C314.601 273.555 315.081 273.727 315.499 274.003C315.917 274.279 316.26 274.65 316.5 275.084L334.98 309.061C339 310.176 342 316.044 342 323.379C342.267 326.003 341.858 328.65 340.809 331.08C339.761 333.509 338.108 335.643 336 337.287V340.045C335.976 347.57 333.688 354.922 329.42 361.183C325.152 367.444 319.093 372.338 312 375.253V394.56C324.497 392.811 336.781 389.822 348.66 385.64C357.6 324.201 355.26 283.3 341.94 270.273Z" fill="#9854CB"/>
<path d="M414 481.819V502.357H156V481.819C156.016 467.038 162.026 452.868 172.712 442.417C183.399 431.965 197.888 426.087 213 426.071H216V435.167C216 435.77 216.19 436.358 216.545 436.852C216.899 437.345 217.4 437.72 217.98 437.925C261.256 453.416 308.744 453.416 352.02 437.925C352.6 437.72 353.101 437.345 353.455 436.852C353.81 436.358 354 435.77 354 435.167V426.071H357C372.112 426.087 386.601 431.965 397.288 442.417C407.974 452.868 413.984 467.038 414 481.819Z" fill="#FBCB20"/>
<path d="M207 458.346H195V502.357H207V458.346Z" fill="#FC8370"/>
<path d="M375 458.346H363V502.357H375V458.346Z" fill="#FC8370"/>
<path d="M464.581 177.204C448.681 180.666 445.081 184.187 441.541 199.738C441.541 199.878 441.484 200.012 441.383 200.111C441.281 200.21 441.144 200.266 441.001 200.266C440.858 200.266 440.72 200.21 440.619 200.111C440.518 200.012 440.461 199.878 440.461 199.738C436.921 184.187 433.321 180.666 417.421 177.204C417.278 177.204 417.14 177.148 417.039 177.049C416.938 176.95 416.881 176.816 416.881 176.676C416.881 176.536 416.938 176.401 417.039 176.302C417.14 176.203 417.278 176.148 417.421 176.148C433.321 172.685 436.921 169.165 440.461 153.614C440.461 153.474 440.518 153.34 440.619 153.241C440.72 153.142 440.858 153.086 441.001 153.086C441.144 153.086 441.281 153.142 441.383 153.241C441.484 153.34 441.541 153.474 441.541 153.614C445.081 169.165 448.681 172.685 464.581 176.148C464.724 176.148 464.861 176.203 464.963 176.302C465.064 176.401 465.121 176.536 465.121 176.676C465.121 176.816 465.064 176.95 464.963 177.049C464.861 177.148 464.724 177.204 464.581 177.204Z" fill="#9854CB"/>
<path d="M152.581 406.061C136.681 409.523 133.081 413.044 129.541 428.595C129.541 428.735 129.484 428.869 129.383 428.968C129.281 429.067 129.144 429.123 129.001 429.123C128.858 429.123 128.72 429.067 128.619 428.968C128.518 428.869 128.461 428.735 128.461 428.595C124.921 413.044 121.321 409.523 105.421 406.061C105.278 406.061 105.14 406.005 105.039 405.906C104.938 405.807 104.881 405.673 104.881 405.533C104.881 405.393 104.938 405.258 105.039 405.159C105.14 405.06 105.278 405.005 105.421 405.005C121.321 401.543 124.921 398.022 128.461 382.471C128.461 382.331 128.518 382.197 128.619 382.098C128.72 381.999 128.858 381.943 129.001 381.943C129.144 381.943 129.281 381.999 129.383 382.098C129.484 382.197 129.541 382.331 129.541 382.471C133.081 398.022 136.681 401.543 152.581 405.005C152.724 405.005 152.861 405.06 152.963 405.159C153.064 405.258 153.121 405.393 153.121 405.533C153.121 405.673 153.064 405.807 152.963 405.906C152.861 406.005 152.724 406.061 152.581 406.061Z" fill="#9854CB"/>
<path d="M183 294.038H171V305.775H183V294.038Z" fill="#FFCD34"/>
<path d="M195 241.225H183V252.962H195V241.225Z" fill="#FFCD34"/>
<path d="M231 200.148H219V211.885H231V200.148Z" fill="#FFCD34"/>
<path d="M399 294.038H387V305.775H399V294.038Z" fill="#FFCD34"/>
<path d="M447 405.533H435V417.269H447V405.533Z" fill="#FFCD34"/>
<path d="M387 241.225H375V252.962H387V241.225Z" fill="#FFCD34"/>
<path d="M351 200.148H339V211.885H351V200.148Z" fill="#FFCD34"/>
<path d="M291 458.346H279V470.082H291V458.346Z" fill="#FC8370"/>
<path d="M291 481.819H279V493.555H291V481.819Z" fill="#FC8370"/>
<path d="M283.92 384.818L264 377.483V395.088C277.957 396.613 292.043 396.613 306 395.088V377.483L286.08 384.818C285.38 385.055 284.62 385.055 283.92 384.818Z" fill="#F47155"/>
<path d="M123 176.676H111V188.412H123V176.676Z" fill="#FFCD34"/>
<defs>
<linearGradient id="paint0_linear_633_3" x1="245.924" y1="678.5" x2="474.821" y2="685.109" gradientUnits="userSpaceOnUse">
<stop stop-color="#FF4A97"/>
<stop offset="1" stop-color="#FF4A97" stop-opacity="0"/>
</linearGradient>
<linearGradient id="paint1_linear_633_3" x1="907.415" y1="522" x2="1523.87" y2="743.752" gradientUnits="userSpaceOnUse">
<stop stop-color="#FF4A97"/>
<stop offset="1" stop-color="#FF4A97" stop-opacity="0"/>
</linearGradient>
<linearGradient id="paint2_linear_633_3" x1="884.984" y1="184.939" x2="1593.98" y2="755.439" gradientUnits="userSpaceOnUse">
<stop stop-color="#FF4A97"/>
<stop offset="1" stop-color="#FF4A97" stop-opacity="0"/>
</linearGradient>
<linearGradient id="paint3_linear_633_3" x1="254.915" y1="132.12" x2="282.542" y2="814.378" gradientUnits="userSpaceOnUse">
<stop stop-color="white" stop-opacity="0"/>
<stop offset="1" stop-color="#9854CB"/>
</linearGradient>
</defs>
</svg>
