<svg width="493" height="673" viewBox="0 0 493 673" fill="none" xmlns="http://www.w3.org/2000/svg">
<path d="M43.2059 246.347L6.47729 282.583C4.16976 284.86 5.38661 288.792 8.57672 289.367L18.1498 291.094C19.1441 291.273 20.0337 291.822 20.6399 292.63L28.2365 302.759C29.1959 304.038 30.8249 304.623 32.3789 304.246L37.7559 302.943C39.1115 302.614 40.5404 303.015 41.5267 304.002L51.3416 313.817C52.0917 314.567 53.1091 314.988 54.17 314.988H61.4715C62.7768 314.988 64 315.625 64.7485 316.694L77.4901 334.897C78.181 335.884 78.3903 337.13 78.0597 338.288L75.8859 345.906C75.648 346.74 75.6875 347.629 75.9984 348.438L78.1502 354.04C78.432 354.774 78.4914 355.574 78.3212 356.341L76.1636 366.064C75.7811 367.787 76.5734 369.557 78.1133 370.42L81.6972 372.428C82.6463 372.96 83.3378 373.855 83.6124 374.908L84.3705 377.814C84.7676 379.336 84.2358 380.949 83.0117 381.937L77.9752 386C76.535 387.162 76.0798 389.16 76.8745 390.831L77.4709 392.085C78.1472 393.507 77.9262 395.194 76.9063 396.394L74.5085 399.215C73.7821 400.069 73.4478 401.19 73.5873 402.303L75.3312 416.215C75.4525 417.182 75.2163 418.161 74.6672 418.966L67.9236 428.857C67.4447 429.559 66.7544 430.091 65.9529 430.375L54.2837 434.504C52.686 435.069 51.618 436.58 51.618 438.275V439.351C51.618 441.56 53.4089 443.351 55.618 443.351H60.4324C61.671 443.351 62.8397 443.925 63.5972 444.905L68.5461 451.307C69.0876 452.008 69.3814 452.868 69.3814 453.753V463.996C69.3814 465.19 69.9149 466.322 70.8362 467.082L81.1249 475.568C81.4118 475.805 81.6643 476.081 81.8751 476.387L103.184 507.357C104.591 509.402 107.502 509.685 109.276 507.949L118.997 498.439C119.638 497.812 120.47 497.419 121.361 497.322L134.578 495.88C135.988 495.726 137.374 496.331 138.221 497.469L145.073 506.681C145.877 507.763 146.083 509.177 145.619 510.443L143.539 516.128C143.377 516.568 143.295 517.034 143.295 517.503V524.508C143.295 525.989 142.477 527.348 141.168 528.042L120.105 539.208C118.724 539.94 117.896 541.406 117.899 542.969C117.906 546.774 117.596 553.961 115.386 558.504C113.282 562.828 107.34 566.421 102.849 568.63C100.292 569.888 99.4722 573.33 101.389 575.438L109.06 583.877C109.247 584.082 109.412 584.306 109.552 584.546L126.438 613.385C127.016 614.372 127.988 615.058 129.085 615.38C131.496 616.088 135.691 617.685 136.854 620.457C138.052 623.312 135.866 627.014 133.838 629.601C132.427 631.402 132.407 634.057 134.054 635.647L147.594 648.72C148.374 649.474 148.815 650.512 148.815 651.598V656.407C148.815 658.326 150.178 659.975 152.063 660.336L162.285 662.293C162.906 662.412 163.49 662.676 163.989 663.065L171.802 669.143C173.936 670.803 177.069 669.911 178.009 667.375L181.684 657.456C182.215 656.022 181.868 654.42 180.978 653.178C179.699 651.394 178.248 648.743 179.178 646.832C179.453 646.269 179.931 645.777 180.495 645.356C182.453 643.896 183.887 641.42 183.211 639.073C182.013 634.916 180.793 628.694 182.552 624.444C183.419 622.347 185.246 620.164 186.963 618.419C188.807 616.545 188.806 613.316 187.076 611.336C184.886 608.83 182.552 605.262 182.552 601.442C182.552 594.245 181.195 573.563 181.195 565.983C181.195 559.377 197.128 539.977 201.228 535.094C201.842 534.362 202.18 533.443 202.18 532.487V523.465C202.18 522.341 202.653 521.269 203.483 520.511L207.931 516.45C208.761 515.692 209.234 514.62 209.234 513.496V500.189C209.234 499.811 209.288 499.434 209.394 499.071L215.944 476.566C216.302 475.336 217.227 474.352 218.432 473.919L235.875 467.652C236.308 467.496 236.766 467.416 237.227 467.416H254.132C255.23 467.416 256.28 466.964 257.035 466.167L265.423 457.313C266.342 456.344 267.684 455.896 269 456.121L277.634 457.595C278.797 457.794 279.988 457.469 280.889 456.708L296.498 443.52C296.996 443.1 297.589 442.808 298.225 442.668L305.593 441.057C306.545 440.848 307.388 440.3 307.964 439.513L322.74 419.352C323.493 418.324 324.692 417.716 325.966 417.716H336.368C337.066 417.716 337.752 417.533 338.357 417.186L348.587 411.321C350.419 410.27 352.754 410.825 353.916 412.589L361.782 424.525C362.253 425.241 362.942 425.786 363.747 426.08L369.28 428.105C371.057 428.754 373.045 428.071 374.047 426.467L378.105 419.971C378.958 418.605 380.54 417.882 382.134 418.112C387.413 418.874 399.268 420.395 404.434 419.534C409.062 418.763 409.873 414.048 410.016 412.419C410.048 412.05 409.994 411.685 409.911 411.324C409.473 409.431 408.222 402.779 410.046 394.843C411.255 389.581 406.835 380.351 405.778 378.254C405.632 377.963 405.446 377.699 405.229 377.456L392.513 363.296C391.854 362.562 391.489 361.61 391.489 360.623V350.427C391.489 349.077 392.17 347.818 393.3 347.08L396.398 345.054C397.245 344.5 397.851 343.645 398.093 342.662L401.236 329.895C401.439 329.069 401.891 328.338 402.524 327.77C406.307 324.379 419.761 311.502 419.014 300.574C418.481 292.777 410.793 284.534 407.656 281.476C406.831 280.671 406.339 279.581 406.339 278.428V268.272C406.339 267.057 406.892 265.908 407.84 265.149L412.023 261.802C412.972 261.043 413.525 259.894 413.525 258.679V248.105C413.525 246.652 412.737 245.314 411.467 244.609L406.959 242.104C405.69 241.399 404.902 240.06 404.902 238.608V235.005C404.902 233.391 405.873 231.934 407.364 231.313L410.449 230.027C412.231 229.285 413.228 227.376 412.821 225.49L412.18 222.529C411.835 220.931 412.497 219.284 413.852 218.369L428.29 208.619C429.391 207.875 430.051 206.633 430.051 205.304V188.13C430.051 186.729 430.784 185.43 431.984 184.706L441.792 178.784C442.416 178.408 443.131 178.208 443.859 178.208H452.805C454.128 178.208 455.2 177.136 455.2 175.813C455.2 174.49 456.272 173.418 457.595 173.418H465.668C467.639 173.418 469.316 171.983 469.62 170.036L470.054 167.261C470.206 166.29 470.709 165.409 471.469 164.786L490.143 149.469C491.069 148.71 491.606 147.575 491.606 146.377V138.515C491.606 137.546 491.255 136.61 490.617 135.881L486.91 131.645C485.103 129.58 481.8 129.906 480.432 132.285L479.786 133.409C478.655 135.376 476.116 136.009 474.193 134.804L471.596 133.175C470.151 132.269 468.263 132.54 467.132 133.817C465.669 135.468 463.061 135.364 461.734 133.602L461.409 133.17C460.667 132.184 459.504 131.604 458.27 131.604H446.968C445.179 131.604 443.607 130.415 443.119 128.693L441.512 123.011C441.228 122.006 440.562 121.152 439.656 120.632L408.223 102.574C407.616 102.226 406.929 102.043 406.23 102.043H397.95C397.636 102.043 397.323 102.006 397.017 101.932L380.075 97.8696C377.827 97.3302 375.59 98.8049 375.2 101.084L374.577 104.725C374.155 107.191 371.598 108.669 369.25 107.803L361.789 105.052C360.317 104.509 358.664 104.877 357.561 105.992L354.996 108.587C354.429 109.161 353.701 109.549 352.909 109.702L335.711 113.017C334.766 113.2 333.918 113.717 333.323 114.474L322.273 128.537C321.515 129.502 320.355 130.066 319.128 130.066H318.366C316.156 130.066 314.366 128.275 314.366 126.066V125.89C314.366 124.483 315.105 123.179 316.313 122.457L324.546 117.536C325.247 117.117 325.803 116.494 326.139 115.749L328.232 111.114C328.705 110.067 328.705 108.868 328.232 107.821L326.903 104.879C326.15 103.211 324.361 102.267 322.559 102.586L319.382 103.15C318.581 103.292 317.842 103.675 317.265 104.248L312.272 109.198C312.091 109.377 311.928 109.574 311.784 109.784L304.678 120.197C304.129 121 303.893 121.976 304.012 122.941L305.69 136.553C305.87 138.015 305.232 139.459 304.028 140.309L288.367 151.377C287.699 151.848 287.192 152.513 286.914 153.282L284.758 159.24C284.273 160.58 283.111 161.561 281.708 161.815L274.614 163.096C272.696 163.442 270.933 161.969 270.933 160.02C270.933 159.118 271.323 158.259 272.004 157.665L279.424 151.191C280.295 150.431 280.795 149.332 280.795 148.177V125.943C280.795 124.507 281.564 123.182 282.81 122.47L285.58 120.887C286.687 120.254 287.426 119.131 287.57 117.864L289.032 104.952C289.148 103.935 289.648 103.001 290.431 102.342L299.946 94.3309C300.849 93.5709 301.37 92.451 301.37 91.271V79.5478C301.37 75.5469 296.146 74.0244 293.996 77.3988L285.153 91.2812C284.419 92.4341 283.147 93.1322 281.78 93.1322H278.985C276.446 93.1322 274.549 90.7977 275.069 88.3127L275.193 87.7236C275.526 86.1308 276.791 84.8987 278.392 84.6076L282.117 83.9303C283.293 83.7165 284.312 82.9882 284.894 81.9448L294.458 64.8167C295.573 62.8199 294.789 60.2965 292.74 59.2819L279.441 52.6985C278.294 52.1304 277.488 51.0472 277.273 49.7848L276.081 42.7803C275.874 41.5639 275.012 40.5612 273.84 40.1736C271.513 39.4035 270.784 36.4691 272.481 34.6993L274.009 33.1051C275.07 31.9984 275.405 30.3827 274.872 28.9453L273.642 25.6294C272.44 22.3898 267.972 22.0958 266.356 25.1499L263.978 29.6441C262.287 32.8397 257.56 32.3299 256.589 28.8472L256.142 27.2445C255.364 24.4536 251.97 23.3898 249.738 25.2378L241.882 31.7433C240.64 32.7724 240.137 34.4474 240.608 35.9908L241.573 39.1565C241.894 40.2078 241.767 41.3448 241.224 42.3003L241.034 42.6349C239.302 45.6807 234.769 45.1859 233.735 41.8383L231.161 33.506C230.739 32.1385 231.079 30.6495 232.054 29.6014L235.393 26.0107C236.081 25.2706 236.464 24.2974 236.464 23.2867V22.619C236.464 19.4996 233.052 17.5806 230.386 19.2009L230.189 19.3206C228.362 20.4311 225.985 19.9086 224.792 18.1345L223.345 15.9818C221.661 13.4775 217.916 13.6687 216.496 16.3314L215.73 17.7683C215.346 18.4879 214.751 19.073 214.025 19.4452L211.859 20.5563C209.724 21.6509 207.113 20.6337 206.282 18.3836L205.499 16.2666C204.986 14.8782 205.282 13.32 206.267 12.2159L207.797 10.5023C208.752 9.43272 209.062 7.93372 208.608 6.57337L207.926 4.52631C207.18 2.28938 204.671 1.17949 202.515 2.13247L200.049 3.22176C199.103 3.63988 198.493 4.57696 198.493 5.61149C198.493 7.88905 195.782 9.07606 194.108 7.53125L190.211 3.93364C188.264 2.13683 185.14 2.6943 183.935 5.05349L183.707 5.49988C183.024 6.83821 181.648 7.68051 180.145 7.68051H178.711C176.834 7.68051 175.21 8.98543 174.805 10.8181L170.788 29.0121C170.477 30.4228 169.429 31.5558 168.047 31.9765L167.609 32.1099C165.292 32.8151 164.128 35.4014 165.137 37.6031L166.604 40.8035L171.853 52.8757C172.403 54.1418 172.262 55.6023 171.479 56.7394L152.07 84.9217C151.052 86.3991 151.143 88.3731 152.291 89.7512L154.506 92.4086C155.671 93.8062 155.745 95.8138 154.688 97.2943L151.546 101.694C150.795 102.745 149.582 103.369 148.291 103.369H140.548C138.339 103.369 136.548 105.159 136.548 107.369V113.972C136.548 114.852 136.838 115.708 137.375 116.407L144.025 125.072C145.449 126.928 144.984 129.603 143.018 130.87L133.628 136.922C133.127 137.244 132.705 137.675 132.392 138.181L103.474 184.968C102.399 186.707 102.809 188.976 104.423 190.23L106.759 192.045C108.483 193.384 108.815 195.857 107.505 197.604L102.57 204.184C101.939 205.026 101.001 205.585 99.9595 205.74L89.7111 207.267C88.1629 207.497 86.8914 208.61 86.4573 210.114L79.0807 235.668C78.7636 236.766 77.9918 237.676 76.9601 238.168L65.0443 243.854C64.0899 244.309 63.3547 245.124 62.9994 246.12L62.7637 246.781C62.0167 248.875 59.7054 249.958 57.6182 249.192L47.3933 245.439C45.9395 244.906 44.3083 245.259 43.2059 246.347Z" fill="#9854CB" stroke="#9854CB"/>
<ellipse cx="37.0691" cy="300.285" rx="17.8821" ry="8.03669" fill="#FFCD34"/>
<path fill-rule="evenodd" clip-rule="evenodd" d="M36.8621 245.434C23.4323 245.434 14.6975 259.567 20.7035 271.579L33.2844 296.74C34.7584 299.689 38.9657 299.689 40.4398 296.74L53.0206 271.579C59.0266 259.567 50.2919 245.434 36.8621 245.434ZM36.8622 271.134C40.6801 271.134 43.7751 268.039 43.7751 264.221C43.7751 260.403 40.6801 257.308 36.8622 257.308C33.0442 257.308 29.9492 260.403 29.9492 264.221C29.9492 268.039 33.0442 271.134 36.8622 271.134Z" fill="#FF4A97"/>
<path d="M34.4769 252.616C35.6341 250.629 38.5043 250.629 39.6615 252.616L41.5268 255.818C41.9507 256.546 42.661 257.062 43.4842 257.24L47.1062 258.025C49.3533 258.511 50.2403 261.241 48.7083 262.956L46.2391 265.719C45.6779 266.347 45.4066 267.182 45.4914 268.02L45.8647 271.707C46.0963 273.995 43.7743 275.682 41.6703 274.755L38.279 273.26C37.5082 272.921 36.6302 272.921 35.8595 273.26L32.4682 274.755C30.3642 275.682 28.0421 273.995 28.2737 271.707L28.647 268.02C28.7319 267.182 28.4605 266.347 27.8993 265.719L25.4301 262.956C23.8981 261.241 24.7851 258.511 27.0322 258.025L30.6543 257.24C31.4774 257.062 32.1878 256.546 32.6117 255.818L34.4769 252.616Z" fill="#FFCD34"/>
</svg>
