<svg width="3416" height="4486" viewBox="0 0 3416 4486" fill="none" xmlns="http://www.w3.org/2000/svg">
<path d="M1982.4 171.65C2060.86 173.37 2109.52 197.489 2141.95 234.243C2174.56 271.2 2191.17 321.37 2204.51 376.124C2208.24 391.443 2211.72 407.135 2215.23 422.967C2224.19 463.407 2233.35 504.756 2247.48 543.102C2267.21 596.657 2296.81 645.007 2349.62 678.135C2425.54 725.756 2507.59 725.341 2585.04 724.949C2593.05 724.909 2601 724.868 2608.9 724.881C2693.52 725.021 2771.3 731.183 2831.73 805.395C2890.73 877.846 2888.7 951.667 2877.1 1031.27C2875.23 1044.09 2873.11 1057.07 2870.96 1070.22C2859.81 1138.49 2847.92 1211.25 2866.88 1289.47C2883.99 1360.02 2920.91 1419.35 2964.79 1472.74C2996.23 1511 3031.4 1546.39 3065.47 1580.66C3078.87 1594.14 3092.09 1607.45 3104.85 1620.68C3150.21 1667.76 3189.77 1714.07 3211.55 1765.05C3233.23 1815.83 3237.35 1871.41 3211.41 1937.31C3166.99 2050.18 3075.71 2083.16 2970.86 2107.99C2956.48 2111.39 2941.83 2114.64 2927.03 2117.93C2834.27 2138.52 2735.2 2160.52 2654.13 2230.87C2582.53 2293.01 2545.6 2365.15 2510.23 2434.23C2506.13 2442.25 2502.04 2450.23 2497.93 2458.15C2458.33 2534.34 2415.81 2605.07 2324.49 2654.35C2211.73 2715.21 2111.33 2703.28 2006.44 2679.83C1989.91 2676.13 1973.26 2672.15 1956.43 2668.12C1866.59 2646.62 1771.64 2623.89 1662.72 2637.61C1569.11 2649.39 1491.67 2692.06 1419.17 2732.01C1402.39 2741.26 1385.87 2750.36 1369.47 2758.9C1282.05 2804.43 1197.87 2834.32 1093.79 2788.91C1025.33 2759.04 992.259 2708.71 960.204 2654.76C957.99 2651.04 955.781 2647.29 953.566 2643.54C923.753 2593.02 892.703 2540.4 832.595 2501.37C758.45 2453.21 678.498 2453.85 602.66 2454.45C596.1 2454.51 589.57 2454.56 583.078 2454.58C501.215 2454.83 425.14 2450.11 363.831 2380.3C318.743 2328.96 304.495 2278.02 308.838 2226.17C313.2 2174.09 336.344 2120.79 366.716 2064.95C380.378 2039.83 395.448 2014.29 410.864 1988.17C412.568 1985.28 414.276 1982.38 415.987 1979.48C433.163 1950.35 450.606 1920.49 466.771 1889.82C499.096 1828.49 526.419 1763.73 536.39 1694.52C553.274 1577.34 533.693 1472.66 515.217 1373.89C510.657 1349.51 506.164 1325.5 502.304 1301.74C482.781 1181.6 479.193 1067.53 562.764 944.444C645.832 822.096 783.163 815.278 930.028 826.06C955.298 827.915 980.872 830.294 1006.46 832.674C1054.89 837.178 1103.37 841.687 1149.96 842.664C1221.27 844.159 1288.94 837.431 1346.59 809.536C1404.35 781.588 1453.26 726.832 1499 661.175C1529.17 617.86 1558.18 569.463 1587.51 520.543C1602.61 495.34 1617.8 469.998 1633.28 445.141C1678.91 371.846 1727.14 302.552 1783.58 252.016C1839.94 201.553 1904.32 169.938 1982.4 171.65Z" fill="#330043" stroke="#330043" stroke-width="7.48415"/>
<path d="M465.196 1683.4C509.338 1375.91 315.357 1151.2 493.457 888.394C671.558 625.589 1082.54 860.93 1322.66 744.604C1453.05 681.44 1541.55 485.69 1648.81 321.157M2933.77 1255.33C2886.41 1059.87 3022.56 897.724 2895.72 741.745C2765.55 581.656 2560.23 715.87 2385.62 606.14C2301.62 553.347 2273.92 463.298 2252.84 371.895" stroke="#330043" stroke-width="7.48415"/>
<path d="M2138.86 1379.46L2212.65 1366.66C2288.85 1353.45 2339.7 1278.26 2325.86 1198.46C2318.8 1157.71 2308.51 1128.67 2290.96 1111.37C2273.69 1094.36 2248.63 1088.06 2210.1 1094.74C2192.94 1097.72 2174.57 1105.43 2160.34 1112.5C2153.26 1116.03 2147.27 1119.36 2143.05 1121.81C2140.95 1123.03 2139.3 1124.03 2138.17 1124.72L2138.86 1379.46Z" fill="#F47155" stroke="#330043" stroke-width="7.48415"/>
<path d="M1680.37 1667.8L1759.56 1667.8L1779.1 1805.85H1665.63L1680.37 1667.8Z" fill="#F47155"/>
<path d="M1325.58 1520.48L1251.78 1533.28C1175.58 1546.49 1102.39 1492.82 1088.55 1413.02C1081.48 1372.27 1081.39 1341.46 1092.1 1319.26C1102.63 1297.43 1124.1 1283.06 1162.63 1276.38C1179.79 1273.4 1199.69 1274.48 1215.47 1276.35C1223.32 1277.28 1230.08 1278.4 1234.88 1279.29C1237.27 1279.73 1239.16 1280.12 1240.46 1280.39L1325.58 1520.48Z" fill="#F47155" stroke="#330043" stroke-width="7.48415"/>
<path d="M2153.58 1212.24C2191.62 1431.63 2021.69 1645.05 1772.9 1688.19C1524.11 1731.33 1292.24 1587.58 1254.2 1368.19L1254.11 1367.69L1254.03 1367.19L1253.94 1366.69L1253.85 1366.19L1253.77 1365.69L1253.68 1365.19L1253.59 1364.69L1253.51 1364.19L1253.42 1363.69L1253.33 1363.2L1253.25 1362.7L1253.16 1362.21L1253.08 1361.72L1252.99 1361.22L1252.91 1360.73L1252.82 1360.24L1252.74 1359.75L1252.65 1359.26L1252.57 1358.77L1252.48 1358.29L1252.4 1357.8L1252.31 1357.31L1252.23 1356.83L1252.15 1356.34L1252.06 1355.86L1251.98 1355.38L1251.89 1354.9L1251.81 1354.42L1251.73 1353.94L1251.64 1353.46L1251.56 1352.98L1251.48 1352.5L1251.4 1352.02L1251.31 1351.55L1251.23 1351.07L1251.15 1350.6L1251.07 1350.13L1250.99 1349.65L1250.9 1349.18L1250.82 1348.71L1250.74 1348.24L1250.66 1347.77L1250.58 1347.31L1250.5 1346.84L1250.42 1346.37L1250.34 1345.91L1250.25 1345.44L1250.17 1344.98L1250.09 1344.52L1250.01 1344.05L1249.93 1343.59L1249.85 1343.13L1249.77 1342.67L1249.69 1342.21L1249.62 1341.76L1249.54 1341.3L1249.46 1340.84L1249.38 1340.39L1249.3 1339.93L1249.22 1339.48L1249.14 1339.03L1249.06 1338.57L1248.99 1338.12L1248.91 1337.67L1248.83 1337.22L1248.75 1336.78L1248.67 1336.33L1248.6 1335.88L1248.52 1335.44L1248.44 1334.99L1248.37 1334.55L1248.29 1334.1L1248.21 1333.66L1248.14 1333.22L1248.06 1332.78L1247.98 1332.34L1247.91 1331.9L1247.83 1331.46L1247.75 1331.03L1247.68 1330.59L1247.6 1330.16L1247.53 1329.72L1247.45 1329.29L1247.38 1328.85L1247.3 1328.42L1247.23 1327.99L1247.15 1327.56L1247.08 1327.13L1247.01 1326.7L1246.93 1326.28L1246.86 1325.85L1246.78 1325.42L1246.71 1325L1246.64 1324.58L1246.56 1324.15L1246.49 1323.73L1246.42 1323.31L1246.34 1322.89L1246.27 1322.47L1246.2 1322.05L1246.13 1321.63L1246.05 1321.22L1245.98 1320.8L1245.91 1320.39L1245.84 1319.97L1245.77 1319.56L1245.69 1319.15L1245.62 1318.74L1245.55 1318.32L1245.48 1317.91L1245.41 1317.51L1245.34 1317.1L1245.27 1316.69L1245.2 1316.29L1245.13 1315.88L1245.06 1315.48L1244.99 1315.07L1244.92 1314.67L1244.85 1314.27L1244.78 1313.87L1244.71 1313.47L1244.64 1313.07L1244.57 1312.67L1244.5 1312.27L1244.43 1311.88L1244.37 1311.48L1244.3 1311.09L1244.23 1310.69L1244.16 1310.3L1244.09 1309.91L1244.03 1309.52L1243.96 1309.13L1243.89 1308.74L1243.82 1308.35L1243.76 1307.97L1243.69 1307.58L1243.62 1307.19L1243.56 1306.81L1243.49 1306.43L1243.42 1306.04L1243.36 1305.66L1243.29 1305.28L1243.22 1304.9L1243.16 1304.52L1243.09 1304.14L1243.03 1303.77L1242.96 1303.39L1242.9 1303.02L1242.83 1302.64L1242.77 1302.27L1242.7 1301.89L1242.64 1301.52L1242.57 1301.15L1242.51 1300.78L1242.45 1300.41L1242.38 1300.05L1242.32 1299.68L1242.26 1299.31L1242.19 1298.95L1242.13 1298.58L1242.07 1298.22L1242 1297.86L1241.94 1297.5L1241.88 1297.14L1241.82 1296.78L1241.75 1296.42L1241.69 1296.06L1241.63 1295.7L1241.57 1295.35L1241.51 1294.99L1241.44 1294.64L1241.38 1294.28L1241.32 1293.93L1241.26 1293.58L1241.2 1293.23L1241.14 1292.88L1241.08 1292.53L1241.02 1292.19L1240.96 1291.84L1240.9 1291.49L1240.84 1291.15L1240.78 1290.81L1240.72 1290.46L1240.66 1290.12L1240.6 1289.78L1240.54 1289.44L1240.48 1289.1L1240.43 1288.76L1240.37 1288.43L1240.31 1288.09L1240.25 1287.75L1240.19 1287.42L1240.14 1287.09L1240.08 1286.75L1240.02 1286.42L1239.96 1286.09L1239.91 1285.76L1239.85 1285.43L1239.79 1285.11L1239.74 1284.78L1239.68 1284.45L1239.62 1284.13L1239.57 1283.8L1239.51 1283.48L1239.45 1283.16L1239.4 1282.84L1239.34 1282.52L1239.29 1282.2L1239.23 1281.88L1239.18 1281.56L1239.12 1281.25L1239.07 1280.93L1239.01 1280.62L1238.96 1280.3L1238.9 1279.99L1238.85 1279.68L1238.8 1279.37L1238.74 1279.06L1238.69 1278.75L1238.64 1278.44L1238.58 1278.14L1238.53 1277.83L1238.48 1277.53L1238.42 1277.22L1238.37 1276.92L1238.32 1276.62L1238.27 1276.32L1238.22 1276.02L1238.16 1275.72L1238.11 1275.42L1238.06 1275.12L1238.01 1274.83L1237.96 1274.53L1237.91 1274.24L1237.86 1273.94L1237.81 1273.65L1237.75 1273.36L1237.7 1273.07L1237.65 1272.78L1237.6 1272.49L1237.55 1272.2L1237.5 1271.92L1237.46 1271.63L1237.41 1271.35L1237.36 1271.06L1237.31 1270.78L1237.26 1270.5L1237.21 1270.22L1237.16 1269.94L1237.11 1269.66L1237.07 1269.38L1237.02 1269.11L1236.97 1268.83L1236.92 1268.56L1236.87 1268.28L1236.83 1268.01L1236.78 1267.74L1236.73 1267.47L1236.69 1267.2L1236.64 1266.93L1236.59 1266.66L1236.55 1266.4L1236.5 1266.13L1236.46 1265.86L1236.41 1265.6L1236.36 1265.34L1236.32 1265.08L1236.27 1264.82L1236.23 1264.56L1236.18 1264.3L1236.14 1264.04L1236.09 1263.78L1236.05 1263.53L1236.01 1263.27L1235.96 1263.02L1235.92 1262.76L1235.87 1262.51L1235.83 1262.26L1235.79 1262.01L1235.74 1261.76L1235.7 1261.52L1235.66 1261.27L1235.62 1261.02L1235.57 1260.78L1235.53 1260.53L1235.49 1260.29L1235.45 1260.05L1235.41 1259.81L1235.36 1259.57L1235.32 1259.33L1235.28 1259.09L1235.24 1258.85L1235.2 1258.62L1235.16 1258.38L1235.12 1258.15L1235.08 1257.92L1235.04 1257.68L1235 1257.45L1234.96 1257.22L1234.92 1257L1234.88 1256.77L1234.84 1256.54L1234.8 1256.32L1234.76 1256.09L1234.72 1255.87L1234.68 1255.64L1234.64 1255.42L1234.61 1255.2L1234.57 1254.98L1234.53 1254.76L1234.49 1254.55L1234.45 1254.33L1234.42 1254.11L1234.38 1253.9L1234.34 1253.68L1234.31 1253.47L1234.27 1253.26L1234.23 1253.05L1234.2 1252.84L1234.16 1252.63L1234.12 1252.42L1234.09 1252.22L1234.05 1252.01L1234.02 1251.81L1233.98 1251.61L1233.95 1251.4L1233.91 1251.2L1233.88 1251L1233.84 1250.8L1233.81 1250.6L1233.77 1250.41L1233.74 1250.21L1233.71 1250.02L1233.67 1249.82L1233.64 1249.63L1233.61 1249.44L1233.57 1249.25L1233.54 1249.06L1233.51 1248.87L1233.48 1248.68L1233.44 1248.49L1233.41 1248.31L1233.38 1248.12L1233.35 1247.94L1233.31 1247.75L1233.28 1247.57L1233.25 1247.39L1233.22 1247.21L1233.19 1247.03L1233.16 1246.86L1233.13 1246.68L1233.1 1246.5L1233.07 1246.33L1233.04 1246.16L1233.01 1245.98L1232.98 1245.81L1232.95 1245.64L1232.92 1245.47L1232.89 1245.31L1232.86 1245.14L1232.83 1244.97L1232.8 1244.81L1232.78 1244.64L1232.75 1244.48L1232.72 1244.32L1232.69 1244.16L1232.66 1244L1232.64 1243.84L1232.61 1243.68L1232.58 1243.53L1232.55 1243.37L1232.53 1243.22L1232.5 1243.06L1232.48 1242.91L1232.45 1242.76L1232.42 1242.61L1232.4 1242.46L1232.37 1242.31L1232.35 1242.17L1232.32 1242.02L1232.3 1241.87L1232.27 1241.73L1232.25 1241.59L1232.22 1241.45L1232.2 1241.31L1232.17 1241.17L1232.15 1241.03L1232.12 1240.89L1232.1 1240.75L1232.08 1240.62L1232.05 1240.48L1232.03 1240.35L1232.01 1240.22L1231.99 1240.09L1231.96 1239.96L1231.94 1239.83L1231.92 1239.7L1231.9 1239.57L1231.87 1239.45L1231.85 1239.32L1231.83 1239.2L1231.81 1239.08L1231.79 1238.96L1231.77 1238.84L1231.75 1238.72L1231.73 1238.6L1231.71 1238.48L1231.69 1238.37L1231.67 1238.25L1231.65 1238.14L1231.63 1238.02L1231.61 1237.91L1231.59 1237.8L1231.57 1237.69L1231.55 1237.58L1231.53 1237.48L1231.51 1237.37L1231.5 1237.26L1231.48 1237.16L1231.46 1237.06L1231.44 1236.96L1231.42 1236.85L1231.41 1236.75L1231.39 1236.66L1231.37 1236.56L1231.36 1236.46L1231.34 1236.37L1231.33 1236.32C1232.88 1236.18 1234.85 1235.99 1237.2 1235.75C1243.58 1235.09 1252.79 1234.06 1264.14 1232.53C1286.83 1229.48 1318.08 1224.45 1352.34 1216.54C1420.64 1200.76 1501.66 1173.38 1550.09 1126.79C1598.47 1080.23 1628.96 1000.39 1647.37 932.813C1656.6 898.919 1662.84 867.91 1666.77 845.374C1668.74 834.104 1670.13 824.947 1671.03 818.602C1671.03 818.584 1671.04 818.566 1671.04 818.548C1673.97 822.841 1678.01 828.665 1682.99 835.666C1694.07 851.237 1709.87 872.643 1728.7 895.986C1766.29 942.579 1816.28 997.243 1865.29 1028.44C1913.03 1058.82 1981.74 1080.86 2038.22 1095.29C2066.51 1102.52 2091.84 1107.87 2110.1 1111.41C2119.23 1113.18 2126.59 1114.49 2131.68 1115.37C2133.86 1115.75 2135.63 1116.04 2136.93 1116.26L2136.94 1116.28L2136.95 1116.33L2136.96 1116.38L2136.97 1116.44L2136.98 1116.49L2136.98 1116.54L2136.99 1116.6L2137 1116.66L2137.01 1116.71L2137.02 1116.77L2137.03 1116.83L2137.04 1116.88L2137.05 1116.94L2137.06 1117L2137.07 1117.06L2137.09 1117.12L2137.1 1117.19L2137.11 1117.25L2137.12 1117.31L2137.13 1117.37L2137.14 1117.44L2137.15 1117.5L2137.16 1117.57L2137.17 1117.63L2137.19 1117.7L2137.2 1117.77L2137.21 1117.84L2137.22 1117.91L2137.23 1117.98L2137.24 1118.05L2137.26 1118.12L2137.27 1118.19L2137.28 1118.26L2137.29 1118.33L2137.31 1118.41L2137.32 1118.48L2137.33 1118.56L2137.35 1118.63L2137.36 1118.71L2137.37 1118.78L2137.39 1118.86L2137.4 1118.94L2137.41 1119.02L2137.43 1119.1L2137.44 1119.18L2137.46 1119.26L2137.47 1119.34L2137.48 1119.43L2137.5 1119.51L2137.51 1119.6L2137.53 1119.68L2137.54 1119.77L2137.56 1119.85L2137.57 1119.94L2137.59 1120.03L2137.6 1120.12L2137.62 1120.21L2137.64 1120.3L2137.65 1120.39L2137.67 1120.48L2137.68 1120.57L2137.7 1120.67L2137.72 1120.76L2137.73 1120.85L2137.75 1120.95L2137.77 1121.05L2137.78 1121.14L2137.8 1121.24L2137.82 1121.34L2137.83 1121.44L2137.85 1121.54L2137.87 1121.64L2137.89 1121.74L2137.9 1121.85L2137.92 1121.95L2137.94 1122.05L2137.96 1122.16L2137.98 1122.27L2138 1122.37L2138.01 1122.48L2138.03 1122.59L2138.05 1122.7L2138.07 1122.81L2138.09 1122.92L2138.11 1123.03L2138.13 1123.14L2138.15 1123.26L2138.17 1123.37L2138.19 1123.49L2138.21 1123.6L2138.23 1123.72L2138.25 1123.84L2138.27 1123.95L2138.29 1124.07L2138.31 1124.19L2138.33 1124.31L2138.35 1124.44L2138.37 1124.56L2138.4 1124.68L2138.42 1124.81L2138.44 1124.93L2138.46 1125.06L2138.48 1125.19L2138.51 1125.31L2138.53 1125.44L2138.55 1125.57L2138.57 1125.7L2138.6 1125.83L2138.62 1125.97L2138.64 1126.1L2138.66 1126.23L2138.69 1126.37L2138.71 1126.51L2138.74 1126.64L2138.76 1126.78L2138.78 1126.92L2138.81 1127.06L2138.83 1127.2L2138.86 1127.34L2138.88 1127.48L2138.91 1127.63L2138.93 1127.77L2138.96 1127.92L2138.98 1128.06L2139.01 1128.21L2139.03 1128.36L2139.06 1128.51L2139.08 1128.66L2139.11 1128.81L2139.14 1128.96L2139.16 1129.11L2139.19 1129.27L2139.22 1129.42L2139.24 1129.58L2139.27 1129.73L2139.3 1129.89L2139.33 1130.05L2139.35 1130.21L2139.38 1130.37L2139.41 1130.53L2139.44 1130.69L2139.47 1130.86L2139.49 1131.02L2139.52 1131.19L2139.55 1131.35L2139.58 1131.52L2139.61 1131.69L2139.64 1131.86L2139.67 1132.03L2139.7 1132.2L2139.73 1132.37L2139.76 1132.55L2139.79 1132.72L2139.82 1132.9L2139.85 1133.07L2139.88 1133.25L2139.91 1133.43L2139.94 1133.61L2139.97 1133.79L2140.01 1133.97L2140.04 1134.15L2140.07 1134.34L2140.1 1134.52L2140.13 1134.71L2140.17 1134.89L2140.2 1135.08L2140.23 1135.27L2140.26 1135.46L2140.3 1135.65L2140.33 1135.84L2140.36 1136.04L2140.4 1136.23L2140.43 1136.43L2140.47 1136.62L2140.5 1136.82L2140.54 1137.02L2140.57 1137.22L2140.6 1137.42L2140.64 1137.62L2140.67 1137.82L2140.71 1138.03L2140.75 1138.23L2140.78 1138.44L2140.82 1138.65L2140.85 1138.86L2140.89 1139.06L2140.93 1139.28L2140.96 1139.49L2141 1139.7L2141.04 1139.91L2141.07 1140.13L2141.11 1140.34L2141.15 1140.56L2141.19 1140.78L2141.23 1141L2141.26 1141.22L2141.3 1141.44L2141.34 1141.66L2141.38 1141.89L2141.42 1142.11L2141.46 1142.34L2141.5 1142.57L2141.54 1142.8L2141.58 1143.03L2141.62 1143.26L2141.66 1143.49L2141.7 1143.72L2141.74 1143.96L2141.78 1144.19L2141.82 1144.43L2141.86 1144.67L2141.9 1144.91L2141.94 1145.15L2141.99 1145.39L2142.03 1145.63L2142.07 1145.87L2142.11 1146.12L2142.16 1146.37L2142.2 1146.61L2142.24 1146.86L2142.29 1147.11L2142.33 1147.36L2142.37 1147.61L2142.42 1147.87L2142.46 1148.12L2142.5 1148.38L2142.55 1148.63L2142.59 1148.89L2142.64 1149.15L2142.68 1149.41L2142.73 1149.68L2142.78 1149.94L2142.82 1150.2L2142.87 1150.47L2142.91 1150.74L2142.96 1151L2143.01 1151.27L2143.05 1151.54L2143.1 1151.81L2143.15 1152.09L2143.2 1152.36L2143.24 1152.64L2143.29 1152.91L2143.34 1153.19L2143.39 1153.47L2143.44 1153.75L2143.49 1154.03L2143.53 1154.32L2143.58 1154.6L2143.63 1154.89L2143.68 1155.17L2143.73 1155.46L2143.78 1155.75L2143.83 1156.04L2143.88 1156.34L2143.94 1156.63L2143.99 1156.92L2144.04 1157.22L2144.09 1157.52L2144.14 1157.82L2144.19 1158.12L2144.25 1158.42L2144.3 1158.72L2144.35 1159.02L2144.4 1159.33L2144.46 1159.63L2144.51 1159.94L2144.56 1160.25L2144.62 1160.56L2144.67 1160.87L2144.73 1161.19L2144.78 1161.5L2144.84 1161.82L2144.89 1162.13L2144.95 1162.45L2145 1162.77L2145.06 1163.09L2145.11 1163.42L2145.17 1163.74L2145.22 1164.07L2145.28 1164.39L2145.34 1164.72L2145.4 1165.05L2145.45 1165.38L2145.51 1165.71L2145.57 1166.05L2145.63 1166.38L2145.68 1166.72L2145.74 1167.05L2145.8 1167.39L2145.86 1167.73L2145.92 1168.07L2145.98 1168.42L2146.04 1168.76L2146.1 1169.11L2146.16 1169.46L2146.22 1169.8L2146.28 1170.15L2146.34 1170.51L2146.4 1170.86L2146.46 1171.21L2146.53 1171.57L2146.59 1171.93L2146.65 1172.29L2146.71 1172.65L2146.78 1173.01L2146.84 1173.37L2146.9 1173.73L2146.97 1174.1L2147.03 1174.47L2147.09 1174.84L2147.16 1175.21L2147.22 1175.58L2147.29 1175.95L2147.35 1176.33L2147.42 1176.7L2147.48 1177.08L2147.55 1177.46L2147.61 1177.84L2147.68 1178.22L2147.75 1178.6L2147.81 1178.99L2147.88 1179.37L2147.95 1179.76L2148.01 1180.15L2148.08 1180.54L2148.15 1180.93L2148.22 1181.33L2148.29 1181.72L2148.36 1182.12L2148.42 1182.52L2148.49 1182.92L2148.56 1183.32L2148.63 1183.72L2148.7 1184.12L2148.77 1184.53L2148.84 1184.94L2148.92 1185.35L2148.99 1185.76L2149.06 1186.17L2149.13 1186.58L2149.2 1187L2149.27 1187.41L2149.35 1187.83L2149.42 1188.25L2149.49 1188.67L2149.56 1189.09L2149.64 1189.52L2149.71 1189.94L2149.79 1190.37L2149.86 1190.8L2149.94 1191.23L2150.01 1191.66L2150.09 1192.09L2150.16 1192.53L2150.24 1192.96L2150.31 1193.4L2150.39 1193.84L2150.46 1194.28L2150.54 1194.73L2150.62 1195.17L2150.7 1195.62L2150.77 1196.06L2150.85 1196.51L2150.93 1196.96L2151.01 1197.41L2151.09 1197.87L2151.17 1198.32L2151.24 1198.78L2151.32 1199.24L2151.4 1199.7L2151.48 1200.16L2151.56 1200.62L2151.65 1201.09L2151.73 1201.56L2151.81 1202.02L2151.89 1202.49L2151.97 1202.97L2152.05 1203.44L2152.14 1203.91L2152.22 1204.39L2152.3 1204.87L2152.38 1205.35L2152.47 1205.83L2152.55 1206.31L2152.63 1206.8L2152.72 1207.28L2152.8 1207.77L2152.89 1208.26L2152.97 1208.75L2153.06 1209.24L2153.15 1209.74L2153.23 1210.24L2153.32 1210.73L2153.4 1211.23L2153.49 1211.73L2153.58 1212.24Z" fill="#F47155" stroke="#330043" stroke-width="7.48415"/>
<circle cx="1517.56" cy="1266.07" r="14.6464" transform="rotate(-9.83761 1517.56 1266.07)" fill="#330043"/>
<circle cx="1830.98" cy="1216.15" r="14.6464" transform="rotate(-9.83761 1830.98 1216.15)" fill="#330043"/>
<circle cx="214.686" cy="1832.13" r="124.414" transform="rotate(-9.83761 214.686 1832.13)" fill="#330043" stroke="#330043" stroke-width="7.48415"/>
<circle cx="1237.48" cy="458.139" r="124.414" transform="rotate(-9.83761 1237.48 458.139)" fill="#330043" stroke="#330043" stroke-width="7.48415"/>
<circle cx="3136.26" cy="1092.63" r="124.414" transform="rotate(-9.83761 3136.26 1092.63)" fill="#330043" stroke="#330043" stroke-width="7.48415"/>
<path d="M1256.97 1472.35C1256.97 1472.35 1292.29 1563.11 1297.06 1606.71C1304.61 1675.73 1285.75 1734.41 1254.93 1737.79C1224.1 1741.16 1192.99 1687.95 1185.44 1618.93C1182.16 1589.02 1189.32 1538.69 1189.32 1538.69" stroke="#FFCD34" stroke-width="7.48415" stroke-linecap="round"/>
<path d="M2182.86 1311.79C2182.86 1311.79 2180.16 1409.15 2190.35 1451.81C2206.47 1519.34 2243.99 1568.25 2274.15 1561.04C2304.31 1553.84 2315.69 1493.26 2299.57 1425.73C2292.58 1396.47 2268.9 1351.49 2268.9 1351.49" stroke="#FFCD34" stroke-width="7.48415" stroke-linecap="round"/>
<path d="M1593.65 1461.7C1593.65 1461.7 1681.87 1504.63 1739.34 1494.66C1796.82 1484.69 1865.44 1414.57 1865.44 1414.57" stroke="#330043" stroke-width="7.48415" stroke-linecap="round"/>
<path d="M1687.17 1203.39C1687.17 1203.39 1685.22 1241.88 1689.98 1265.81C1694.22 1287.15 1708.09 1318.5 1708.09 1318.5" stroke="#330043" stroke-width="7.48415" stroke-linecap="round"/>
<path d="M1770.39 1764.77C1770.39 1764.77 1979.32 1580.39 2192.48 1492.51C2450.53 1386.12 2649.31 1393.35 2649.31 1393.35L2735.5 1645.72C2735.5 1645.72 2712.18 1774.43 2505.62 1932.28C2336.05 2061.86 2192.48 2061.86 2192.48 2061.86L1770.39 1764.77Z" fill="#FFCD34"/>
<path d="M939.847 3351.64L1241.06 3775.84L1064.99 3900.86C1064.41 3900.15 1063.74 3899.32 1062.98 3898.38C1060.05 3894.76 1055.8 3889.5 1050.51 3882.93C1039.93 3869.78 1025.2 3851.36 1008.59 3830.28C975.348 3788.12 934.619 3735.38 904.543 3692.96C874.98 3651.27 839.275 3596.36 810.936 3551.84C796.772 3529.58 784.458 3509.94 775.686 3495.86C771.3 3488.82 767.799 3483.17 765.396 3479.28C764.784 3478.29 764.244 3477.42 763.778 3476.66L939.847 3351.64Z" fill="white" stroke="#330043" stroke-width="8.52216"/>
<path d="M521.656 3659.76C519.625 3656.47 518.017 3653.86 516.868 3651.99L766.073 3475.04C766.46 3475.69 766.892 3476.41 767.367 3477.21C769.737 3481.18 773.187 3486.95 777.515 3494.13C786.17 3508.5 798.333 3528.53 812.369 3551.19C840.426 3596.51 876.016 3652.44 906.025 3694.7C936.035 3736.97 977.111 3789 1010.64 3830.43C1027.42 3851.15 1042.32 3869.23 1053.03 3882.14C1058.39 3888.59 1062.69 3893.75 1065.66 3897.3C1067.15 3899.07 1068.3 3900.44 1069.08 3901.37C1069.2 3901.51 1069.31 3901.64 1069.41 3901.76C1069.49 3902.62 1069.61 3903.89 1069.77 3905.54C1070.09 3908.86 1070.56 3913.75 1071.15 3919.98C1072.33 3932.44 1074 3950.29 1075.97 3971.86C1079.9 4014.98 1085.01 4072.93 1089.72 4132.24C1094.43 4191.56 1098.74 4252.2 1101.06 4300.73C1102.23 4325 1102.89 4346.2 1102.87 4362.66C1102.86 4370.89 1102.67 4377.89 1102.3 4383.48C1101.92 4389.16 1101.36 4393.09 1100.7 4395.34C1094.4 4416.78 1087.31 4428.46 1082.06 4434.7C1079.8 4437.38 1077.89 4439.06 1076.5 4440.08C1075.1 4438.35 1073.06 4435.86 1070.47 4432.65C1065.09 4426.03 1057.29 4416.4 1047.59 4404.35C1028.18 4380.25 1001.15 4346.5 970.662 4307.89C909.679 4230.64 834.923 4133.98 779.71 4056.18C724.805 3978.83 658.582 3876.95 606.06 3794.36C579.805 3753.08 556.984 3716.64 540.727 3690.52C532.598 3677.46 526.111 3666.97 521.656 3659.76Z" fill="#FF4A97" stroke="#330043" stroke-width="8.52216"/>
<path d="M976.352 4032.6L1119.8 4013.35" stroke="#330043" stroke-width="8.52216"/>
<path d="M1082.66 3964.34L1268.79 3860" stroke="#330043" stroke-width="8.52216"/>
<path d="M986.191 4083.14L1129.64 4063.88" stroke="#330043" stroke-width="8.52216"/>
<path d="M1078.03 3966.83C1078.03 3966.83 1422.83 3843.28 1349.84 3917.42C1297.72 3970.37 1078.03 3966.83 1078.03 3966.83" stroke="#330043" stroke-width="8.52216"/>
<path d="M694.983 3524.62C694.983 3524.62 767.444 3600.28 745.713 3705.38C723.982 3810.49 642.456 3845.53 642.456 3845.53" stroke="#330043" stroke-width="8.52216"/>
<path d="M1095.62 4192.62C1095.62 4192.62 1081.87 4184.96 1019.07 4218.8C956.266 4252.65 942.338 4273.29 942.338 4273.29" stroke="#330043" stroke-width="8.52216"/>
<path d="M1077.45 4438.95C1076.08 4437.29 1074.25 4435.07 1071.99 4432.32C1066.58 4425.75 1058.73 4416.18 1048.96 4404.22C1029.44 4380.29 1002.25 4346.76 971.615 4308.38C910.358 4231.63 835.261 4135.4 780.036 4057.63C724.81 3979.86 658.711 3877.24 606.443 3794.11C580.304 3752.54 557.613 3715.82 541.456 3689.49C533.378 3676.33 526.933 3665.77 522.507 3658.49C520.66 3655.46 519.165 3652.99 518.049 3651.15L479.595 3678.46C480.736 3680.34 482.339 3682.98 484.366 3686.32C488.787 3693.58 495.226 3704.14 503.298 3717.29C519.442 3743.59 542.117 3780.28 568.236 3821.83C620.488 3904.93 686.483 4007.38 741.563 4084.95C796.643 4162.52 871.616 4258.59 932.854 4335.32C963.466 4373.67 990.633 4407.17 1010.15 4431.08C1019.9 4443.04 1027.75 4452.59 1033.15 4459.16C1035.63 4462.18 1037.59 4464.56 1038.99 4466.26L1077.45 4438.95Z" fill="#FF4A97" stroke="#330043" stroke-width="8.52216"/>
<path d="M821.33 3439.18C821.33 3439.18 900.894 3574.89 959.169 3656.96C1017.44 3739.03 1119.35 3858.88 1119.35 3858.88" stroke="#330043" stroke-width="8.52216"/>
<path d="M883.868 3394.77C883.868 3394.77 963.431 3530.49 1021.71 3612.56C1079.98 3694.63 1181.89 3814.48 1181.89 3814.48" stroke="#330043" stroke-width="8.52216"/>
<path d="M2286.61 3749.89L2758.96 3531.81L2849.48 3727.87C2848.67 3728.3 2847.73 3728.81 2846.67 3729.39C2842.58 3731.6 2836.63 3734.81 2829.19 3738.8C2814.32 3746.78 2793.5 3757.88 2769.73 3770.33C2722.17 3795.25 2662.85 3825.59 2615.62 3847.35C2569.2 3868.75 2508.67 3893.75 2459.69 3913.42C2435.21 3923.25 2413.64 3931.74 2398.19 3937.77C2390.46 3940.79 2384.26 3943.19 2380 3944.84C2378.92 3945.26 2377.96 3945.63 2377.13 3945.95L2286.61 3749.89Z" fill="white" stroke="#330043" stroke-width="8.52216"/>
<path d="M2512.58 4217.61C2508.98 4219 2506.12 4220.1 2504.07 4220.89L2375.95 3943.39C2376.66 3943.13 2377.46 3942.84 2378.33 3942.52C2382.67 3940.92 2388.97 3938.59 2396.82 3935.66C2412.53 3929.79 2434.46 3921.52 2459.32 3911.89C2509.02 3892.64 2570.55 3867.94 2617.6 3846.22C2664.66 3824.49 2723.37 3793.68 2770.25 3768.34C2793.7 3755.66 2814.22 3744.33 2828.88 3736.18C2836.2 3732.1 2842.07 3728.82 2846.1 3726.55C2848.11 3725.42 2849.67 3724.54 2850.73 3723.95C2850.89 3723.85 2851.04 3723.77 2851.18 3723.69C2852.03 3723.77 2853.3 3723.88 2854.95 3724.03C2858.28 3724.32 2863.17 3724.76 2869.4 3725.33C2881.87 3726.46 2899.72 3728.1 2921.28 3730.13C2964.39 3734.19 3022.29 3739.82 3081.46 3746.1C3140.63 3752.38 3201.03 3759.3 3249.16 3765.93C3273.23 3769.25 3294.19 3772.5 3310.36 3775.55C3318.45 3777.07 3325.3 3778.54 3330.73 3779.93C3336.24 3781.35 3340 3782.62 3342.09 3783.69C3362 3793.83 3372.19 3802.94 3377.35 3809.25C3379.57 3811.96 3380.87 3814.15 3381.62 3815.7C3379.66 3816.76 3376.84 3818.3 3373.21 3820.27C3365.71 3824.33 3354.81 3830.23 3341.18 3837.55C3313.93 3852.2 3275.78 3872.56 3232.22 3895.43C3145.08 3941.17 3036.32 3996.88 2949.7 4036.84C2863.56 4076.59 2751.24 4122.95 2660.41 4159.39C2615.01 4177.61 2574.99 4193.34 2546.32 4204.52C2531.99 4210.11 2520.49 4214.56 2512.58 4217.61Z" fill="#FF4A97" stroke="#330043" stroke-width="8.52216"/>
<path d="M2962.68 3839.22L2970.12 3694.67" stroke="#330043" stroke-width="8.52216"/>
<path d="M2915.12 3722.17L2846.78 3520.03" stroke="#330043" stroke-width="8.52216"/>
<path d="M3014.16 3838.84L3021.6 3694.29" stroke="#330043" stroke-width="8.52216"/>
<path d="M2916.72 3727.18C2916.72 3727.18 2858.68 3365.55 2918.13 3450.92C2960.59 3511.89 2916.72 3727.18 2916.72 3727.18" stroke="#330043" stroke-width="8.52216"/>
<path d="M2411.61 4022.39C2411.61 4022.39 2499.31 3965.07 2598.63 4005.76C2697.94 4046.45 2717.4 4133.03 2717.4 4133.03" stroke="#330043" stroke-width="8.52216"/>
<path d="M3141.89 3751.41C3141.89 3751.41 3131.84 3763.51 3153.56 3831.47C3175.27 3899.42 3193 3916.91 3193 3916.91" stroke="#330043" stroke-width="8.52216"/>
<path d="M3380.68 3814.56C3378.8 3815.6 3376.28 3817 3373.17 3818.71C3365.71 3822.82 3354.86 3828.78 3341.3 3836.17C3314.19 3850.97 3276.24 3871.53 3232.88 3894.58C3146.18 3940.68 3037.78 3996.81 2951.18 4036.79C2864.58 4076.77 2751.55 4122.88 2660.23 4158.97C2614.56 4177.02 2574.3 4192.57 2545.45 4203.61C2531.03 4209.13 2519.46 4213.53 2511.49 4216.54C2508.17 4217.8 2505.48 4218.81 2503.46 4219.57L2523.23 4262.39C2525.29 4261.62 2528.18 4260.53 2531.83 4259.15C2539.79 4256.14 2551.34 4251.75 2565.76 4246.23C2594.58 4235.2 2634.81 4219.66 2680.45 4201.62C2771.75 4165.54 2884.58 4119.51 2970.96 4079.63C3057.33 4039.75 3165.55 3983.72 3252.23 3937.64C3295.56 3914.6 3333.48 3894.05 3360.57 3879.27C3374.12 3871.88 3384.96 3865.93 3392.41 3861.82C3395.82 3859.94 3398.53 3858.45 3400.45 3857.38L3380.68 3814.56Z" fill="#FF4A97" stroke="#330043" stroke-width="8.52216"/>
<path d="M2350.86 3882.48C2350.86 3882.48 2498.9 3829.23 2590.28 3787.04C2681.66 3744.85 2818.21 3666.71 2818.21 3666.71" stroke="#330043" stroke-width="8.52216"/>
<path d="M2318.71 3812.85C2318.71 3812.85 2466.75 3759.6 2558.13 3717.4C2649.51 3675.21 2786.06 3597.08 2786.06 3597.08" stroke="#330043" stroke-width="8.52216"/>
<path d="M1728.57 2820.7L2329.82 2568.78L2771.64 3543.49C2771.32 3543.68 2770.97 3543.89 2770.6 3544.11C2769.66 3544.67 2768.56 3545.32 2767.3 3546.07C2762.75 3548.76 2756.14 3552.66 2747.86 3557.5C2731.29 3567.16 2708.08 3580.54 2681.49 3595.4C2628.27 3625.14 2561.62 3660.75 2507.63 3684.41C2446.88 3711.03 2366.33 3738.21 2300.88 3758.77C2268.17 3769.04 2239.27 3777.64 2218.54 3783.68C2208.18 3786.7 2199.86 3789.07 2194.14 3790.69C2191.44 3791.46 2189.32 3792.05 2187.83 3792.47C2187.69 3792.25 2187.55 3792.01 2187.39 3791.75C2186.2 3789.8 2184.44 3786.91 2182.17 3783.17C2177.63 3775.7 2171.04 3764.82 2162.87 3751.22C2146.52 3724.01 2123.81 3685.92 2098.38 3642.35C2047.52 3555.2 1985.81 3446.23 1942.32 3358.77C1891.22 3255.99 1837.53 3120.73 1796.59 3011.09C1776.13 2956.29 1758.86 2907.91 1746.71 2873.24C1740.63 2855.91 1735.84 2842 1732.56 2832.43C1730.92 2827.64 1729.67 2823.93 1728.82 2821.43C1728.73 2821.17 1728.65 2820.93 1728.57 2820.7Z" fill="#9854CB" stroke="#9854CB" stroke-width="7"/>
<path d="M1293.37 2721.72L1293.64 2720.83L1967.9 2720.83C1967.84 2721.1 1967.75 2721.47 1967.65 2721.92C1967.39 2723.05 1967 2724.73 1966.49 2726.92C1965.47 2731.31 1963.96 2737.77 1962 2746.04C1958.09 2762.6 1952.37 2786.43 1945.19 2815.54C1930.82 2873.75 1910.57 2953.06 1887.03 3037.46C1863.49 3121.86 1836.67 3211.35 1809.15 3289.91C1781.64 3368.48 1753.45 3436.09 1727.19 3476.75C1700.93 3517.41 1658.77 3560 1610.27 3601.03C1561.77 3642.05 1506.97 3681.48 1455.44 3715.83C1403.92 3750.18 1355.68 3779.45 1320.32 3800.12C1302.64 3810.46 1288.19 3818.65 1278.15 3824.25C1273.13 3827.06 1269.21 3829.21 1266.56 3830.67C1265.23 3831.4 1264.21 3831.95 1263.53 3832.32C1263.22 3832.49 1262.98 3832.62 1262.81 3832.71L1262.67 3832.59L1262.26 3832.21C1262.05 3832.01 1261.8 3831.78 1261.52 3831.52C1260.5 3830.58 1259 3829.19 1257.06 3827.38C1253.19 3823.77 1247.58 3818.51 1240.63 3811.89C1226.74 3798.65 1207.5 3780.01 1186.12 3758.37C1143.35 3715.09 1092.03 3659.85 1057.74 3611.98C1025.27 3566.65 990.95 3504.03 964.746 3452.72C951.645 3427.06 940.575 3404.25 932.78 3387.84C928.883 3379.64 925.804 3373.04 923.7 3368.49C922.648 3366.22 921.84 3364.46 921.295 3363.27C921.022 3362.67 920.815 3362.22 920.676 3361.91L920.64 3361.83L920.793 3361.73C921.121 3361.5 921.609 3361.16 922.248 3360.72C923.524 3359.84 925.4 3358.54 927.799 3356.88C932.598 3353.54 939.492 3348.73 947.87 3342.82C964.626 3330.99 987.322 3314.77 1011.08 3297.16C1034.83 3279.55 1059.66 3260.57 1080.66 3243.22C1101.65 3225.89 1118.87 3210.16 1127.4 3199.08C1131.68 3193.51 1137.48 3181.84 1144.35 3165.75C1151.22 3149.64 1159.17 3129.05 1167.76 3105.58C1184.95 3058.65 1204.67 3000.22 1223.33 2943.17C1242 2886.11 1259.6 2830.44 1272.54 2789.03C1279.01 2768.33 1284.31 2751.19 1287.99 2739.22C1289.84 2733.24 1291.28 2728.55 1292.25 2725.36C1292.74 2723.77 1293.12 2722.54 1293.37 2721.72Z" fill="#9854CB" stroke="#9854CB"/>
<path d="M1217.33 2781.6C1216.67 2781.52 1216.08 2781.44 1215.55 2781.37C1215.52 2780.61 1215.48 2779.72 1215.45 2778.7C1215.3 2774.89 1215.12 2769.27 1214.93 2762.03C1214.57 2747.53 1214.23 2726.53 1214.34 2700.51C1214.55 2648.47 1216.52 2576.38 1223.58 2496.22C1237.71 2335.71 1272.19 2143.49 1353.2 2014.68C1431.53 1890.12 1510.37 1825.31 1569.42 1791.63C1598.95 1774.79 1623.57 1765.72 1640.74 1760.86C1649.32 1758.44 1656.05 1757.06 1660.6 1756.29C1662.29 1756.01 1663.68 1755.81 1664.76 1755.67C1665.07 1756.34 1665.45 1757.1 1665.92 1757.94C1667.55 1760.91 1670.19 1764.81 1674.24 1768.71C1682.42 1776.57 1696.09 1784.12 1718.08 1784.12C1740.55 1784.12 1755.42 1776.6 1764.71 1768.89C1769.33 1765.06 1772.53 1761.21 1774.58 1758.29C1775.33 1757.23 1775.93 1756.29 1776.39 1755.52C1776.4 1755.52 1776.4 1755.52 1776.41 1755.52C1777.96 1755.62 1780.28 1755.8 1783.3 1756.1C1789.34 1756.7 1798.17 1757.78 1809.3 1759.7C1831.57 1763.54 1863.01 1770.73 1899.61 1784.11C1972.81 1810.88 2066.61 1862.44 2148.96 1961.62C2237.01 2067.67 2300.31 2220.79 2341.62 2347.7C2362.26 2411.11 2377.38 2467.86 2387.33 2508.77C2392.31 2529.22 2395.99 2545.7 2398.44 2557.07C2399.66 2562.75 2400.57 2567.15 2401.17 2570.13C2401.32 2570.88 2401.46 2571.55 2401.57 2572.12C2401.21 2572.33 2400.81 2572.58 2400.37 2572.84C2398.12 2574.21 2394.79 2576.22 2390.47 2578.79C2381.83 2583.93 2369.22 2591.33 2353.37 2600.34C2321.68 2618.35 2277.03 2642.81 2225.26 2668.57C2121.62 2720.12 1989.71 2776.72 1875.88 2797.45C1759.62 2818.62 1593.88 2814.54 1456.94 2805.11C1388.52 2800.4 1327.39 2794.36 1283.36 2789.49C1261.35 2787.06 1243.62 2784.93 1231.39 2783.4C1225.28 2782.63 1220.54 2782.02 1217.33 2781.6Z" fill="#FFCD34" stroke="#330043" stroke-width="7.48"/>
<rect x="2699.98" y="1219.31" width="77.2699" height="89.5532" transform="rotate(-24.9499 2699.98 1219.31)" fill="#E11F72"/>
<path d="M2497.46 1234.2C2503.87 1234.2 2510.78 1232.65 2517.7 1229.56C2523.43 1226.99 2528.75 1223.73 2533.88 1220.59C2538.14 1217.98 2542.17 1215.51 2546.43 1213.4L2542.14 1204.75C2537.49 1207.04 2533.1 1209.74 2528.83 1212.36C2523.74 1215.48 2518.93 1218.44 2513.77 1220.74C2508.87 1222.92 2496.39 1227.44 2486.45 1221.98C2474.28 1215.31 2472.85 1196.93 2479.17 1184.61C2486.33 1170.66 2500.64 1161.24 2513.28 1152.93L2507.97 1144.86C2495.02 1153.39 2478.9 1164 2470.58 1180.2C2462.05 1196.82 2464.54 1220.98 2481.81 1230.45C2486.38 1232.94 2491.72 1234.2 2497.46 1234.2Z" fill="white"/>
<path d="M3310.9 1094.05C3310.9 1094.05 3301.29 1096.57 3274.98 1098.12C3271.63 1098.31 3268.02 1098.49 3264.08 1098.69C3260.93 1098.82 3257.51 1098.95 3253.97 1099.02C3222.56 1099.79 3175.95 1099.07 3108.76 1094.05C3108.76 1094.05 3024.94 1080.96 2917.32 1133.83C2889.35 1147.56 2854.98 1166.85 2817.9 1185.67C2814.61 1187.41 2811.39 1189.09 2808.16 1190.64C2766.71 1211.4 2722.29 1231 2680.04 1241.38C2675.98 1242.35 2671.98 1243.25 2667.98 1244.03C2666.25 1244.42 2664.58 1244.73 2662.83 1245.05C2606.29 1255.7 2554.89 1247.19 2521.11 1199.47C2477 1137.25 2486.87 1084.7 2523.94 1034.79C2525.81 1032.22 2527.75 1029.57 2529.88 1027C2530.85 1025.7 2531.87 1024.41 2532.97 1023.12C2562.56 987.465 2604.93 952.913 2650.32 916.8C2653.35 914.35 2656.38 911.9 2659.48 909.518C2666.64 903.775 2673.73 898.099 2681.01 892.299C2806.49 791.652 2834.02 741.613 2841.83 716.338C2848.4 694.674 2875.35 568.102 2913.97 527.1C2915.72 525.288 2917.39 523.681 2919.14 522.2C2920.81 520.844 2922.49 519.613 2924.16 518.519C2927.77 516.263 2931.51 514.907 2935.25 514.462C3033.64 502.405 3176.46 687.062 3212.95 744.519C3212.95 744.519 3389.05 1044.47 3310.9 1094.05Z" fill="#FF4A97"/>
<path d="M2667.99 1244.02C2666.24 1244.41 2664.57 1244.73 2662.83 1245.06C2606.28 1255.69 2554.9 1247.18 2521.11 1199.47C2477.01 1137.25 2486.87 1084.7 2523.95 1034.8C2525.81 1032.21 2527.75 1029.57 2529.87 1026.99C2532.9 1051.62 2532.78 1076.51 2542 1101.34C2564.31 1161.69 2608.67 1214.43 2666.57 1243.32C2667.02 1243.57 2667.47 1243.76 2667.99 1244.02Z" fill="#E11F72"/>
<path d="M3310.9 1094.06C3310.9 1094.06 3301.29 1096.58 3274.98 1098.13C3271.63 1098.33 3268.02 1098.51 3264.08 1098.7C3258.55 1095.86 3253.12 1092.84 3247.83 1089.68C3117.14 1012.5 3037.51 873.168 2970.33 736.989C2952.34 700.557 2934.74 663.544 2925.06 624.023C2919.52 601.323 2914.36 559.284 2919.14 522.214C2920.81 520.858 2922.49 519.627 2924.16 518.533C2927.77 516.277 2931.51 514.92 2935.25 514.476C3033.64 502.419 3176.46 687.076 3212.95 744.533C3212.95 744.533 3389.05 1044.48 3310.9 1094.06Z" fill="#E11F72"/>
<path d="M2986.84 768.46C3017.82 829.951 3051.71 894.929 3094.38 953.139C3141.59 1017.63 3194.49 1066.29 3251.55 1097.75C3252.32 1098.14 3253.1 1098.63 3253.96 1099.02C3261.97 1098.82 3268.93 1098.53 3275.01 1098.14C3268.34 1095.73 3262.06 1092.54 3256.18 1089.26C3200.38 1058.46 3148.54 1010.78 3102.1 947.441C3097.09 940.592 3092.15 933.732 3087.53 926.689L3087.43 926.587C3087.33 926.496 3087.23 926.393 3087.14 926.199C3051.8 874.166 3022.55 817.792 2995.43 764.118C2991.47 756.198 2987.42 748.278 2983.64 740.369C2982.2 737.463 2980.75 734.569 2979.41 731.674C2946.29 663.038 2920.23 594.88 2923.79 523.543C2923.9 521.902 2923.99 520.158 2924.18 518.517C2920.71 520.739 2917.32 523.543 2913.95 527.109C2911.05 610.515 2946.77 688.815 2986.84 768.46Z" fill="white"/>
<path d="M3094.5 932.5C3108.25 915.805 3122.48 898.541 3131.02 877.789C3148.58 835.192 3136.58 781.803 3102.47 750.852C3068.38 719.867 3014.09 713.041 2973.36 734.636L2977.89 743.148C3015.14 723.422 3064.79 729.667 3095.98 757.997C3127.18 786.316 3138.17 835.146 3122.1 874.12C3114.1 893.527 3100.35 910.21 3087.05 926.358L3094.5 932.5Z" fill="white"/>
<path d="M2650.29 916.842C2660.05 1025.07 2718.74 1128.46 2808.13 1190.62C2811.42 1189.09 2814.61 1187.45 2817.89 1185.7C2726.46 1124.11 2667.28 1019.07 2659.47 909.504C2656.38 911.92 2653.38 914.335 2650.29 916.842Z" fill="white"/>
<path d="M2523.92 1034.82C2530.01 1114.55 2573.93 1190.44 2641.99 1233.68C2649.23 1238.32 2656.18 1242.18 2662.84 1245.08C2668.53 1244.02 2674.23 1242.76 2680.03 1241.41C2669.89 1238.41 2659.08 1233.11 2647.2 1225.58C2579.73 1182.62 2535.99 1103.17 2532.99 1023.13C2529.71 1027 2526.73 1030.95 2523.92 1034.82Z" fill="white"/>
<path d="M2901.6 1609.03L2901.25 1608.98L2901.09 1609.3L2901.09 1609.31L2901.08 1609.32C2901.08 1609.33 2901.07 1609.34 2901.06 1609.36C2901.04 1609.4 2901 1609.47 2900.96 1609.55C2900.86 1609.72 2900.71 1609.98 2900.5 1610.31C2900.08 1610.97 2899.41 1611.95 2898.42 1613.16C2896.45 1615.59 2893.23 1618.98 2888.22 1622.82C2878.2 1630.5 2861.05 1639.95 2832.55 1646.96C2804.06 1653.96 2779.56 1653.96 2762.18 1652.21C2753.49 1651.34 2746.59 1650.02 2741.86 1648.93C2739.49 1648.38 2737.67 1647.89 2736.44 1647.54C2735.83 1647.36 2735.36 1647.22 2735.05 1647.12C2734.96 1647.09 2734.88 1647.07 2734.81 1647.05L2647.88 1393.24L2647.88 1393.24C2647.91 1393.13 2647.95 1392.98 2648.01 1392.77C2648.13 1392.37 2648.3 1391.77 2648.53 1391C2648.99 1389.45 2649.67 1387.21 2650.56 1384.44C2652.34 1378.9 2654.94 1371.24 2658.26 1362.74C2664.9 1345.73 2674.35 1325.43 2685.65 1312.13C2698.78 1296.67 2711.06 1285.7 2724.93 1277.25C2738.81 1268.8 2754.3 1262.87 2773.88 1257.51C2810.31 1247.54 2852.14 1247.89 2882.03 1270.72C2891.67 1278.09 2896.43 1288.34 2898.77 1296.79C2899.94 1301.01 2900.51 1304.77 2900.78 1307.47C2900.92 1308.82 2900.98 1309.91 2901.01 1310.65C2901.03 1311.03 2901.03 1311.32 2901.04 1311.51C2901.04 1311.61 2901.04 1311.68 2901.04 1311.73L2901.04 1311.78L2901.04 1311.8L2901.04 1311.8L2901.04 1311.8L2901.03 1312.52L2901.71 1312.27L2901.54 1311.81C2901.71 1312.27 2901.71 1312.27 2901.71 1312.27L2901.71 1312.27L2901.72 1312.27L2901.75 1312.26L2901.79 1312.24C2901.82 1312.23 2901.85 1312.22 2901.88 1312.21C2901.99 1312.17 2902.16 1312.11 2902.39 1312.03C2902.83 1311.88 2903.49 1311.65 2904.34 1311.37C2906.03 1310.81 2908.48 1310.03 2911.51 1309.17C2917.56 1307.44 2925.89 1305.36 2935.06 1303.98C2944.22 1302.6 2954.19 1301.91 2963.5 1302.94C2972.82 1303.98 2981.45 1306.73 2987.97 1312.19C3001.05 1323.15 3002.85 1335.6 3001.39 1345.32C3000.67 1350.2 2999.12 1354.39 2997.75 1357.37C2997.07 1358.85 2996.43 1360.03 2995.97 1360.84C2995.73 1361.25 2995.54 1361.56 2995.41 1361.76C2995.39 1361.8 2995.37 1361.84 2995.35 1361.87C2995.31 1361.92 2995.28 1361.97 2995.26 1362C2995.25 1362.02 2995.23 1362.04 2995.23 1362.06L2995.22 1362.07L2995.21 1362.07L2995.21 1362.07L2994.63 1362.94L2995.67 1362.85L2995.67 1362.85L2995.67 1362.85L2995.69 1362.85L2995.75 1362.85C2995.81 1362.84 2995.9 1362.84 2996.01 1362.83C2996.24 1362.82 2996.58 1362.8 2997.02 1362.79C2997.88 1362.76 2999.14 1362.75 3000.67 1362.8C3003.74 1362.91 3007.91 1363.29 3012.34 1364.38C3021.21 1366.55 3031.02 1371.52 3035.18 1382.67C3039.41 1394.02 3041.49 1402.51 3041.47 1412.01C3041.46 1421.52 3039.36 1432.07 3035.16 1447.54C3032.79 1456.3 3027.34 1464.54 3022.46 1470.61C3020.02 1473.64 3017.73 1476.12 3016.05 1477.84C3015.21 1478.7 3014.52 1479.37 3014.04 1479.82C3013.94 1479.92 3013.84 1480.02 3013.76 1480.1C3013.65 1480.19 3013.56 1480.27 3013.5 1480.34C3013.43 1480.4 3013.39 1480.44 3013.35 1480.47L3013.32 1480.5L3013.31 1480.51L3013.31 1480.51L3013.31 1480.51L3013.64 1480.88L3013.31 1480.51L3012.81 1480.96L3013.38 1481.31L3013.38 1481.31L3013.39 1481.31L3013.42 1481.33C3013.45 1481.35 3013.49 1481.38 3013.55 1481.42C3013.59 1481.45 3013.65 1481.49 3013.7 1481.53C3013.8 1481.59 3013.93 1481.68 3014.07 1481.78C3014.52 1482.11 3015.17 1482.6 3015.96 1483.26C3017.55 1484.58 3019.69 1486.59 3021.93 1489.33C3026.39 1494.81 3031.22 1503.19 3032.65 1514.83C3036.14 1543.19 3029.68 1563.21 3018.1 1577.31C3006.51 1591.42 2989.73 1599.66 2972.46 1604.38C2955.19 1609.09 2937.48 1610.25 2924.07 1610.24C2917.37 1610.23 2911.75 1609.93 2907.8 1609.63C2905.83 1609.48 2904.28 1609.33 2903.22 1609.22C2902.69 1609.16 2902.29 1609.11 2902.01 1609.08C2901.88 1609.06 2901.77 1609.05 2901.71 1609.04L2901.63 1609.03L2901.61 1609.03L2901.6 1609.03C2901.6 1609.03 2901.6 1609.03 2901.54 1609.53L2901.6 1609.03Z" fill="#F47155" stroke="#F47155"/>
<path d="M2787.79 1371.3L2850.45 1371.3L2835.69 1386.6L2829.29 1402.19L2833.18 1418.34L2842.37 1433.37L2824.55 1459.53L2836.52 1487.09L2851 1505.19L2836.52 1515.21L2803.89 1446.41L2786.42 1408.85L2783.23 1396.54L2787.79 1371.3Z" fill="#E11F72"/>
<path d="M2989.59 1365.11C2989.59 1365.11 2972.26 1396 2931.25 1420.88C2898.62 1440.67 2841.65 1458.32 2830.79 1411.26C2824.79 1385.26 2856 1369.65 2856 1369.65" stroke="#330043" stroke-width="7" stroke-linecap="round" stroke-linejoin="round"/>
<path d="M3011.22 1478.07C3011.22 1478.07 2976.71 1510.16 2953.18 1516.32C2924.21 1523.9 2844.8 1514.09 2829.99 1478.07C2817.2 1446.95 2844.8 1435.27 2844.8 1435.27" stroke="#330043" stroke-width="7" stroke-linecap="round" stroke-linejoin="round"/>
<path d="M2898.36 1316.21C2898.36 1316.21 2898.36 1340.05 2875.69 1359.92C2849.42 1382.93 2787.75 1369.3 2787.75 1369.3C2787.75 1369.3 2785.08 1404.53 2772.07 1423.05C2759.8 1440.51 2747.36 1449.13 2747.36 1449.13" stroke="#330043" stroke-width="7" stroke-linecap="round" stroke-linejoin="round"/>
<path d="M2903 1606.15C2903 1606.15 2845.37 1601.38 2829.19 1556.96C2813 1512.55 2856.6 1503.46 2856.6 1503.46" stroke="#330043" stroke-width="7" stroke-linecap="round" stroke-linejoin="round"/>
<path d="M2676.48 1973.55L2551.63 1795.24C2551.63 1795.24 2628.53 1709.71 2693.34 1683.62C2783.42 1647.35 2920.39 1628.34 2950.09 1643.18C2979.8 1658.02 2977.49 1683.74 2953.65 1697.71C2912.53 1721.8 2791.97 1737.13 2791.97 1737.13C2791.97 1737.13 2832.87 1735.01 2843.46 1757.03C2854.04 1779.05 2833.85 1795.24 2833.85 1795.24C2833.85 1795.24 2861.56 1792.39 2869.5 1819.95C2877.44 1847.5 2854.04 1860.84 2854.04 1860.84C2854.04 1860.84 2882.71 1853.9 2890.47 1882.86C2898.23 1911.82 2864.41 1940.69 2823.36 1960.45C2766.74 1987.72 2676.48 1973.55 2676.48 1973.55Z" fill="#F47155" stroke="#330043" stroke-width="7"/>
<path d="M1480.71 2128.1L1679.5 1902.79L1680 1902.79L1685.93 1902.79L1707.43 1902.79C1725.41 1902.79 1749.82 1902.79 1775.59 1902.79C1827.11 1902.79 1884.03 1902.79 1905.59 1902.79C1911.37 1902.79 1920.41 1901.4 1931.8 1899.02C1943.28 1896.64 1957.41 1893.19 1973.51 1888.97C2005.72 1880.53 2045.96 1868.93 2088.9 1856.29C2107.37 1850.86 2126.33 1845.23 2145.38 1839.59C2214.97 1818.95 2285.65 1797.98 2337.01 1784.85C2402.03 1768.22 2457.81 1768.22 2497.31 1772.37C2517.05 1774.45 2532.73 1777.56 2543.44 1780.15C2548.79 1781.44 2552.91 1782.6 2555.67 1783.43C2557.03 1783.84 2558.07 1784.18 2558.76 1784.4L2692.31 1974.78C2692.31 1974.79 2692.31 1974.79 2692.3 1974.8C2692.09 1975.77 2691.77 1977.22 2691.31 1979.11C2690.41 1982.87 2688.98 1988.37 2686.93 1995.23C2682.84 2008.96 2676.24 2028.14 2666.26 2049.91C2646.28 2093.48 2612.82 2147.26 2558.84 2188.51C2504.86 2229.75 2426.44 2258.8 2336.22 2277.52C2246.05 2296.22 2144.4 2304.55 2044.24 2304.55C1944.62 2304.55 1802.87 2260.09 1685.62 2215.38C1627.09 2193.06 1574.81 2170.74 1537.17 2154C1518.35 2145.62 1503.19 2138.65 1492.74 2133.77C1487.51 2131.33 1483.46 2129.41 1480.72 2128.11C1480.72 2128.1 1480.72 2128.1 1480.71 2128.1Z" fill="#FFCD34" stroke="#330043" stroke-width="7"/>
<rect x="1657.41" y="1845.18" width="65.718" height="352.621" transform="rotate(39.261 1657.41 1845.18)" fill="#FFCD34"/>
<path d="M1263.89 3832.71C1263.89 3832.71 1642.25 3628.56 1726.18 3474.26C1840.08 3264.89 1907.34 2959.21 1907.34 2959.21" stroke="#330043" stroke-width="7" stroke-linecap="round"/>
</svg>
