<?xml version="1.0" encoding="iso-8859-1"?>
<!-- Generator: Adobe Illustrator 19.0.0, SVG Export Plug-In . SVG Version: 6.00 Build 0)  -->
<svg version="1.1" id="Capa_1" xmlns="http://www.w3.org/2000/svg" xmlns:xlink="http://www.w3.org/1999/xlink" x="0px" y="0px"
	 viewBox="0 0 512 512" style="enable-background:new 0 0 512 512;" xml:space="preserve">
<path style="fill:#415A6B;" d="M473.6,229.333L238.933,436.267L3.2,229.333c3.2-5.333,6.4-11.733,11.733-16l195.2-170.667
	c16-14.933,41.6-14.933,57.6,0l195.2,170.667C468.267,217.6,471.467,224,473.6,229.333z"/>
<path style="fill:#E8EAE9;" d="M425.6,405.333H51.2V42.667C51.2,19.2,70.4,0,93.867,0H425.6V405.333z"/>
<path style="fill:#8AD7F8;" d="M477.867,246.4v221.867c0,24.533-19.2,43.733-43.733,43.733h-390.4C19.2,512,0,492.8,0,468.267V246.4
	c0-5.333,1.067-11.733,3.2-17.067l235.733,206.933l235.733-206.933C476.8,234.667,477.867,241.067,477.867,246.4z"/>
<path style="fill:#55C0EB;" d="M467.2,496c-8.533,9.6-20.267,16-33.067,16h-390.4c-13.867,0-25.6-6.4-33.067-16
	c1.067-2.133,3.2-3.2,4.267-4.267l195.2-170.667c16-14.933,41.6-14.933,57.6,0l195.2,170.667C464,492.8,466.133,494.933,467.2,496z"
	/>
<path style="fill:#F3F3F3;" d="M93.867,0h375.467C492.8,0,512,19.2,512,42.667V256c0,23.467-19.2,42.667-42.667,42.667H180.267
	c-23.467,0-42.667-19.2-42.667-42.667V42.667l0,0C137.6,19.2,118.4,0,93.867,0L93.867,0z"/>
<path style="fill:#F3705A;" d="M226.133,119.467c0,60.8,99.2,121.6,99.2,121.6s99.2-60.8,99.2-121.6
	c0-28.8-23.467-53.333-53.333-53.333c-19.2,0-37.333,10.667-45.867,26.667c-8.533-16-26.667-26.667-45.867-26.667
	C249.6,66.133,226.133,90.667,226.133,119.467z"/>
<g>
</g>
<g>
</g>
<g>
</g>
<g>
</g>
<g>
</g>
<g>
</g>
<g>
</g>
<g>
</g>
<g>
</g>
<g>
</g>
<g>
</g>
<g>
</g>
<g>
</g>
<g>
</g>
<g>
</g>
</svg>
