<svg width="34" height="32" viewBox="0 0 34 32" fill="none" xmlns="http://www.w3.org/2000/svg">
<g clip-path="url(#clip0_1916_1457)">
<path d="M16.7843 23.697L8.74189 26.6764C8.37118 26.8102 7.98163 26.5366 8.00048 26.1535L8.4403 17.8293C8.44658 17.7016 8.4026 17.5739 8.32092 17.4706L2.90483 10.9888C2.6535 10.6908 2.8043 10.247 3.18757 10.1436L11.5065 7.97893C11.6384 7.94245 11.7515 7.8634 11.8206 7.75396L16.5205 0.77356C16.7341 0.451294 17.2242 0.451294 17.4378 0.77356L22.1376 7.76004C22.213 7.86948 22.3261 7.94853 22.4518 7.98501L30.7707 10.1497C31.1539 10.247 31.3047 10.6969 31.0534 10.9949L25.6436 17.4767C25.5619 17.58 25.5179 17.7077 25.5242 17.8354L25.964 26.1596C25.9829 26.5427 25.5933 26.8163 25.2226 26.6825L17.1802 23.7031C17.0482 23.6544 16.91 23.6544 16.7843 23.697Z" fill="#FFCD34"/>
<path d="M29.5769 3.67403L27.0008 1.18103C26.9254 1.10807 26.8249 1.07766 26.7244 1.08983C26.6239 1.10199 26.5296 1.16279 26.4793 1.24792L23.8216 6.31296C23.7462 6.44065 23.7713 6.59266 23.8781 6.69603C23.9409 6.75684 24.0289 6.78724 24.1106 6.78724C24.1671 6.78724 24.2237 6.77508 24.2739 6.74467L29.5015 4.17871C29.5895 4.13007 29.6523 4.04494 29.6649 3.94157C29.6838 3.84428 29.6461 3.747 29.5769 3.67403ZM10.2876 6.31904L7.62984 1.254C7.57958 1.16887 7.49161 1.10807 7.3848 1.09591C7.28427 1.08374 7.17746 1.11415 7.10834 1.18711L4.53224 3.68011C4.45685 3.75308 4.42543 3.85036 4.438 3.94765C4.45056 4.04494 4.51339 4.13615 4.60136 4.18479L9.83523 6.75684C9.8855 6.78724 9.94205 6.7994 9.9986 6.7994C10.0866 6.7994 10.1682 6.769 10.2311 6.70819C10.3379 6.59874 10.3567 6.44065 10.2876 6.31904ZM19.128 31.249L17.3059 25.8496C17.2934 25.7948 17.2619 25.7462 17.2242 25.7097C17.1614 25.6489 17.0797 25.6185 16.9918 25.6185C16.841 25.6185 16.7153 25.7158 16.6713 25.8556L14.8492 31.2551C14.8241 31.3524 14.8429 31.4558 14.9058 31.5348C14.9686 31.6139 15.0628 31.6625 15.1696 31.6625H18.8076C18.9081 31.6625 19.0087 31.6139 19.0715 31.5348C19.1406 31.4497 19.1595 31.3463 19.128 31.249Z" fill="#FFCD34"/>
</g>
<defs>
<clipPath id="clip0_1916_1457">
<rect width="32.1698" height="31.1321" fill="white" transform="translate(0.919434 0.530396)"/>
</clipPath>
</defs>
</svg>
