<svg width="54" height="53" viewBox="0 0 54 53" fill="none" xmlns="http://www.w3.org/2000/svg">
<rect x="0.0332031" width="53.0738" height="53" rx="10" fill="#FF4A97"/>
<path d="M25.3564 34.3242L17.5956 37.1953C17.2379 37.3242 16.862 37.0605 16.8802 36.6914L17.3046 28.6699C17.3107 28.5469 17.2682 28.4238 17.1894 28.3242L11.963 22.0781C11.7205 21.791 11.866 21.3633 12.2358 21.2637L20.2634 19.1777C20.3907 19.1426 20.4999 19.0664 20.5666 18.9609L25.1018 12.2344C25.3079 11.9238 25.7808 11.9238 25.987 12.2344L30.5222 18.9668C30.595 19.0723 30.7041 19.1484 30.8253 19.1836L38.8529 21.2695C39.2228 21.3633 39.3683 21.7969 39.1258 22.084L33.9054 28.3301C33.8266 28.4297 33.7841 28.5527 33.7902 28.6758L34.2146 36.6973C34.2328 37.0664 33.8569 37.3301 33.4992 37.2012L25.7384 34.3301C25.6111 34.2832 25.4777 34.2832 25.3564 34.3242Z" fill="#FFCD34"/>
<path d="M37.7006 15.0293L35.2147 12.627C35.1419 12.5566 35.0449 12.5274 34.9479 12.5391C34.8509 12.5508 34.76 12.6094 34.7115 12.6914L32.1468 17.5723C32.074 17.6953 32.0983 17.8418 32.2013 17.9414C32.262 18 32.3468 18.0293 32.4257 18.0293C32.4802 18.0293 32.5348 18.0176 32.5833 17.9883L37.6278 15.5156C37.7127 15.4688 37.7733 15.3867 37.7855 15.2871C37.8036 15.1934 37.7673 15.0996 37.7006 15.0293ZM19.0868 17.5781L16.5221 12.6973C16.4736 12.6152 16.3887 12.5566 16.2857 12.5449C16.1886 12.5332 16.0856 12.5625 16.0189 12.6328L13.533 15.0352C13.4602 15.1055 13.4299 15.1992 13.4421 15.293C13.4542 15.3867 13.5148 15.4746 13.5997 15.5215L18.6503 18C18.6988 18.0293 18.7533 18.041 18.8079 18.041C18.8928 18.041 18.9716 18.0117 19.0322 17.9531C19.1353 17.8477 19.1535 17.6953 19.0868 17.5781ZM27.6176 41.6016L25.8593 36.3984C25.8472 36.3457 25.8169 36.2988 25.7805 36.2637C25.7199 36.2051 25.641 36.1758 25.5562 36.1758C25.4106 36.1758 25.2894 36.2695 25.2469 36.4043L23.4886 41.6074C23.4644 41.7012 23.4826 41.8008 23.5432 41.877C23.6038 41.9531 23.6948 42 23.7979 42H27.3084C27.4054 42 27.5024 41.9531 27.563 41.877C27.6297 41.7949 27.6479 41.6953 27.6176 41.6016Z" fill="#FFCD34"/>
</svg>
