<svg width="196" height="54" viewBox="0 0 196 54" fill="none" xmlns="http://www.w3.org/2000/svg">
<path d="M38.3 36.8C38.3 37.4 37.8 37.9 37.2 37.9H28.5C27.9 37.9 27.4 37.4 27.4 36.8V28.1C27.4 27.5 27.9 27 28.5 27H37.2C37.8 27 38.3 27.5 38.3 28.1V36.8Z" fill="#359830"/>
<path d="M25.3 10.7999C25.3 11.3999 24.8 11.8999 24.2 11.8999H15.5C14.9 11.8999 14.4 11.3999 14.4 10.7999V1.99991C14.4 1.39991 14.9 0.899902 15.5 0.899902H24.2C24.8 0.899902 25.3 1.39991 25.3 1.99991V10.7999Z" fill="#359830"/>
<path d="M38.3 10.7999C38.3 11.3999 37.8 11.8999 37.2 11.8999H28.5C27.9 11.8999 27.4 11.3999 27.4 10.7999V1.99991C27.4 1.39991 27.9 0.899902 28.5 0.899902H37.2C37.8 0.899902 38.3 1.39991 38.3 1.99991V10.7999Z" fill="#359830"/>
<path d="M12.3 23.7999C12.3 24.3999 11.8 24.8999 11.2 24.8999H2.50003C1.90003 24.8999 1.40002 24.3999 1.40002 23.7999V14.9999C1.40002 14.3999 1.90003 13.8999 2.50003 13.8999H11.2C11.8 13.8999 12.3 14.3999 12.3 14.9999V23.7999Z" fill="#359830"/>
<path d="M25.3 23.7999C25.3 24.3999 24.8 24.8999 24.2 24.8999H15.5C14.9 24.8999 14.4 24.3999 14.4 23.7999V14.9999C14.4 14.3999 14.9 13.8999 15.5 13.8999H24.2C24.8 13.8999 25.3 14.3999 25.3 14.9999V23.7999Z" fill="#359830"/>
<path d="M12.3 36.8C12.3 37.4 11.8 37.9 11.2 37.9H2.50003C1.90003 37.9 1.40002 37.4 1.40002 36.8V28.1C1.40002 27.5 1.90003 27 2.50003 27H11.2C11.8 27 12.3 27.5 12.3 28.1V36.8Z" fill="#359830"/>
<path d="M25.3 36.8C25.3 37.4 24.8 37.9 24.2 37.9H15.5C14.9 37.9 14.4 37.4 14.4 36.8V28.1C14.4 27.5 14.9 27 15.5 27H24.2C24.8 27 25.3 27.5 25.3 28.1V36.8Z" fill="#359830"/>
<path d="M12.3 49.8C12.3 50.4 11.8 50.9 11.2 50.9H2.50003C1.90003 50.9 1.40002 50.4 1.40002 49.8V41.1C1.40002 40.5 1.90003 40 2.50003 40H11.2C11.8 40 12.3 40.5 12.3 41.1V49.8Z" fill="#359830"/>
<path d="M25.3 49.8C25.3 50.4 24.8 50.9 24.2 50.9H15.5C14.9 50.9 14.4 50.4 14.4 49.8V41.1C14.4 40.5 14.9 40 15.5 40H24.2C24.8 40 25.3 40.5 25.3 41.1V49.8Z" fill="#359830"/>
<path d="M12.8 6.3999C12.8 9.6999 10.1 12.3999 6.80005 12.3999C3.50005 12.3999 0.800049 9.6999 0.800049 6.3999C0.800049 3.0999 3.50005 0.399902 6.80005 0.399902C10.2 0.399902 12.8 3.0999 12.8 6.3999Z" fill="#C90C0F"/>
<path d="M47.2118 13.4766V24.4795H45.8794V13.4766H47.2118ZM58.5996 13.486V24.4795H57.3113L51.3207 15.8479H51.2133V24.4795H49.8821V13.486H51.1704L57.1825 22.1391H57.2898V13.486H58.5996ZM67.2755 16.2343C67.2111 15.6904 66.9499 15.2681 66.4918 14.9675C66.0338 14.6669 65.4719 14.5166 64.8063 14.5166C64.3196 14.5166 63.8937 14.5953 63.5287 14.7528C63.1673 14.9103 62.8846 15.1268 62.6806 15.4023C62.4802 15.6779 62.38 15.991 62.38 16.3417C62.38 16.6352 62.4498 16.8874 62.5893 17.0986C62.7325 17.3061 62.915 17.4797 63.1369 17.6193C63.3587 17.7553 63.5914 17.868 63.8347 17.9575C64.078 18.0433 64.3017 18.1131 64.5057 18.1668L65.6222 18.4674C65.9085 18.5426 66.227 18.6463 66.5777 18.7787C66.932 18.9112 67.2702 19.0919 67.5923 19.3209C67.9179 19.5464 68.1863 19.8362 68.3974 20.1905C68.6086 20.5448 68.7141 20.9796 68.7141 21.4949C68.7141 22.089 68.5585 22.6258 68.2471 23.1053C67.9394 23.5848 67.4885 23.966 66.8944 24.2487C66.3039 24.5314 65.5864 24.6727 64.7419 24.6727C63.9546 24.6727 63.2729 24.5457 62.6967 24.2916C62.1241 24.0375 61.6732 23.6832 61.344 23.2288C61.0183 22.7743 60.834 22.2464 60.7911 21.6452H62.1653C62.2011 22.0603 62.3406 22.4039 62.584 22.6759C62.8309 22.9443 63.1422 23.1447 63.518 23.2771C63.8973 23.4059 64.3053 23.4703 64.7419 23.4703C65.25 23.4703 65.7063 23.388 66.1107 23.2234C66.5151 23.0552 66.8354 22.8226 67.0716 22.5256C67.3077 22.225 67.4258 21.8743 67.4258 21.4734C67.4258 21.1084 67.3239 20.8114 67.1199 20.5824C66.9159 20.3533 66.6475 20.1673 66.3147 20.0241C65.9819 19.881 65.6222 19.7557 65.2357 19.6484L63.883 19.2619C63.0241 19.0149 62.3442 18.6624 61.8432 18.2044C61.3422 17.7463 61.0917 17.1469 61.0917 16.4061C61.0917 15.7906 61.2581 15.2538 61.5909 14.7957C61.9273 14.3341 62.3782 13.9762 62.9436 13.7222C63.5126 13.4645 64.1478 13.3357 64.8492 13.3357C65.5578 13.3357 66.1876 13.4627 66.7387 13.7168C67.2899 13.9673 67.7264 14.3108 68.0485 14.7474C68.3742 15.184 68.546 15.6797 68.5638 16.2343H67.2755ZM70.3017 14.6669V13.486H78.5469V14.6669H75.0899V24.4795H73.7587V14.6669H70.3017ZM81.9327 13.486V24.4795H80.6014V13.486H81.9327ZM84.0007 14.6669V13.486H92.2458V14.6669H88.7889V24.4795H87.4576V14.6669H84.0007ZM101.515 13.486H102.846V20.7649C102.846 21.5164 102.669 22.1874 102.315 22.7779C101.964 23.3648 101.468 23.8282 100.828 24.1682C100.187 24.5045 99.4357 24.6727 98.5733 24.6727C97.7108 24.6727 96.9593 24.5045 96.3187 24.1682C95.6782 23.8282 95.1807 23.3648 94.8265 22.7779C94.4758 22.1874 94.3004 21.5164 94.3004 20.7649V13.486H95.6316V20.6575C95.6316 21.1943 95.7497 21.6721 95.9859 22.0908C96.2221 22.5059 96.5585 22.8333 96.9951 23.0731C97.4353 23.3093 97.9613 23.4274 98.5733 23.4274C99.1852 23.4274 99.7113 23.3093 100.151 23.0731C100.592 22.8333 100.928 22.5059 101.161 22.0908C101.397 21.6721 101.515 21.1943 101.515 20.6575V13.486ZM104.903 14.6669V13.486H113.149V14.6669H109.692V24.4795H108.36V14.6669H104.903ZM124.021 18.9827C124.021 20.1422 123.812 21.1442 123.393 21.9888C122.975 22.8333 122.4 23.4846 121.67 23.9427C120.94 24.4008 120.106 24.6298 119.169 24.6298C118.231 24.6298 117.397 24.4008 116.667 23.9427C115.937 23.4846 115.363 22.8333 114.944 21.9888C114.525 21.1442 114.316 20.1422 114.316 18.9827C114.316 17.8233 114.525 16.8212 114.944 15.9767C115.363 15.1321 115.937 14.4808 116.667 14.0228C117.397 13.5647 118.231 13.3357 119.169 13.3357C120.106 13.3357 120.94 13.5647 121.67 14.0228C122.4 14.4808 122.975 15.1321 123.393 15.9767C123.812 16.8212 124.021 17.8233 124.021 18.9827ZM122.733 18.9827C122.733 18.0308 122.574 17.2274 122.255 16.5725C121.94 15.9176 121.513 15.422 120.972 15.0856C120.436 14.7492 119.834 14.581 119.169 14.581C118.503 14.581 117.9 14.7492 117.36 15.0856C116.823 15.422 116.395 15.9176 116.077 16.5725C115.762 17.2274 115.604 18.0308 115.604 18.9827C115.604 19.9346 115.762 20.738 116.077 21.3929C116.395 22.0478 116.823 22.5435 117.36 22.8798C117.9 23.2162 118.503 23.3844 119.169 23.3844C119.834 23.3844 120.436 23.2162 120.972 22.8798C121.513 22.5435 121.94 22.0478 122.255 21.3929C122.574 20.738 122.733 19.9346 122.733 18.9827ZM130.511 24.4795V13.486H137.103V14.6669H131.842V18.3815H136.609V19.5625H131.842V24.4795H130.511ZM139.383 24.4795V13.486H146.018V14.6669H140.714V18.3815H145.674V19.5625H140.714V23.2985H146.104V24.4795H139.383ZM151.81 24.4795H148.417V13.486H151.96C153.026 13.486 153.939 13.706 154.698 14.1462C155.456 14.5828 156.038 15.2109 156.442 16.0304C156.847 16.8463 157.049 17.8233 157.049 18.9613C157.049 20.1064 156.845 21.0923 156.437 21.919C156.029 22.7421 155.435 23.3755 154.655 23.8192C153.875 24.2594 152.926 24.4795 151.81 24.4795ZM149.748 23.2985H151.724C152.633 23.2985 153.386 23.1232 153.984 22.7725C154.581 22.4218 155.027 21.9226 155.32 21.2748C155.614 20.6271 155.761 19.8559 155.761 18.9613C155.761 18.0738 155.616 17.3097 155.326 16.6691C155.036 16.025 154.603 15.5311 154.027 15.1876C153.451 14.8405 152.733 14.6669 151.874 14.6669H149.748V23.2985ZM159.282 24.4795V13.486H165.917V14.6669H160.613V18.3815H165.573V19.5625H160.613V23.2985H166.003V24.4795H159.282ZM168.316 24.4795V13.486H172.031C172.89 13.486 173.595 13.6327 174.146 13.9261C174.697 14.216 175.105 14.615 175.37 15.1232C175.634 15.6313 175.767 16.2093 175.767 16.857C175.767 17.5048 175.634 18.0791 175.37 18.5801C175.105 19.0811 174.699 19.4748 174.151 19.7611C173.604 20.0438 172.904 20.1851 172.052 20.1851H169.046V18.9827H172.009C172.596 18.9827 173.069 18.8968 173.426 18.7251C173.788 18.5533 174.049 18.3099 174.21 17.995C174.375 17.6765 174.457 17.2972 174.457 16.857C174.457 16.4169 174.375 16.0322 174.21 15.7029C174.046 15.3737 173.783 15.1196 173.421 14.9407C173.06 14.7582 172.582 14.6669 171.988 14.6669H169.647V24.4795H168.316ZM173.491 19.541L176.196 24.4795H174.65L171.988 19.541H173.491ZM178.436 24.4795H177.04L181.077 13.486H182.451L186.488 24.4795H185.092L181.807 15.2252H181.721L178.436 24.4795ZM178.951 20.1851H184.577V21.3661H178.951V20.1851ZM188.2 24.4795V13.486H189.532V23.2985H194.642V24.4795H188.2Z" fill="#281D16"/>
<path d="M45.8648 28.5728H47.1062L50.0253 35.7026H50.1259L53.045 28.5728H54.2864V37.1621H53.3134V30.6362H53.2295L50.5453 37.1621H49.6059L46.9217 30.6362H46.8378V37.1621H45.8648V28.5728ZM58.1333 37.3131C57.7251 37.3131 57.3547 37.2362 57.0219 37.0824C56.6892 36.9258 56.425 36.7008 56.2293 36.4072C56.0335 36.1108 55.9357 35.7529 55.9357 35.3335C55.9357 34.9644 56.0084 34.6653 56.1538 34.436C56.2992 34.2039 56.4935 34.0222 56.7367 33.8908C56.98 33.7594 57.2484 33.6615 57.542 33.5972C57.8384 33.5301 58.1361 33.477 58.4353 33.4378C58.8268 33.3875 59.1441 33.3498 59.3874 33.3246C59.6334 33.2966 59.8123 33.2505 59.9242 33.1862C60.0388 33.1219 60.0961 33.01 60.0961 32.8507V32.8171C60.0961 32.4033 59.9829 32.0818 59.7564 31.8525C59.5327 31.6232 59.193 31.5086 58.7373 31.5086C58.2648 31.5086 57.8943 31.612 57.6259 31.8189C57.3575 32.0258 57.1687 32.2467 57.0597 32.4816L56.1202 32.1461C56.288 31.7546 56.5117 31.4499 56.7913 31.2318C57.0737 31.0109 57.3812 30.8571 57.7139 30.7704C58.0495 30.681 58.3794 30.6362 58.7037 30.6362C58.9106 30.6362 59.1483 30.6614 59.4167 30.7117C59.6879 30.7593 59.9493 30.8585 60.201 31.0095C60.4554 31.1605 60.6665 31.3884 60.8343 31.6931C61.002 31.9979 61.0859 32.4061 61.0859 32.9178V37.1621H60.0961V36.2898H60.0458C59.9787 36.4296 59.8669 36.5791 59.7103 36.7385C59.5537 36.8979 59.3454 37.0335 59.0854 37.1453C58.8254 37.2572 58.508 37.3131 58.1333 37.3131ZM58.2843 36.424C58.6758 36.424 59.0057 36.3471 59.2741 36.1933C59.5453 36.0395 59.7494 35.841 59.8864 35.5977C60.0262 35.3545 60.0961 35.0987 60.0961 34.8302V33.9243C60.0542 33.9747 59.9619 34.0208 59.8193 34.0627C59.6795 34.1019 59.5174 34.1368 59.3328 34.1676C59.1511 34.1955 58.9735 34.2207 58.8002 34.2431C58.6296 34.2627 58.4912 34.2794 58.385 34.2934C58.1278 34.327 57.8873 34.3815 57.6636 34.457C57.4427 34.5297 57.2638 34.6401 57.1268 34.7883C56.9926 34.9337 56.9255 35.1322 56.9255 35.3839C56.9255 35.7278 57.0527 35.9878 57.3071 36.1639C57.5644 36.3373 57.8901 36.424 58.2843 36.424ZM62.8925 37.1621V30.7201H63.8487V31.6931H63.9158C64.0333 31.3744 64.2458 31.1157 64.5533 30.9172C64.8609 30.7187 65.2076 30.6195 65.5934 30.6195C65.6661 30.6195 65.757 30.6209 65.866 30.6237C65.9751 30.6264 66.0576 30.6306 66.1135 30.6362V31.6428C66.0799 31.6344 66.003 31.6218 65.8828 31.605C65.7654 31.5855 65.641 31.5757 65.5096 31.5757C65.1964 31.5757 64.9168 31.6414 64.6708 31.7728C64.4275 31.9014 64.2346 32.0804 64.092 32.3096C63.9522 32.5361 63.8823 32.7947 63.8823 33.0855V37.1621H62.8925ZM69.1825 37.3131C68.7742 37.3131 68.4038 37.2362 68.071 37.0824C67.7383 36.9258 67.4741 36.7008 67.2784 36.4072C67.0827 36.1108 66.9848 35.7529 66.9848 35.3335C66.9848 34.9644 67.0575 34.6653 67.2029 34.436C67.3483 34.2039 67.5426 34.0222 67.7859 33.8908C68.0291 33.7594 68.2975 33.6615 68.5911 33.5972C68.8875 33.5301 69.1853 33.477 69.4844 33.4378C69.8759 33.3875 70.1932 33.3498 70.4365 33.3246C70.6825 33.2966 70.8615 33.2505 70.9733 33.1862C71.0879 33.1219 71.1453 33.01 71.1453 32.8507V32.8171C71.1453 32.4033 71.032 32.0818 70.8055 31.8525C70.5819 31.6232 70.2421 31.5086 69.7864 31.5086C69.3139 31.5086 68.9434 31.612 68.675 31.8189C68.4066 32.0258 68.2178 32.2467 68.1088 32.4816L67.1693 32.1461C67.3371 31.7546 67.5608 31.4499 67.8404 31.2318C68.1228 31.0109 68.4303 30.8571 68.7631 30.7704C69.0986 30.681 69.4285 30.6362 69.7528 30.6362C69.9597 30.6362 70.1974 30.6614 70.4658 30.7117C70.737 30.7593 70.9985 30.8585 71.2501 31.0095C71.5045 31.1605 71.7156 31.3884 71.8834 31.6931C72.0512 31.9979 72.135 32.4061 72.135 32.9178V37.1621H71.1453V36.2898H71.0949C71.0278 36.4296 70.916 36.5791 70.7594 36.7385C70.6028 36.8979 70.3945 37.0335 70.1345 37.1453C69.8745 37.2572 69.5571 37.3131 69.1825 37.3131ZM69.3334 36.424C69.7249 36.424 70.0548 36.3471 70.3232 36.1933C70.5944 36.0395 70.7985 35.841 70.9356 35.5977C71.0754 35.3545 71.1453 35.0987 71.1453 34.8302V33.9243C71.1033 33.9747 71.011 34.0208 70.8684 34.0627C70.7286 34.1019 70.5665 34.1368 70.3819 34.1676C70.2002 34.1955 70.0227 34.2207 69.8493 34.2431C69.6787 34.2627 69.5403 34.2794 69.4341 34.2934C69.1769 34.327 68.9364 34.3815 68.7127 34.457C68.4918 34.5297 68.3129 34.6401 68.1759 34.7883C68.0417 34.9337 67.9746 35.1322 67.9746 35.3839C67.9746 35.7278 68.1018 35.9878 68.3562 36.1639C68.6135 36.3373 68.9392 36.424 69.3334 36.424ZM74.9314 33.2868V37.1621H73.9416V30.7201H74.8978V31.7267H74.9817C75.1327 31.3995 75.362 31.1367 75.6695 30.9382C75.9771 30.7369 76.3741 30.6362 76.8606 30.6362C77.2968 30.6362 77.6785 30.7257 78.0056 30.9046C78.3327 31.0808 78.5872 31.3492 78.7689 31.7099C78.9506 32.0678 79.0415 32.5207 79.0415 33.0688V37.1621H78.0517V33.1359C78.0517 32.6298 77.9203 32.2355 77.6575 31.9532C77.3947 31.668 77.034 31.5254 76.5754 31.5254C76.2595 31.5254 75.9771 31.5939 75.7283 31.7309C75.4822 31.8679 75.2879 32.0678 75.1453 32.3306C75.0027 32.5934 74.9314 32.9122 74.9314 33.2868ZM81.84 33.2868V37.1621H80.8502V28.5728H81.84V31.7267H81.9239C82.0748 31.394 82.3013 31.1297 82.6033 30.934C82.908 30.7355 83.3135 30.6362 83.8195 30.6362C84.2585 30.6362 84.643 30.7243 84.9729 30.9005C85.3028 31.0738 85.5587 31.3408 85.7404 31.7015C85.9249 32.0594 86.0172 32.5151 86.0172 33.0688V37.1621H85.0274V33.1359C85.0274 32.6242 84.8946 32.2286 84.629 31.949C84.3662 31.6666 84.0013 31.5254 83.5343 31.5254C83.21 31.5254 82.9192 31.5939 82.662 31.7309C82.4076 31.8679 82.2062 32.0678 82.0581 32.3306C81.9127 32.5934 81.84 32.9122 81.84 33.2868ZM89.7237 37.3131C89.3154 37.3131 88.945 37.2362 88.6122 37.0824C88.2795 36.9258 88.0153 36.7008 87.8196 36.4072C87.6239 36.1108 87.526 35.7529 87.526 35.3335C87.526 34.9644 87.5987 34.6653 87.7441 34.436C87.8895 34.2039 88.0838 34.0222 88.3271 33.8908C88.5703 33.7594 88.8387 33.6615 89.1323 33.5972C89.4287 33.5301 89.7265 33.477 90.0256 33.4378C90.4171 33.3875 90.7344 33.3498 90.9777 33.3246C91.2237 33.2966 91.4027 33.2505 91.5145 33.1862C91.6291 33.1219 91.6865 33.01 91.6865 32.8507V32.8171C91.6865 32.4033 91.5732 32.0818 91.3467 31.8525C91.1231 31.6232 90.7833 31.5086 90.3276 31.5086C89.8551 31.5086 89.4846 31.612 89.2162 31.8189C88.9478 32.0258 88.759 32.2467 88.65 32.4816L87.7105 32.1461C87.8783 31.7546 88.102 31.4499 88.3816 31.2318C88.664 31.0109 88.9715 30.8571 89.3043 30.7704C89.6398 30.681 89.9697 30.6362 90.294 30.6362C90.5009 30.6362 90.7386 30.6614 91.007 30.7117C91.2782 30.7593 91.5397 30.8585 91.7913 31.0095C92.0457 31.1605 92.2568 31.3884 92.4246 31.6931C92.5924 31.9979 92.6762 32.4061 92.6762 32.9178V37.1621H91.6865V36.2898H91.6361C91.569 36.4296 91.4572 36.5791 91.3006 36.7385C91.144 36.8979 90.9357 37.0335 90.6757 37.1453C90.4157 37.2572 90.0983 37.3131 89.7237 37.3131ZM89.8746 36.424C90.2661 36.424 90.596 36.3471 90.8644 36.1933C91.1356 36.0395 91.3397 35.841 91.4768 35.5977C91.6166 35.3545 91.6865 35.0987 91.6865 34.8302V33.9243C91.6445 33.9747 91.5522 34.0208 91.4096 34.0627C91.2698 34.1019 91.1077 34.1368 90.9231 34.1676C90.7414 34.1955 90.5639 34.2207 90.3905 34.2431C90.2199 34.2627 90.0815 34.2794 89.9753 34.2934C89.7181 34.327 89.4776 34.3815 89.2539 34.457C89.033 34.5297 88.8541 34.6401 88.7171 34.7883C88.5829 34.9337 88.5158 35.1322 88.5158 35.3839C88.5158 35.7278 88.643 35.9878 88.8974 36.1639C89.1547 36.3373 89.4804 36.424 89.8746 36.424ZM89.0694 29.9484L88.2977 29.9149C88.2977 29.4871 88.4193 29.1376 88.6626 28.8664C88.9086 28.5924 89.212 28.4553 89.5727 28.4553C89.732 28.4553 89.8732 28.4833 89.9963 28.5392C90.1193 28.5924 90.2367 28.6539 90.3486 28.7238C90.4604 28.7937 90.575 28.8566 90.6925 28.9125C90.8127 28.9656 90.9483 28.9922 91.0993 28.9922C91.2587 28.9922 91.3929 28.9307 91.5019 28.8076C91.6138 28.6818 91.6697 28.5308 91.6697 28.3547L92.4246 28.4218C92.4246 28.858 92.3016 29.2047 92.0555 29.4619C91.8123 29.7191 91.5103 29.8478 91.1496 29.8478C90.9567 29.8478 90.7973 29.8212 90.6715 29.7681C90.5457 29.7122 90.4338 29.6492 90.336 29.5793C90.2381 29.5094 90.1347 29.4479 90.0256 29.3948C89.9166 29.3389 89.7824 29.3109 89.623 29.3109C89.4636 29.3109 89.3308 29.3738 89.2246 29.4997C89.1211 29.6227 89.0694 29.7723 89.0694 29.9484ZM97.0999 37.2963C96.5183 37.2963 96.008 37.1579 95.5691 36.8811C95.1329 36.6043 94.7918 36.2171 94.5457 35.7194C94.3025 35.2217 94.1808 34.6401 94.1808 33.9747C94.1808 33.3036 94.3025 32.7179 94.5457 32.2174C94.7918 31.7169 95.1329 31.3282 95.5691 31.0514C96.008 30.7746 96.5183 30.6362 97.0999 30.6362C97.6814 30.6362 98.1903 30.7746 98.6265 31.0514C99.0655 31.3282 99.4066 31.7169 99.6498 32.2174C99.8959 32.7179 100.019 33.3036 100.019 33.9747C100.019 34.6401 99.8959 35.2217 99.6498 35.7194C99.4066 36.2171 99.0655 36.6043 98.6265 36.8811C98.1903 37.1579 97.6814 37.2963 97.0999 37.2963ZM97.0999 36.4072C97.5416 36.4072 97.9051 36.2939 98.1903 36.0675C98.4755 35.841 98.6866 35.5432 98.8236 35.1741C98.9606 34.8051 99.0291 34.4052 99.0291 33.9747C99.0291 33.5441 98.9606 33.1429 98.8236 32.771C98.6866 32.3991 98.4755 32.0985 98.1903 31.8693C97.9051 31.64 97.5416 31.5254 97.0999 31.5254C96.6581 31.5254 96.2946 31.64 96.0094 31.8693C95.7242 32.0985 95.5131 32.3991 95.3761 32.771C95.2391 33.1429 95.1706 33.5441 95.1706 33.9747C95.1706 34.4052 95.2391 34.8051 95.3761 35.1741C95.5131 35.5432 95.7242 35.841 96.0094 36.0675C96.2946 36.2939 96.6581 36.4072 97.0999 36.4072Z" fill="#2A2522"/>
<path d="M52.5211 44.8057H51.5143C51.4548 44.5161 51.3506 44.2617 51.2017 44.0425C51.0556 43.8233 50.877 43.6392 50.6659 43.4904C50.4575 43.3388 50.2261 43.2252 49.9717 43.1494C49.7173 43.0736 49.4521 43.0357 49.176 43.0357C48.6726 43.0357 48.2166 43.1629 47.808 43.4173C47.402 43.6717 47.0786 44.0466 46.8377 44.5418C46.5996 45.0371 46.4805 45.6446 46.4805 46.3645C46.4805 47.0844 46.5996 47.692 46.8377 48.1873C47.0786 48.6825 47.402 49.0574 47.808 49.3117C48.2166 49.5661 48.6726 49.6933 49.176 49.6933C49.4521 49.6933 49.7173 49.6555 49.9717 49.5797C50.2261 49.5039 50.4575 49.3916 50.6659 49.2427C50.877 49.0912 51.0556 48.9058 51.2017 48.6866C51.3506 48.4647 51.4548 48.2103 51.5143 47.9234H52.5211C52.4453 48.3483 52.3073 48.7285 52.107 49.0641C51.9067 49.3997 51.6577 49.6852 51.36 49.9207C51.0623 50.1534 50.7281 50.3307 50.3573 50.4525C49.9893 50.5743 49.5955 50.6352 49.176 50.6352C48.467 50.6352 47.8364 50.4619 47.2843 50.1155C46.7322 49.7691 46.2978 49.2766 45.9812 48.6379C45.6645 47.9992 45.5062 47.2414 45.5062 46.3645C45.5062 45.4877 45.6645 44.7299 45.9812 44.0912C46.2978 43.4525 46.7322 42.96 47.2843 42.6135C47.8364 42.2671 48.467 42.0939 49.176 42.0939C49.5955 42.0939 49.9893 42.1548 50.3573 42.2766C50.7281 42.3984 51.0623 42.577 51.36 42.8125C51.6577 43.0452 51.9067 43.3294 52.107 43.665C52.3073 43.9978 52.4453 44.3781 52.5211 44.8057ZM55.8529 50.6676C55.4578 50.6676 55.0992 50.5932 54.7771 50.4444C54.4551 50.2928 54.1993 50.0749 54.0099 49.7908C53.8204 49.5039 53.7257 49.1575 53.7257 48.7515C53.7257 48.3943 53.7961 48.1047 53.9368 47.8828C54.0776 47.6582 54.2656 47.4823 54.5011 47.3551C54.7365 47.2279 54.9964 47.1331 55.2805 47.0709C55.5674 47.0059 55.8556 46.9545 56.1452 46.9166C56.5241 46.8679 56.8313 46.8314 57.0667 46.807C57.3049 46.78 57.4781 46.7353 57.5863 46.6731C57.6973 46.6108 57.7528 46.5026 57.7528 46.3483V46.3158C57.7528 45.9153 57.6432 45.6041 57.4239 45.3821C57.2074 45.1602 56.8786 45.0493 56.4375 45.0493C55.9801 45.0493 55.6215 45.1494 55.3617 45.3497C55.1019 45.5499 54.9192 45.7637 54.8137 45.9911L53.9043 45.6663C54.0667 45.2874 54.2832 44.9924 54.5539 44.7813C54.8272 44.5675 55.1249 44.4187 55.447 44.3348C55.7717 44.2482 56.0911 44.2049 56.405 44.2049C56.6053 44.2049 56.8353 44.2292 57.0951 44.2779C57.3576 44.324 57.6107 44.42 57.8543 44.5662C58.1005 44.7123 58.3049 44.9329 58.4672 45.2279C58.6296 45.5229 58.7108 45.918 58.7108 46.4133V50.5215H57.7528V49.6771H57.7041C57.6391 49.8124 57.5308 49.9572 57.3793 50.1115C57.2277 50.2657 57.0261 50.397 56.7744 50.5052C56.5227 50.6135 56.2156 50.6676 55.8529 50.6676ZM55.9991 49.807C56.3779 49.807 56.6973 49.7326 56.9571 49.5837C57.2196 49.4349 57.4172 49.2427 57.5498 49.0073C57.6851 48.7718 57.7528 48.5242 57.7528 48.2644V47.3875C57.7122 47.4363 57.6229 47.4809 57.4848 47.5215C57.3495 47.5594 57.1926 47.5932 57.0139 47.623C56.838 47.6501 56.6662 47.6744 56.4984 47.6961C56.3333 47.715 56.1993 47.7312 56.0965 47.7448C55.8475 47.7772 55.6148 47.83 55.3982 47.9031C55.1844 47.9735 55.0112 48.0804 54.8786 48.2238C54.7487 48.3645 54.6838 48.5567 54.6838 48.8002C54.6838 49.1331 54.8069 49.3848 55.0532 49.5553C55.3022 49.7231 55.6175 49.807 55.9991 49.807ZM60.4595 50.5215V44.2861H61.385V45.2603H61.4662C61.5961 44.9275 61.8059 44.669 62.0954 44.485C62.385 44.2982 62.7328 44.2049 63.1387 44.2049C63.5501 44.2049 63.8925 44.2982 64.1658 44.485C64.4418 44.669 64.657 44.9275 64.8113 45.2603H64.8762C65.0359 44.9383 65.2754 44.6825 65.5947 44.4931C65.9141 44.3009 66.297 44.2049 66.7436 44.2049C67.3011 44.2049 67.7571 44.3794 68.1116 44.7286C68.4662 45.075 68.6434 45.6149 68.6434 46.3483V50.5215H67.6854V46.3483C67.6854 45.8882 67.5596 45.5594 67.3079 45.3618C67.0562 45.1643 66.7598 45.0655 66.4188 45.0655C65.9804 45.0655 65.6408 45.1981 65.3999 45.4633C65.159 45.7258 65.0386 46.0587 65.0386 46.462V50.5215H64.0643V46.2509C64.0643 45.8963 63.9493 45.6108 63.7192 45.3943C63.4892 45.1751 63.1929 45.0655 62.8302 45.0655C62.5812 45.0655 62.3485 45.1318 62.132 45.2644C61.9182 45.397 61.745 45.5811 61.6124 45.8165C61.4825 46.0492 61.4175 46.3185 61.4175 46.6243V50.5215H60.4595ZM70.3951 52.8598V44.2861H71.3207V45.2766H71.4344C71.5047 45.1683 71.6022 45.0303 71.7266 44.8625C71.8538 44.692 72.0352 44.5405 72.2706 44.4078C72.5088 44.2725 72.8308 44.2049 73.2368 44.2049C73.7618 44.2049 74.2246 44.3361 74.6251 44.5986C75.0257 44.8612 75.3383 45.2333 75.5629 45.715C75.7875 46.1967 75.8998 46.7651 75.8998 47.42C75.8998 48.0804 75.7875 48.6528 75.5629 49.1372C75.3383 49.6189 75.027 49.9924 74.6292 50.2576C74.2314 50.5201 73.7726 50.6514 73.253 50.6514C72.8525 50.6514 72.5318 50.5851 72.2909 50.4525C72.0501 50.3172 71.8647 50.1642 71.7348 49.9937C71.6049 49.8205 71.5047 49.6771 71.4344 49.5634H71.3532V52.8598H70.3951ZM71.3369 47.4038C71.3369 47.8747 71.4059 48.2901 71.544 48.65C71.682 49.0073 71.8836 49.2874 72.1488 49.4904C72.4141 49.6906 72.7388 49.7908 73.1231 49.7908C73.5237 49.7908 73.8579 49.6852 74.1258 49.4741C74.3965 49.2603 74.5994 48.9735 74.7347 48.6135C74.8728 48.2509 74.9418 47.8476 74.9418 47.4038C74.9418 46.9653 74.8741 46.5702 74.7388 46.2184C74.6062 45.8639 74.4046 45.5838 74.1339 45.3781C73.866 45.1697 73.5291 45.0655 73.1231 45.0655C72.7334 45.0655 72.4059 45.1643 72.1407 45.3618C71.8755 45.5567 71.6752 45.83 71.5399 46.1819C71.4046 46.531 71.3369 46.9383 71.3369 47.4038ZM81.2909 47.9721V44.2861H82.2489V50.5215H81.2909V49.466H81.2259C81.0798 49.7827 80.8524 50.0519 80.5439 50.2739C80.2354 50.4931 79.8457 50.6027 79.3748 50.6027C78.9851 50.6027 78.6387 50.5174 78.3355 50.3469C78.0324 50.1737 77.7943 49.9139 77.6211 49.5675C77.4479 49.2184 77.3613 48.7786 77.3613 48.2482V44.2861H78.3193V48.1832C78.3193 48.6379 78.4465 49.0005 78.7009 49.2712C78.958 49.5418 79.2855 49.6771 79.6833 49.6771C79.9215 49.6771 80.1637 49.6162 80.41 49.4944C80.6589 49.3726 80.8673 49.1859 81.0351 48.9342C81.2056 48.6825 81.2909 48.3618 81.2909 47.9721ZM88.4204 45.6825L87.5598 45.9261C87.5057 45.7827 87.4258 45.6433 87.3203 45.508C87.2174 45.37 87.0767 45.2563 86.8981 45.167C86.7195 45.0777 86.4908 45.033 86.212 45.033C85.8304 45.033 85.5124 45.121 85.258 45.2969C85.0063 45.4701 84.8805 45.6907 84.8805 45.9586C84.8805 46.1967 84.9671 46.3848 85.1403 46.5229C85.3135 46.6609 85.5842 46.7759 85.9522 46.8679L86.8778 47.0953C87.4353 47.2306 87.8507 47.4376 88.1241 47.7164C88.3974 47.9924 88.5341 48.3483 88.5341 48.784C88.5341 49.1412 88.4312 49.4606 88.2255 49.7421C88.0226 50.0235 87.7384 50.2454 87.373 50.4078C87.0077 50.5702 86.5828 50.6514 86.0984 50.6514C85.4624 50.6514 84.936 50.5134 84.5192 50.2373C84.1024 49.9613 83.8386 49.558 83.7276 49.0276L84.6369 48.8002C84.7235 49.1358 84.8873 49.3875 85.1281 49.5553C85.3717 49.7231 85.6897 49.807 86.0821 49.807C86.5287 49.807 86.8832 49.7123 87.1457 49.5228C87.4109 49.3307 87.5435 49.1007 87.5435 48.8327C87.5435 48.6162 87.4678 48.4349 87.3162 48.2887C87.1647 48.1399 86.9319 48.0289 86.618 47.9559L85.5787 47.7123C85.0077 47.577 84.5882 47.3672 84.3203 47.0831C84.0551 46.7962 83.9225 46.4376 83.9225 46.0073C83.9225 45.6555 84.0212 45.3442 84.2188 45.0736C84.4191 44.803 84.6911 44.5905 85.0348 44.4363C85.3812 44.282 85.7736 44.2049 86.212 44.2049C86.8291 44.2049 87.3135 44.3402 87.6653 44.6108C88.0199 44.8815 88.2716 45.2387 88.4204 45.6825ZM94.328 42.2076V50.5215H93.3213V42.2076H94.328ZM96.2167 50.5215V44.2861H97.1423V45.2603H97.2235C97.3534 44.9275 97.5631 44.669 97.8527 44.485C98.1423 44.2982 98.49 44.2049 98.896 44.2049C99.3074 44.2049 99.6497 44.2982 99.923 44.485C100.199 44.669 100.414 44.9275 100.569 45.2603H100.633C100.793 44.9383 101.033 44.6825 101.352 44.4931C101.671 44.3009 102.054 44.2049 102.501 44.2049C103.058 44.2049 103.514 44.3794 103.869 44.7286C104.223 45.075 104.401 45.6149 104.401 46.3483V50.5215H103.443V46.3483C103.443 45.8882 103.317 45.5594 103.065 45.3618C102.813 45.1643 102.517 45.0655 102.176 45.0655C101.738 45.0655 101.398 45.1981 101.157 45.4633C100.916 45.7258 100.796 46.0587 100.796 46.462V50.5215H99.8216V46.2509C99.8216 45.8963 99.7065 45.6108 99.4765 45.3943C99.2465 45.1751 98.9501 45.0655 98.5875 45.0655C98.3385 45.0655 98.1057 45.1318 97.8892 45.2644C97.6754 45.397 97.5022 45.5811 97.3696 45.8165C97.2397 46.0492 97.1747 46.3185 97.1747 46.6243V50.5215H96.2167ZM106.152 52.8598V44.2861H107.078V45.2766H107.192C107.262 45.1683 107.359 45.0303 107.484 44.8625C107.611 44.692 107.792 44.5405 108.028 44.4078C108.266 44.2725 108.588 44.2049 108.994 44.2049C109.519 44.2049 109.982 44.3361 110.382 44.5986C110.783 44.8612 111.096 45.2333 111.32 45.715C111.545 46.1967 111.657 46.7651 111.657 47.42C111.657 48.0804 111.545 48.6528 111.32 49.1372C111.096 49.6189 110.784 49.9924 110.386 50.2576C109.989 50.5201 109.53 50.6514 109.01 50.6514C108.61 50.6514 108.289 50.5851 108.048 50.4525C107.807 50.3172 107.622 50.1642 107.492 49.9937C107.362 49.8205 107.262 49.6771 107.192 49.5634H107.11V52.8598H106.152ZM107.094 47.4038C107.094 47.8747 107.163 48.2901 107.301 48.65C107.439 49.0073 107.641 49.2874 107.906 49.4904C108.171 49.6906 108.496 49.7908 108.88 49.7908C109.281 49.7908 109.615 49.6852 109.883 49.4741C110.154 49.2603 110.357 48.9735 110.492 48.6135C110.63 48.2509 110.699 47.8476 110.699 47.4038C110.699 46.9653 110.631 46.5702 110.496 46.2184C110.363 45.8639 110.162 45.5838 109.891 45.3781C109.623 45.1697 109.286 45.0655 108.88 45.0655C108.491 45.0655 108.163 45.1643 107.898 45.3618C107.633 45.5567 107.432 45.83 107.297 46.1819C107.162 46.531 107.094 46.9383 107.094 47.4038ZM115.733 50.6514C115.132 50.6514 114.614 50.5188 114.178 50.2536C113.745 49.9856 113.411 49.6122 113.175 49.1331C112.943 48.6514 112.826 48.0912 112.826 47.4525C112.826 46.8138 112.943 46.2509 113.175 45.7637C113.411 45.2739 113.738 44.8923 114.158 44.6189C114.58 44.3429 115.072 44.2049 115.635 44.2049C115.96 44.2049 116.281 44.259 116.598 44.3673C116.914 44.4755 117.202 44.6514 117.462 44.895C117.722 45.1359 117.929 45.4552 118.083 45.853C118.238 46.2509 118.315 46.7407 118.315 47.3226V47.7285H113.508V46.9004H117.34C117.34 46.5486 117.27 46.2346 117.129 45.9586C116.991 45.6825 116.794 45.4647 116.537 45.305C116.282 45.1453 115.982 45.0655 115.635 45.0655C115.254 45.0655 114.924 45.1602 114.645 45.3497C114.369 45.5364 114.156 45.78 114.008 46.0804C113.859 46.3808 113.784 46.7028 113.784 47.0465V47.5986C113.784 48.0695 113.865 48.4687 114.028 48.7962C114.193 49.121 114.422 49.3686 114.714 49.5391C115.006 49.7069 115.346 49.7908 115.733 49.7908C115.985 49.7908 116.212 49.7556 116.415 49.6852C116.621 49.6122 116.798 49.5039 116.947 49.3605C117.095 49.2143 117.211 49.033 117.292 48.8165L118.217 49.0763C118.12 49.3902 117.956 49.6663 117.726 49.9044C117.496 50.1399 117.212 50.3239 116.874 50.4565C116.535 50.5864 116.155 50.6514 115.733 50.6514ZM119.772 50.5215V44.2861H120.698V45.2279H120.763C120.876 44.9193 121.082 44.669 121.38 44.4769C121.677 44.2847 122.013 44.1886 122.386 44.1886C122.457 44.1886 122.545 44.19 122.65 44.1927C122.756 44.1954 122.836 44.1995 122.89 44.2049V45.1792C122.857 45.171 122.783 45.1589 122.666 45.1426C122.553 45.1237 122.432 45.1142 122.305 45.1142C122.002 45.1142 121.731 45.1778 121.493 45.305C121.258 45.4295 121.071 45.6027 120.933 45.8246C120.798 46.0438 120.73 46.2942 120.73 46.5756V50.5215H119.772ZM125.86 50.6676C125.465 50.6676 125.107 50.5932 124.785 50.4444C124.462 50.2928 124.207 50.0749 124.017 49.7908C123.828 49.5039 123.733 49.1575 123.733 48.7515C123.733 48.3943 123.804 48.1047 123.944 47.8828C124.085 47.6582 124.273 47.4823 124.509 47.3551C124.744 47.2279 125.004 47.1331 125.288 47.0709C125.575 47.0059 125.863 46.9545 126.153 46.9166C126.531 46.8679 126.839 46.8314 127.074 46.807C127.312 46.78 127.485 46.7353 127.594 46.6731C127.705 46.6108 127.76 46.5026 127.76 46.3483V46.3158C127.76 45.9153 127.651 45.6041 127.431 45.3821C127.215 45.1602 126.886 45.0493 126.445 45.0493C125.988 45.0493 125.629 45.1494 125.369 45.3497C125.109 45.5499 124.927 45.7637 124.821 45.9911L123.912 45.6663C124.074 45.2874 124.291 44.9924 124.561 44.7813C124.835 44.5675 125.132 44.4187 125.454 44.3348C125.779 44.2482 126.098 44.2049 126.412 44.2049C126.613 44.2049 126.843 44.2292 127.103 44.2779C127.365 44.324 127.618 44.42 127.862 44.5662C128.108 44.7123 128.312 44.9329 128.475 45.2279C128.637 45.5229 128.718 45.918 128.718 46.4133V50.5215H127.76V49.6771H127.711C127.647 49.8124 127.538 49.9572 127.387 50.1115C127.235 50.2657 127.034 50.397 126.782 50.5052C126.53 50.6135 126.223 50.6676 125.86 50.6676ZM126.006 49.807C126.385 49.807 126.705 49.7326 126.965 49.5837C127.227 49.4349 127.425 49.2427 127.557 49.0073C127.693 48.7718 127.76 48.5242 127.76 48.2644V47.3875C127.72 47.4363 127.63 47.4809 127.492 47.5215C127.357 47.5594 127.2 47.5932 127.021 47.623C126.845 47.6501 126.674 47.6744 126.506 47.6961C126.341 47.715 126.207 47.7312 126.104 47.7448C125.855 47.7772 125.622 47.83 125.406 47.9031C125.192 47.9735 125.019 48.0804 124.886 48.2238C124.756 48.3645 124.691 48.5567 124.691 48.8002C124.691 49.1331 124.814 49.3848 125.061 49.5553C125.31 49.7231 125.625 49.807 126.006 49.807ZM133.179 44.2861V45.098H129.947V44.2861H133.179ZM130.889 42.7922H131.847V48.7353C131.847 49.0059 131.886 49.2089 131.965 49.3442C132.046 49.4768 132.149 49.5661 132.273 49.6122C132.401 49.6555 132.535 49.6771 132.675 49.6771C132.781 49.6771 132.867 49.6717 132.935 49.6609C133.003 49.6473 133.057 49.6365 133.097 49.6284L133.292 50.489C133.227 50.5134 133.137 50.5377 133.02 50.5621C132.904 50.5891 132.756 50.6027 132.578 50.6027C132.307 50.6027 132.042 50.5445 131.782 50.4281C131.525 50.3117 131.311 50.1345 131.141 49.8963C130.973 49.6582 130.889 49.3578 130.889 48.9951V42.7922ZM134.62 50.5215V44.2861H135.545V45.2279H135.61C135.724 44.9193 135.93 44.669 136.227 44.4769C136.525 44.2847 136.861 44.1886 137.234 44.1886C137.304 44.1886 137.392 44.19 137.498 44.1927C137.603 44.1954 137.683 44.1995 137.737 44.2049V45.1792C137.705 45.171 137.631 45.1589 137.514 45.1426C137.401 45.1237 137.28 45.1142 137.153 45.1142C136.85 45.1142 136.579 45.1778 136.341 45.305C136.106 45.4295 135.919 45.6027 135.781 45.8246C135.645 46.0438 135.578 46.2942 135.578 46.5756V50.5215H134.62ZM138.873 50.5215V44.2861H139.831V50.5215H138.873ZM139.36 43.2468C139.174 43.2468 139.012 43.1832 138.877 43.056C138.745 42.9288 138.678 42.7759 138.678 42.5973C138.678 42.4187 138.745 42.2658 138.877 42.1386C139.012 42.0114 139.174 41.9478 139.36 41.9478C139.547 41.9478 139.707 42.0114 139.839 42.1386C139.975 42.2658 140.042 42.4187 140.042 42.5973C140.042 42.7759 139.975 42.9288 139.839 43.056C139.707 43.1832 139.547 43.2468 139.36 43.2468ZM141.407 50.5215V49.7908L144.947 45.2441V45.1792H141.521V44.2861H146.181V45.0493L142.739 49.5634V49.6284H146.295V50.5215H141.407Z" fill="#281D16"/>
</svg>
