<svg width="1123" height="324" viewBox="0 0 1123 324" fill="none" xmlns="http://www.w3.org/2000/svg">
<path d="M574.831 162.883L574.407 13.5798H533.046L485.697 93.0988L437.016 13.5798H395.656V162.883H441.554V97.15L473.965 149.458H496.158L528.571 94.8517L528.994 162.883H574.831ZM671.1 13.5798H599.201V162.883H649.571V126.178H671.1C712.706 126.178 739.131 104.407 739.131 69.8765C739.131 35.2881 712.706 13.5798 671.1 13.5798ZM667.895 87.3539H649.571V52.4018H667.895C681.744 52.4018 688.395 58.9933 688.395 69.8765C688.395 80.7638 681.744 87.3539 667.895 87.3539Z" fill="#ED3237"/>
<path d="M934.743 162.883L934.319 13.5798H892.958L845.609 93.0988L796.928 13.5798H755.568V162.883H801.466V97.15L833.878 149.458H856.071L888.483 94.8517L888.906 162.883H934.743ZM1070.92 162.883H1122.93L1057.68 13.5798H1008.15L942.906 162.883H994.125L1004.1 136.881H1060.88L1070.92 162.883ZM1018.01 100.598L1032.53 63.0435L1047.04 100.598H1018.01Z" fill="#3E4095"/>
<path d="M493.225 247.102L493.159 203.446H486.615L469.902 232.374L452.88 203.446H446.338V247.102H453.918V218.528L467.993 242.115H471.551L485.626 218.158L485.693 247.102H493.225ZM507.927 208.308C510.788 208.308 512.82 206.188 512.82 203.446C512.82 200.885 510.734 198.958 507.927 198.958C505.098 198.958 503.012 201.008 503.012 203.623C503.012 206.241 505.098 208.308 507.927 208.308ZM504.055 247.102H511.709V213.789H504.055V247.102ZM540.308 213.419C535.535 213.419 531.558 215.044 529.046 218.105V213.789H521.755V247.102H529.409V230.251C529.409 223.587 533.085 220.228 538.538 220.228C543.432 220.228 546.31 223.091 546.31 229.015V247.102H553.964V228.006C553.964 217.98 548.15 213.419 540.308 213.419ZM567.57 208.308C570.433 208.308 572.465 206.188 572.465 203.446C572.465 200.885 570.379 198.958 567.57 198.958C564.743 198.958 562.659 201.008 562.659 203.623C562.659 206.241 564.743 208.308 567.57 208.308ZM563.699 247.102H571.352V213.789H563.699V247.102ZM591.498 247.543C600.695 247.543 606.321 243.479 606.321 237.254C606.321 224.205 586.12 230.2 586.12 223.461C586.12 221.27 588.324 219.714 592.975 219.714C596.098 219.714 599.222 220.351 602.345 222.206L605.278 216.285C602.345 214.48 597.384 213.419 593.044 213.419C584.228 213.419 578.658 217.54 578.658 223.835C578.658 237.13 598.856 231.135 598.856 237.501C598.856 239.799 596.829 241.178 592.002 241.178C587.889 241.178 583.481 239.799 580.599 237.871L577.67 243.796C580.599 245.916 586.051 247.543 591.498 247.543ZM630.441 239.747C629.279 240.684 627.75 241.108 626.152 241.108C623.223 241.108 621.623 239.377 621.623 236.122V220.278H630.389V214.04H621.623V206.435H613.974V214.04H608.595V220.278H613.974V236.319C613.974 243.673 618.086 247.543 625.236 247.543C627.996 247.543 630.752 246.785 632.593 245.298L630.441 239.747ZM663.941 200.688H654.934L646.674 209.247H653.286L663.941 200.688ZM668.521 230.64C668.521 220.228 661.546 213.419 652.001 213.419C642.265 213.419 635.099 220.529 635.099 230.448C635.099 240.365 642.198 247.543 653.165 247.543C658.785 247.543 663.384 245.67 666.318 242.115L662.223 237.307C659.896 239.747 657.017 240.93 653.339 240.93C647.646 240.93 643.67 237.802 642.751 232.939H668.401C668.47 232.197 668.521 231.26 668.521 230.64ZM652.001 219.66C657.017 219.66 660.624 222.966 661.234 227.76H642.701C643.429 222.897 647.038 219.66 652.001 219.66ZM683.153 218.653V213.789H675.862V247.102H683.518V230.941C683.518 224.152 687.195 220.652 693.009 220.652C693.562 220.652 694.12 220.722 694.778 220.846V213.419C689.329 213.419 685.357 215.169 683.153 218.653ZM705.45 208.308C708.311 208.308 710.344 206.188 710.344 203.446C710.344 200.885 708.261 198.958 705.45 198.958C702.622 198.958 700.539 201.008 700.539 203.623C700.539 206.241 702.622 208.308 705.45 208.308ZM701.581 247.102H709.234V213.789H701.581V247.102ZM733.977 247.543C744.149 247.543 751.42 240.436 751.42 230.448C751.42 220.475 744.149 213.419 733.977 213.419C723.932 213.419 716.588 220.475 716.588 230.448C716.588 240.436 723.932 247.543 733.977 247.543ZM733.977 240.861C728.461 240.861 724.314 236.812 724.314 230.448C724.314 224.082 728.461 220.031 733.977 220.031C739.55 220.031 743.717 224.082 743.717 230.448C743.717 236.812 739.55 240.861 733.977 240.861ZM794.039 203.446H776.408V247.102H784.354V234.496H794.039C805.301 234.496 812.276 228.571 812.276 218.973C812.276 209.301 805.301 203.446 794.039 203.446ZM793.656 227.636H784.354V210.308H793.656C800.65 210.308 804.259 213.492 804.259 218.973C804.259 224.452 800.65 227.636 793.656 227.636ZM847.907 200.688H838.898L830.638 209.247H837.251L847.907 200.688ZM844.106 213.789V230.64C844.106 237.307 840.495 240.684 835.168 240.684C830.324 240.684 827.514 237.802 827.514 231.753V213.789H819.862V232.816C819.862 242.858 825.553 247.543 833.952 247.543C838.167 247.543 842.022 245.916 844.468 242.858V247.102H851.759V213.789H844.106ZM879.924 213.419C875.757 213.419 872.08 214.852 869.443 217.841V200.812H861.788V247.102H869.077V242.807C871.645 245.971 875.446 247.543 879.924 247.543C889.468 247.543 896.511 240.807 896.511 230.448C896.511 220.084 889.468 213.419 879.924 213.419ZM879.055 240.861C873.555 240.861 869.319 236.812 869.319 230.448C869.319 224.082 873.555 220.031 879.055 220.031C884.574 220.031 888.737 224.082 888.737 230.448C888.737 236.812 884.574 240.861 879.055 240.861ZM903.783 247.102H911.438V200.812H903.783V247.102ZM925.353 208.308C928.216 208.308 930.246 206.188 930.246 203.446C930.246 200.885 928.163 198.958 925.353 198.958C922.525 198.958 920.44 201.008 920.44 203.623C920.44 206.241 922.525 208.308 925.353 208.308ZM921.483 247.102H929.136V213.789H921.483V247.102ZM954.193 247.543C960.544 247.543 965.631 244.734 968.145 239.747L962.263 236.246C960.3 239.428 957.37 240.861 954.123 240.861C948.501 240.861 944.215 236.936 944.215 230.448C944.215 224.029 948.501 220.031 954.123 220.031C957.37 220.031 960.3 221.464 962.263 224.647L968.145 221.147C965.631 216.107 960.544 213.419 954.193 213.419C943.834 213.419 936.493 220.475 936.493 230.448C936.493 240.436 943.834 247.543 954.193 247.543ZM988.963 247.543C999.134 247.543 1006.4 240.436 1006.4 230.448C1006.4 220.475 999.134 213.419 988.963 213.419C978.918 213.419 971.574 220.475 971.574 230.448C971.574 240.436 978.918 247.543 988.963 247.543ZM988.963 240.861C983.446 240.861 979.3 236.812 979.3 230.448C979.3 224.082 983.446 220.031 988.963 220.031C994.535 220.031 998.701 224.082 998.701 230.448C998.701 236.812 994.535 240.861 988.963 240.861Z" fill="#222124"/>
<path d="M391.387 264.119V283.848C388.696 279.602 384.284 277.355 379.144 277.355C369.942 277.355 363.078 284.096 363.078 294.024C363.078 303.95 369.942 310.762 379.144 310.762C384.459 310.762 388.94 308.391 391.579 303.95V310.445H395.749V264.119H391.387ZM379.511 306.817C372.651 306.817 367.49 301.702 367.49 294.024C367.49 286.344 372.651 281.23 379.511 281.23C386.3 281.23 391.459 286.344 391.459 294.024C391.459 301.702 386.3 306.817 379.511 306.817ZM421.051 310.762C430.481 310.762 437.41 303.772 437.41 294.024C437.41 284.293 430.481 277.355 421.051 277.355C411.602 277.355 404.619 284.293 404.619 294.024C404.619 303.772 411.602 310.762 421.051 310.762ZM421.051 306.817C414.192 306.817 409.03 301.702 409.03 294.024C409.03 286.344 414.192 281.23 421.051 281.23C427.91 281.23 432.999 286.344 432.999 294.024C432.999 301.702 427.91 306.817 421.051 306.817ZM467.782 306.444V290.22H489.961V286.29H467.782V270.736H492.67V266.756H463.25V310.445H493.574V306.444H467.782ZM511.474 310.762C519.86 310.762 524.758 307.065 524.758 301.385C524.758 288.787 503.866 295.455 503.866 286.591C503.866 283.478 506.436 281.158 512.268 281.158C515.57 281.158 518.941 281.973 521.754 283.973L523.664 280.416C520.954 278.541 516.423 277.355 512.268 277.355C504.057 277.355 499.525 281.354 499.525 286.714C499.525 299.703 520.416 292.961 520.416 301.526C520.416 304.765 517.897 306.888 511.769 306.888C507.234 306.888 502.893 305.259 500.321 303.208L498.362 306.692C500.984 309.012 506.143 310.762 511.474 310.762ZM548.221 305.259C547.003 306.393 545.216 306.942 543.443 306.942C539.831 306.942 537.867 304.819 537.867 300.961V281.354H547.681V277.601H537.867V270.435H533.527V277.601H527.763V281.354H533.527V301.209C533.527 307.259 536.896 310.762 542.958 310.762C545.475 310.762 548.047 310 549.747 308.444L548.221 305.259ZM568.921 277.355C563.849 277.355 559.059 278.984 555.809 281.795L557.772 285.105C560.412 282.734 564.336 281.23 568.505 281.23C574.497 281.23 577.623 284.293 577.623 289.9V291.899H567.392C558.137 291.899 554.957 296.147 554.957 301.209C554.957 306.888 559.438 310.762 566.717 310.762C572.048 310.762 575.849 308.692 577.814 305.331V310.445H581.98V290.096C581.98 281.602 577.257 277.355 568.921 277.355ZM567.392 307.259C562.253 307.259 559.247 304.888 559.247 301.084C559.247 297.703 561.263 295.209 567.513 295.209H577.623V300.588C575.921 304.888 572.289 307.259 567.392 307.259ZM618.848 264.119V283.848C616.158 279.602 611.748 277.355 606.608 277.355C597.403 277.355 590.541 284.096 590.541 294.024C590.541 303.95 597.403 310.762 606.608 310.762C611.923 310.762 616.401 308.391 619.042 303.95V310.445H623.209V264.119H618.848ZM606.974 306.817C600.113 306.817 594.953 301.702 594.953 294.024C594.953 286.344 600.113 281.23 606.974 281.23C613.763 281.23 618.922 286.344 618.922 294.024C618.922 301.702 613.763 306.817 606.974 306.817ZM648.514 310.762C657.941 310.762 664.873 303.772 664.873 294.024C664.873 284.293 657.941 277.355 648.514 277.355C639.066 277.355 632.082 284.293 632.082 294.024C632.082 303.772 639.066 310.762 648.514 310.762ZM648.514 306.817C641.654 306.817 636.493 301.702 636.493 294.024C636.493 286.344 641.654 281.23 648.514 281.23C655.371 281.23 660.463 286.344 660.463 294.024C660.463 301.702 655.371 306.817 648.514 306.817ZM714.852 264.119V283.848C712.161 279.602 707.75 277.355 702.61 277.355C693.406 277.355 686.544 284.096 686.544 294.024C686.544 303.95 693.406 310.762 702.61 310.762C707.925 310.762 712.403 308.391 715.045 303.95V310.445H719.212V264.119H714.852ZM702.976 306.817C696.115 306.817 690.955 301.702 690.955 294.024C690.955 286.344 696.115 281.23 702.976 281.23C709.766 281.23 714.924 286.344 714.924 294.024C714.924 301.702 709.766 306.817 702.976 306.817ZM744.517 310.762C753.944 310.762 760.875 303.772 760.875 294.024C760.875 284.293 753.944 277.355 744.517 277.355C735.068 277.355 728.084 284.293 728.084 294.024C728.084 303.772 735.068 310.762 744.517 310.762ZM744.517 306.817C737.656 306.817 732.496 301.702 732.496 294.024C732.496 286.344 737.656 281.23 744.517 281.23C751.373 281.23 756.465 286.344 756.465 294.024C756.465 301.702 751.373 306.817 744.517 306.817ZM827.527 266.756L809.086 299.139L790.452 266.756H786.716V310.445H791.076V275.675L807.922 304.888H810.058L826.902 275.478V310.445H831.261V266.756H827.527ZM855.575 277.355C850.499 277.355 845.709 278.984 842.463 281.795L844.421 285.105C847.064 282.734 850.988 281.23 855.158 281.23C861.149 281.23 864.275 284.293 864.275 289.9V291.899H854.045C844.79 291.899 841.611 296.147 841.611 301.209C841.611 306.888 846.089 310.762 853.368 310.762C858.7 310.762 862.501 308.692 864.464 305.331V310.445H868.633V290.096C868.633 281.602 863.908 277.355 855.575 277.355ZM854.045 307.259C848.905 307.259 845.9 304.888 845.9 301.084C845.9 297.703 847.917 295.209 854.167 295.209H864.275V300.588C862.575 304.888 858.943 307.259 854.045 307.259ZM884.61 284.042V277.601H880.441V310.445H884.801V293.723C884.801 285.972 888.897 281.602 895.637 281.602C895.952 281.602 896.314 281.672 896.68 281.672V277.355C890.741 277.355 886.639 279.674 884.61 284.042ZM916.289 277.355C911.216 277.355 906.424 278.984 903.176 281.795L905.136 285.105C907.779 282.734 911.703 281.23 915.873 281.23C921.863 281.23 924.99 284.293 924.99 289.9V291.899H914.76C905.505 291.899 902.325 296.147 902.325 301.209C902.325 306.888 906.806 310.762 914.082 310.762C919.414 310.762 923.215 308.692 925.178 305.331V310.445H929.346V290.096C929.346 281.602 924.622 277.355 916.289 277.355ZM914.76 307.259C909.62 307.259 906.615 304.888 906.615 301.084C906.615 297.703 908.631 295.209 914.88 295.209H924.99V300.588C923.288 304.888 919.656 307.259 914.76 307.259ZM957.587 277.355C952.013 277.355 947.65 279.674 945.324 283.672V277.601H941.156V310.445H945.515V293.209C945.515 285.726 949.856 281.354 956.787 281.354C962.918 281.354 966.461 284.911 966.461 291.845V310.445H970.82V291.405C970.82 281.973 965.418 277.355 957.587 277.355ZM999.058 277.355C993.604 277.355 989.368 279.548 986.99 283.355V264.119H982.626V310.445H986.99V293.209C986.99 285.726 991.328 281.354 998.259 281.354C1004.39 281.354 1007.93 284.911 1007.93 291.845V310.445H1012.29V291.405C1012.29 281.973 1006.89 277.355 999.058 277.355ZM1031.64 267.942C1034.09 267.942 1035.88 272.17 1039.66 272.17C1042.91 272.17 1045.06 269.497 1045.18 265.427H1042.54C1042.42 267.817 1041.21 269.303 1039.37 269.303C1036.97 269.303 1035.13 265.057 1031.34 265.057C1028.09 265.057 1025.94 267.748 1025.82 271.922H1028.46C1028.58 269.428 1029.8 267.942 1031.64 267.942ZM1035.37 277.355C1030.3 277.355 1025.51 278.984 1022.26 281.795L1024.22 285.105C1026.86 282.734 1030.79 281.23 1034.96 281.23C1040.95 281.23 1044.07 284.293 1044.07 289.9V291.899H1033.84C1024.59 291.899 1021.41 296.147 1021.41 301.209C1021.41 306.888 1025.89 310.762 1033.17 310.762C1038.5 310.762 1042.3 308.692 1044.26 305.331V310.445H1048.43V290.096C1048.43 281.602 1043.71 277.355 1035.37 277.355ZM1033.84 307.259C1028.7 307.259 1025.7 304.888 1025.7 301.084C1025.7 297.703 1027.71 295.209 1033.97 295.209H1044.07V300.588C1042.37 304.888 1038.74 307.259 1033.84 307.259ZM1073.42 310.762C1082.85 310.762 1089.78 303.772 1089.78 294.024C1089.78 284.293 1082.85 277.355 1073.42 277.355C1063.98 277.355 1056.99 284.293 1056.99 294.024C1056.99 303.772 1063.98 310.762 1073.42 310.762ZM1073.42 306.817C1066.56 306.817 1061.4 301.702 1061.4 294.024C1061.4 286.344 1066.56 281.23 1073.42 281.23C1080.28 281.23 1085.37 286.344 1085.37 294.024C1085.37 301.702 1080.28 306.817 1073.42 306.817Z" fill="#222124"/>
<path d="M162.187 0.908866V323.434C73.1281 323.434 0.925781 251.234 0.925781 162.172C0.925781 73.1097 73.1281 0.908866 162.187 0.908866Z" fill="#ED3237"/>
<path d="M162.213 0.908866V323.434C251.275 323.434 323.479 251.234 323.479 162.172C323.479 73.1097 251.275 0.908866 162.213 0.908866Z" fill="#3E4095"/>
<path fill-rule="evenodd" clip-rule="evenodd" d="M113.439 186.723C110.212 190.118 105.065 191.977 99.7163 191.94C89.5234 191.873 81.4251 184.021 81.4251 174.7V136.446C81.4251 136.135 81.8708 136.011 82.0592 136.267C86.1554 141.965 113.241 181.422 114.092 182.607C115.593 184.694 114.035 186.1 113.439 186.723ZM70.4147 174.7C70.4147 184.021 62.3148 191.873 52.1225 191.94C46.7845 191.975 41.6344 190.118 38.4007 186.723C37.8145 186.1 36.25 184.694 37.7466 182.607C38.6096 181.422 65.692 141.965 69.7882 136.267C69.9791 136.011 70.4147 136.135 70.4147 136.446V174.7ZM75.8583 109.297C75.8583 109.297 23.0108 182.506 23.4203 183.908C29.081 203.48 52.4829 215.324 75.8583 215.324C99.3456 215.324 122.135 203.423 128.43 183.908C128.875 182.506 75.8583 109.297 75.8583 109.297Z" fill="#FEFEFE"/>
<path fill-rule="evenodd" clip-rule="evenodd" d="M285.949 186.723C282.724 190.118 277.576 191.977 272.227 191.94C262.034 191.873 253.935 184.021 253.935 174.7V136.446C253.935 136.135 254.381 136.011 254.562 136.267C258.666 141.965 285.751 181.422 286.602 182.607C288.103 184.694 286.545 186.1 285.949 186.723ZM242.925 174.7C242.925 184.021 234.827 191.873 224.632 191.94C219.294 191.975 214.145 190.118 210.911 186.723C210.325 186.1 208.76 184.694 210.257 182.607C211.121 181.422 238.193 141.965 242.298 136.267C242.489 136.011 242.925 136.135 242.925 136.446V174.7ZM248.369 109.297C248.369 109.297 195.522 182.506 195.93 183.908C201.591 203.48 224.993 215.324 248.369 215.324C271.856 215.324 294.645 203.423 300.94 183.908C301.387 182.506 248.369 109.297 248.369 109.297Z" fill="#FEFEFE"/>
<path d="M162.12 323.434C155.892 323.434 150.932 319.101 150.932 313.762V17.2546L162.224 0.906264L173.508 17.2546V313.762C173.508 319.101 168.35 323.434 162.12 323.434Z" fill="#FEFEFE"/>
<path d="M190.555 229.152C191.646 227.163 193.817 224.184 198.169 224.184C201.429 224.184 204.693 227.163 204.693 230.149C204.693 235.116 200.341 237.108 198.169 237.108C188.562 237.108 135.364 217.3 117.792 217.3C114.191 217.3 99.1221 219.491 98.5808 234.699C98.1724 246.155 109.733 252.102 117.792 252.102C121.396 252.102 124.99 251.01 127.398 249.93C132.197 247.748 132.929 242.078 132.929 242.078C131.848 244.06 128.584 245.054 126.404 245.054C120.969 245.054 118.798 242.078 118.798 239.092C118.798 235.116 122.06 232.13 126.404 232.13C137.213 232.13 189.653 252.102 206.637 252.102C216.244 252.102 225.848 245.578 225.848 234.699C225.848 221.434 215.039 217.347 206.637 217.3C192.726 217.222 190.555 229.152 190.555 229.152Z" fill="#FEFEFE"/>
<path d="M117.914 80.2883C105.463 80.9715 95.8295 96.3793 69.1913 95.0737C60.3158 94.635 53.5359 93.6291 47.6582 88.5863C48.8622 100.543 61.3768 109.25 76.5584 109.25C92.5478 109.25 95.8295 99.4624 115.097 99.4624C134.375 99.4624 151.235 111.419 152.442 127.73V90.7558C152.442 90.7558 129.539 79.6444 117.914 80.2883Z" fill="#FEFEFE"/>
<path d="M206.388 80.2883C218.839 80.9715 228.473 96.3793 255.112 95.0737C263.988 94.635 270.766 93.6291 276.645 88.5863C275.441 100.543 262.925 109.25 247.744 109.25C231.755 109.25 228.473 99.4624 209.206 99.4624C189.927 99.4624 173.066 111.419 171.861 127.73V90.7558C171.861 90.7558 194.762 79.6444 206.388 80.2883Z" fill="#FEFEFE"/>
</svg>
