<svg width="374" height="561" viewBox="0 0 374 561" fill="none" xmlns="http://www.w3.org/2000/svg">
<path d="M0.595703 208.035V478.59H334.742V284.533C333.485 271.349 330.892 259.319 327.149 248.375C271.12 310.399 85.7077 321.609 0.595703 208.035Z" fill="#2C8669"/>
<path d="M352.09 201.123C349.535 195.56 346.281 190.015 342.215 184.554C330.746 169.143 312.802 154.403 285.758 141.844C178.182 96.3258 98.9087 144.156 67.7794 167.414C61.962 171.76 57.822 175.251 55.498 177.11C59.41 174.247 64.006 171.543 69.17 169.039C124.583 142.151 245.934 138.195 303.758 206.73C311.114 215.447 317.434 225.34 322.467 236.504C324.182 240.312 325.742 244.271 327.149 248.378C330.893 259.322 333.485 271.352 334.742 284.536C335.414 291.578 335.717 298.939 335.59 306.655C335.058 311.966 377.137 255.702 352.09 201.123Z" fill="#D3D2D2"/>
<path d="M30.4777 495.359C29.6591 494.984 28.7351 494.622 27.7057 494.274C26.6764 493.924 25.5297 493.736 24.2671 493.714C23.1911 493.714 22.3137 493.96 21.6351 494.452C20.8977 494.947 20.5311 495.75 20.5311 496.862C20.5311 497.416 20.7124 497.911 21.0724 498.346C21.4004 498.815 21.8391 499.263 22.3897 499.684C23.5684 500.482 24.9244 501.283 26.4564 502.091C27.9871 502.911 29.3377 503.914 30.5057 505.096C31.6977 506.302 32.3124 507.856 32.3471 509.763C32.3124 512.14 31.4684 513.944 29.8231 515.174C28.1737 516.419 25.9711 517.039 23.2124 517.039C21.6111 517.002 20.1791 516.84 18.9164 516.55C17.6431 516.25 16.7884 516.05 16.3564 515.952V511.466C17.1297 511.96 18.1017 512.482 19.2724 513.023C20.4777 513.627 21.8457 513.94 23.3817 513.963C25.0071 513.94 26.1551 513.542 26.8231 512.771C27.4191 512.056 27.7177 511.268 27.7177 510.398C27.6924 509.012 27.0857 507.878 25.8924 506.998C24.7217 506.104 23.3697 505.247 21.8364 504.427C20.2897 503.619 18.9337 502.662 17.7631 501.55C16.5457 500.452 15.9244 499.015 15.9004 497.242C15.9244 494.95 16.7604 493.268 18.4084 492.195C20.0111 491.156 22.0111 490.638 24.4084 490.638C25.8244 490.638 27.0804 490.728 28.1791 490.908C29.2551 491.078 30.0217 491.223 30.4777 491.343V495.359Z" fill="#7B7979"/>
<path d="M39.5855 507.82C39.5855 508.627 39.6322 509.403 39.7255 510.151C39.7962 510.886 39.9375 511.56 40.1495 512.175C40.3948 512.766 40.7482 513.236 41.2068 513.586C41.6415 513.959 42.2055 514.146 42.8975 514.146C43.6135 514.146 44.2028 513.959 44.6615 513.586C45.0948 513.236 45.4242 512.766 45.6468 512.175C45.8828 511.56 46.0468 510.886 46.1402 510.151C46.1882 509.403 46.2122 508.627 46.2122 507.82C46.2348 506.086 46.0482 504.602 45.6468 503.372C45.4242 502.784 45.0948 502.312 44.6615 501.963C44.2028 501.638 43.6135 501.476 42.8975 501.476C42.2055 501.476 41.6415 501.638 41.2068 501.963C40.7482 502.312 40.3948 502.784 40.1495 503.372C39.7482 504.602 39.5602 506.086 39.5855 507.82ZM42.8975 517.039C37.8908 516.93 35.3775 513.854 35.3535 507.81C35.3775 501.755 37.8908 498.68 42.8975 498.58C47.9042 498.68 50.4188 501.755 50.4428 507.81C50.4188 513.854 47.9042 516.93 42.8975 517.039Z" fill="#7B7979"/>
<path d="M67.9667 516.208C66.4573 516.727 64.7907 517.003 62.968 517.039C60.36 517.039 58.1907 516.242 56.46 514.651C54.7173 513.094 53.8347 510.555 53.8133 507.031C53.7867 504.656 54.4067 502.667 55.6693 501.06C56.9227 499.456 58.9107 498.63 61.6347 498.58C62.932 498.58 64.0133 498.75 64.88 499.088C65.6853 499.44 66.34 499.924 66.8427 500.539C67.112 500.842 67.328 501.151 67.492 501.463C67.656 501.839 67.7893 502.227 67.8933 502.624C68.0587 503.411 68.1413 504.214 68.1413 505.036H63.9093C63.9093 504.143 63.7573 503.331 63.4533 502.596C63.0907 501.872 62.3827 501.5 61.328 501.476C60.2507 501.5 59.4373 501.958 58.8867 502.848C58.3253 503.766 58.044 504.916 58.044 506.302C58.044 507.182 58.1773 508.078 58.4467 508.995C58.716 509.911 59.112 510.76 59.6387 511.544C60.212 512.29 60.936 512.899 61.8133 513.367C62.7013 513.886 63.7933 514.146 65.0907 514.146C66.2133 514.146 67.1707 513.995 67.9667 513.692V516.208Z" fill="#7B7979"/>
<path d="M71.5625 498.978H75.5412V516.621H71.5625V498.978ZM71.5625 491.054H75.5412V495.106H71.5625V491.054Z" fill="#7B7979"/>
<path d="M89.9858 504.244C90.0111 503.627 89.8338 502.966 89.4578 502.26C89.2351 501.944 88.9298 501.684 88.5418 501.476C88.1431 501.283 87.6151 501.184 86.9578 501.184C85.7991 501.211 84.9605 501.586 84.4431 502.315C83.9485 503.007 83.6751 503.651 83.6271 504.244H89.9858ZM93.3271 516.332C91.9351 516.804 90.3391 517.039 88.5365 517.039C82.8431 516.955 79.9711 513.564 79.9245 506.87C79.9018 504.359 80.4738 502.351 81.6431 500.843C82.8245 499.359 84.6951 498.606 87.2565 498.58C91.5831 498.703 93.7458 501.08 93.7458 505.714V506.706H83.6138C83.6138 507.323 83.7311 508.044 83.9631 508.864C84.0938 509.266 84.2405 509.676 84.4045 510.099C84.5925 510.487 84.8098 510.89 85.0565 511.315C85.5618 512.114 86.2178 512.772 87.0258 513.291C87.8725 513.862 88.8818 514.146 90.0565 514.146C91.4205 514.096 92.5111 513.872 93.3271 513.474V516.332Z" fill="#7B7979"/>
<path d="M101.311 507.82C101.311 508.484 101.356 509.172 101.45 509.886C101.52 510.612 101.65 511.271 101.839 511.862C102.06 512.454 102.359 512.924 102.734 513.276C103.144 513.662 103.648 513.856 104.246 513.856C104.831 513.856 105.311 513.662 105.686 513.276C106.072 512.924 106.39 512.454 106.635 511.862C107.068 510.64 107.284 509.294 107.284 507.82C107.284 506.127 107.068 504.7 106.635 503.542C106.178 502.38 105.382 501.79 104.246 501.766C103.6 501.766 103.096 501.935 102.734 502.274C102.359 502.623 102.06 503.083 101.839 503.651C101.65 504.219 101.52 504.864 101.45 505.588C101.356 506.302 101.311 507.047 101.311 507.82ZM107.284 514.198H107.198C107.01 514.736 106.531 515.326 105.758 515.96C104.976 516.62 104.035 516.979 102.936 517.039C100.703 516.979 99.1604 516.05 98.307 514.252C97.4644 512.466 97.0564 510.32 97.079 507.81C97.079 505.156 97.559 502.966 98.5177 501.242C99.4297 499.492 100.902 498.607 102.936 498.58C103.579 498.58 104.152 498.654 104.655 498.799C105.134 498.992 105.532 499.227 105.846 499.506C106.512 500.071 106.963 500.602 107.198 501.096H107.284V491.055H111.263V516.623H107.284V514.198Z" fill="#7B7979"/>
<path d="M119.642 512.026C119.642 513.44 120.351 514.146 121.771 514.146C122.416 514.146 122.98 513.971 123.46 513.619C123.895 513.307 124.259 512.886 124.554 512.354C124.835 511.81 125.052 511.242 125.203 510.651C125.296 510.036 125.344 509.432 125.344 508.84C123.972 508.84 122.711 509.062 121.559 509.51C121.007 509.752 120.562 510.083 120.223 510.504C119.835 510.93 119.642 511.435 119.642 512.026ZM125.344 514.58H125.276C125.028 515.146 124.571 515.69 123.903 516.208C123.539 516.438 123.107 516.622 122.604 516.768C122.1 516.911 121.503 517.002 120.811 517.039C119.347 517.002 118.147 516.58 117.208 515.776C116.247 514.932 115.77 513.812 115.77 512.416C115.791 510.958 116.19 509.81 116.963 508.966C117.702 508.159 118.61 507.58 119.687 507.231C120.776 506.883 121.836 506.659 122.867 506.562C123.922 506.466 124.747 506.432 125.344 506.455V504.716C125.344 503.799 125.199 503.034 124.906 502.416C124.579 501.812 123.924 501.499 122.943 501.476C121.89 501.499 121.182 501.802 120.82 502.38C120.456 502.947 120.286 503.552 120.311 504.192H116.442C116.442 500.55 118.61 498.679 122.943 498.58C127.099 498.607 129.164 500.435 129.142 504.064V516.622H125.344V514.58Z" fill="#7B7979"/>
<path d="M137.665 507.82C137.665 508.484 137.71 509.172 137.803 509.886C137.874 510.612 138.003 511.271 138.193 511.862C138.414 512.454 138.713 512.924 139.087 513.276C139.497 513.662 140.002 513.856 140.599 513.856C141.185 513.856 141.665 513.662 142.039 513.276C142.426 512.924 142.742 512.454 142.989 511.862C143.422 510.64 143.638 509.294 143.638 507.82C143.638 506.127 143.422 504.7 142.989 503.542C142.531 502.38 141.735 501.79 140.599 501.766C139.954 501.766 139.45 501.935 139.087 502.274C138.713 502.623 138.414 503.083 138.193 503.651C138.003 504.219 137.874 504.864 137.803 505.588C137.71 506.302 137.665 507.047 137.665 507.82ZM143.638 514.198H143.551C143.363 514.736 142.885 515.326 142.113 515.96C141.33 516.62 140.389 516.979 139.29 517.039C137.057 516.979 135.514 516.05 134.661 514.252C133.818 512.466 133.409 510.32 133.433 507.81C133.433 505.156 133.913 502.966 134.871 501.242C135.783 499.492 137.255 498.607 139.29 498.58C139.933 498.58 140.506 498.654 141.007 498.799C141.487 498.992 141.886 499.227 142.201 499.506C142.867 500.071 143.317 500.602 143.551 501.096H143.638V491.055H147.617V516.623H143.638V514.198Z" fill="#7B7979"/>
<path d="M162.025 504.244C162.05 503.627 161.873 502.966 161.497 502.26C161.274 501.944 160.969 501.684 160.581 501.476C160.182 501.283 159.654 501.184 158.997 501.184C157.838 501.211 157 501.586 156.482 502.315C155.988 503.007 155.716 503.651 155.666 504.244H162.025ZM165.365 516.332C163.974 516.804 162.378 517.039 160.577 517.039C154.882 516.955 152.01 513.564 151.964 506.87C151.941 504.359 152.513 502.351 153.682 500.843C154.864 499.359 156.734 498.606 159.296 498.58C163.622 498.703 165.785 501.08 165.785 505.714V506.706H155.652C155.652 507.323 155.77 508.044 156.004 508.864C156.133 509.266 156.28 509.676 156.444 510.099C156.63 510.487 156.849 510.89 157.096 511.315C157.601 512.114 158.257 512.772 159.066 513.291C159.912 513.862 160.92 514.146 162.094 514.146C163.46 514.096 164.55 513.872 165.365 513.474V516.332Z" fill="#7B7979"/>
<path d="M185.437 513.548H187.13C187.836 513.548 188.534 513.485 189.228 513.365C189.897 513.269 190.514 513.072 191.078 512.769C191.632 512.446 192.072 511.988 192.401 511.397C192.717 510.832 192.878 510.089 192.878 509.176C192.853 507.501 192.348 506.321 191.361 505.633C190.326 504.96 188.916 504.624 187.13 504.624H185.437V513.548ZM185.437 501.55H187.12C187.776 501.55 188.39 501.496 188.962 501.386C189.512 501.29 189.98 501.121 190.366 500.878C190.762 500.626 191.072 500.241 191.294 499.72C191.505 499.25 191.61 498.61 191.61 497.802C191.61 496.982 191.517 496.324 191.329 495.829C191.108 495.357 190.798 495.001 190.4 494.761C190.014 494.482 189.548 494.296 188.997 494.198C188.705 494.152 188.418 494.126 188.138 494.126H187.12H185.437V501.55ZM181.242 491.053H188.857C189.546 491.053 190.298 491.113 191.116 491.233C191.921 491.354 192.685 491.636 193.408 492.084C194.121 492.482 194.717 493.092 195.196 493.912C195.65 494.72 195.878 495.769 195.878 497.061C195.878 498.074 195.744 498.922 195.476 499.61C195.196 500.3 194.829 500.865 194.374 501.313C193.441 502.157 192.566 502.698 191.75 502.941V503.014C192.316 503.074 192.909 503.212 193.533 503.43C194.156 503.67 194.73 504.04 195.261 504.534C195.813 505.004 196.272 505.649 196.637 506.469C196.978 507.253 197.148 508.28 197.148 509.545C197.124 511.102 196.872 512.34 196.393 513.256C195.889 514.22 195.217 514.933 194.374 515.392C193.554 515.86 192.665 516.186 191.706 516.368C190.721 516.537 189.78 516.621 188.88 516.621H181.242V491.053Z" fill="#7B7979"/>
<path d="M201.672 498.978H205.648V502.236H205.732C205.965 501.801 206.24 501.361 206.556 500.916C206.836 500.494 207.169 500.106 207.555 499.757C208.351 498.997 209.584 498.606 211.255 498.58V502.888C207.433 502.838 205.565 504.838 205.648 508.888V516.621H201.672V498.978Z" fill="#7B7979"/>
<path d="M217.774 512.026C217.774 513.44 218.484 514.146 219.904 514.146C220.549 514.146 221.113 513.971 221.593 513.619C222.028 513.307 222.392 512.886 222.686 512.354C222.968 511.81 223.185 511.242 223.337 510.651C223.429 510.036 223.477 509.432 223.477 508.84C222.105 508.84 220.844 509.062 219.692 509.51C219.141 509.752 218.694 510.083 218.356 510.504C217.968 510.93 217.774 511.435 217.774 512.026ZM223.477 514.58H223.408C223.161 515.146 222.704 515.69 222.036 516.208C221.673 516.438 221.24 516.622 220.737 516.768C220.233 516.911 219.636 517.002 218.944 517.039C217.48 517.002 216.28 516.58 215.341 515.776C214.381 514.932 213.902 513.812 213.902 512.416C213.924 510.958 214.322 509.81 215.096 508.966C215.834 508.159 216.742 507.58 217.82 507.231C218.909 506.883 219.969 506.659 221 506.562C222.054 506.466 222.88 506.432 223.477 506.455V504.716C223.477 503.799 223.332 503.034 223.038 502.416C222.712 501.812 222.057 501.499 221.073 501.476C220.022 501.499 219.314 501.802 218.953 502.38C218.589 502.947 218.418 503.552 218.444 504.192H214.574C214.574 500.55 216.741 498.679 221.073 498.58C225.232 498.607 227.297 500.435 227.276 504.064V516.622H223.477V514.58Z" fill="#7B7979"/>
<path d="M241.439 502.727C241.203 502.582 240.749 502.347 240.071 502.019C239.381 501.73 238.569 501.574 237.631 501.547C236.987 501.547 236.405 501.68 235.878 501.946C235.27 502.248 234.965 502.659 234.965 503.178C234.965 503.42 235.089 503.678 235.334 503.956C235.545 504.246 235.831 504.516 236.194 504.768C236.918 505.263 237.767 505.818 238.738 506.435C239.719 507.027 240.586 507.743 241.335 508.588C242.071 509.42 242.453 510.47 242.475 511.738C242.453 513.534 241.855 514.858 240.686 515.7C239.517 516.594 237.959 517.039 236.019 517.039C234.873 517.003 233.937 516.915 233.211 516.768C232.474 516.602 231.902 516.456 231.493 516.336V512.787C231.773 512.883 232.094 512.992 232.458 513.112C232.797 513.271 233.141 513.396 233.491 513.495C234.262 513.735 235.046 513.858 235.842 513.858C236.414 513.858 237.034 513.76 237.698 513.566C238.39 513.372 238.751 512.938 238.787 512.263C238.751 511.743 238.378 511.211 237.665 510.667C236.953 510.148 236.105 509.582 235.123 508.964C234.69 508.639 234.245 508.295 233.79 507.932C233.357 507.558 232.961 507.159 232.597 506.735C231.838 505.902 231.446 504.912 231.422 503.763C231.422 502.087 231.982 500.8 233.106 499.904C234.206 499.024 235.69 498.582 237.562 498.582C238.427 498.607 239.193 498.68 239.859 498.8C240.503 498.97 241.029 499.118 241.439 499.251V502.727Z" fill="#7B7979"/>
<path d="M246.512 498.978H250.489V516.621H246.512V498.978ZM246.512 491.054H250.489V495.106H246.512V491.054Z" fill="#7B7979"/>
<path d="M256.104 491.057H260.081V516.625H256.104V491.057Z" fill="#7B7979"/>
<path d="M274.525 504.244C274.552 503.627 274.373 502.966 273.997 502.26C273.774 501.944 273.468 501.684 273.081 501.476C272.682 501.283 272.154 501.184 271.497 501.184C270.338 501.211 269.5 501.586 268.982 502.315C268.488 503.007 268.216 503.651 268.166 504.244H274.525ZM277.866 516.332C276.474 516.804 274.878 517.039 273.077 517.039C267.382 516.955 264.51 513.564 264.464 506.87C264.441 504.359 265.013 502.351 266.181 500.843C267.364 499.359 269.234 498.606 271.796 498.58C276.122 498.703 278.285 501.08 278.285 505.714V506.706H268.153C268.153 507.323 268.27 508.044 268.504 508.864C268.633 509.266 268.78 509.676 268.944 510.099C269.132 510.487 269.349 510.89 269.596 511.315C270.101 512.114 270.757 512.772 271.566 513.291C272.412 513.862 273.421 514.146 274.596 514.146C275.96 514.096 277.052 513.872 277.866 513.474V516.332Z" fill="#7B7979"/>
<path d="M282.85 498.978H286.828V516.621H282.85V498.978ZM282.85 491.054H286.828V495.106H282.85V491.054Z" fill="#7B7979"/>
<path d="M292.188 498.978H296.162V502.236H296.246C296.481 501.801 296.756 501.361 297.072 500.916C297.352 500.494 297.685 500.106 298.069 499.757C298.866 498.997 300.099 498.606 301.77 498.58V502.888C297.949 502.838 296.081 504.838 296.162 508.888V516.621H292.188V498.978Z" fill="#7B7979"/>
<path d="M308.29 512.026C308.29 513.44 308.999 514.146 310.419 514.146C311.065 514.146 311.627 513.971 312.109 513.619C312.543 513.307 312.907 512.886 313.202 512.354C313.483 511.81 313.701 511.242 313.851 510.651C313.946 510.036 313.993 509.432 313.993 508.84C312.621 508.84 311.359 509.062 310.207 509.51C309.657 509.752 309.21 510.083 308.871 510.504C308.483 510.93 308.29 511.435 308.29 512.026ZM313.993 514.58H313.923C313.677 515.146 313.219 515.69 312.551 516.208C312.189 516.438 311.755 516.622 311.253 516.768C310.749 516.911 310.151 517.002 309.459 517.039C307.997 517.002 306.795 516.58 305.858 515.776C304.895 514.932 304.418 513.812 304.418 512.416C304.439 510.958 304.838 509.81 305.611 508.966C306.35 508.159 307.258 507.58 308.335 507.231C309.425 506.883 310.485 506.659 311.515 506.562C312.57 506.466 313.395 506.432 313.993 506.455V504.716C313.993 503.799 313.846 503.034 313.554 502.416C313.226 501.812 312.573 501.499 311.59 501.476C310.537 501.499 309.83 501.802 309.469 502.38C309.105 502.947 308.934 503.552 308.959 504.192H305.09C305.09 500.55 307.257 498.679 311.59 498.58C315.747 498.607 317.814 500.435 317.79 504.064V516.622H313.993V514.58Z" fill="#7B7979"/>
<path d="M55.3208 542.642C55.3208 543.306 55.3648 543.997 55.4608 544.71C55.5301 545.434 55.6595 546.093 55.8475 546.683C56.0701 547.278 56.3688 547.749 56.7421 548.098C57.1541 548.486 57.6581 548.678 58.2555 548.678C58.8408 548.678 59.3208 548.486 59.6955 548.098C60.0821 547.749 60.3995 547.278 60.6448 546.683C61.0781 545.465 61.2941 544.115 61.2941 542.642C61.2941 540.951 61.0781 539.525 60.6448 538.363C60.1875 537.205 59.3915 536.614 58.2555 536.587C57.6101 536.587 57.1075 536.757 56.7421 537.095C56.3688 537.447 56.0701 537.905 55.8475 538.473C55.6595 539.041 55.5301 539.689 55.4608 540.413C55.3648 541.126 55.3208 541.869 55.3208 542.642ZM61.2941 549.019H61.2075C61.0195 549.561 60.5408 550.147 59.7688 550.782C58.9848 551.442 58.0448 551.803 56.9461 551.863C54.7128 551.801 53.1701 550.874 52.3168 549.074C51.4741 547.29 51.0661 545.142 51.0888 542.634C51.0888 539.981 51.5688 537.79 52.5275 536.063C53.4395 534.317 54.9115 533.429 56.9461 533.405C57.5888 533.405 58.1621 533.478 58.6648 533.621C59.1435 533.814 59.5421 534.051 59.8568 534.327C60.5235 534.894 60.9728 535.423 61.2075 535.918H61.2941V525.877H65.2728V551.447H61.2941V549.019Z" fill="#7B7979"/>
<path d="M79.6792 539.069C79.7045 538.449 79.5272 537.787 79.1512 537.085C78.9285 536.766 78.6232 536.506 78.2352 536.301C77.8365 536.105 77.3085 536.009 76.6512 536.009C75.4925 536.033 74.6538 536.41 74.1352 537.139C73.6418 537.829 73.3698 538.473 73.3205 539.069H79.6792ZM83.0205 551.157C81.6272 551.626 80.0312 551.863 78.2312 551.863C72.5365 551.777 69.6645 548.386 69.6178 541.691C69.5952 539.183 70.1672 537.175 71.3365 535.665C72.5178 534.183 74.3885 533.429 76.9498 533.405C81.2765 533.525 83.4392 535.902 83.4392 540.538V541.53H73.3072C73.3072 542.147 73.4245 542.866 73.6578 543.689C73.7858 544.087 73.9338 544.498 74.0978 544.923C74.2858 545.309 74.5032 545.714 74.7498 546.139C75.2552 546.935 75.9112 547.595 76.7205 548.115C77.5658 548.683 78.5752 548.967 79.7498 548.967C81.1138 548.921 82.2045 548.697 83.0205 548.298V551.157Z" fill="#7B7979"/>
<path d="M115.083 550.387C114.789 550.507 114.435 550.639 114.013 550.783C113.535 550.986 113.001 551.161 112.419 551.303C111.225 551.639 109.864 551.827 108.333 551.863C104.769 551.827 102.151 550.603 100.48 548.19C98.7732 545.789 97.9185 542.575 97.9185 538.543C97.8945 534.697 98.6479 531.573 100.181 529.171C101.689 526.757 104.191 525.523 107.685 525.461C110.559 525.497 112.669 526.229 114.013 527.653C115.345 529.087 116.012 530.833 116.012 532.885H111.347C111.347 532.363 111.324 531.846 111.277 531.325C111.183 530.806 111.001 530.335 110.733 529.914C110.499 529.489 110.144 529.145 109.665 528.879C109.164 528.65 108.501 528.535 107.684 528.535C106.609 528.559 105.739 528.861 105.072 529.442C104.395 530.01 103.881 530.757 103.531 531.687C103.168 532.63 102.917 533.633 102.777 534.694C102.624 535.783 102.549 536.846 102.549 537.882C102.525 540.975 103.028 543.499 104.056 545.455C105.061 547.437 106.809 548.439 109.296 548.463C110.735 548.439 111.968 548.166 112.997 547.647C114.025 547.177 114.721 546.819 115.083 546.578V550.387Z" fill="#7B7979"/>
<path d="M122.582 542.642C122.582 543.449 122.628 544.227 122.722 544.975C122.792 545.71 122.934 546.385 123.146 546.999C123.391 547.59 123.744 548.058 124.203 548.407C124.638 548.782 125.202 548.967 125.892 548.967C126.61 548.967 127.199 548.782 127.658 548.407C128.091 548.058 128.42 547.59 128.643 546.999C128.879 546.385 129.043 545.71 129.138 544.975C129.184 544.227 129.208 543.449 129.208 542.642C129.231 540.907 129.044 539.426 128.643 538.197C128.42 537.606 128.091 537.137 127.658 536.785C127.199 536.462 126.61 536.298 125.892 536.298C125.202 536.298 124.638 536.462 124.203 536.785C123.744 537.137 123.391 537.606 123.146 538.197C122.744 539.426 122.556 540.907 122.582 542.642ZM125.892 551.863C120.887 551.754 118.374 548.678 118.35 542.634C118.374 536.577 120.887 533.502 125.892 533.405C130.9 533.502 133.415 536.577 133.439 542.634C133.415 548.678 130.9 551.754 125.892 551.863Z" fill="#7B7979"/>
<path d="M137.637 533.803H141.622V536.516H141.693C141.837 536.215 142.018 535.879 142.235 535.503C142.463 535.164 142.766 534.833 143.138 534.508C143.501 534.157 143.942 533.885 144.461 533.693C144.979 533.5 145.602 533.404 146.326 533.404C147.435 533.404 148.382 533.675 149.166 534.219C149.962 534.811 150.494 535.709 150.759 536.915H150.849C151.114 536.177 151.658 535.412 152.478 534.615C153.286 533.831 154.395 533.428 155.807 533.404C157.147 533.404 158.281 533.857 159.211 534.761C160.103 535.701 160.559 537.185 160.586 539.212V551.445H156.605V541.352C156.605 539.6 156.487 538.453 156.253 537.909C155.981 537.439 155.474 537.215 154.733 537.237C154.127 537.237 153.597 537.433 153.138 537.819C152.694 538.24 152.318 538.792 152.007 539.467C151.402 540.844 151.101 542.287 151.101 543.797V551.445H147.122V541.352C147.122 539.6 147.005 538.453 146.771 537.909C146.498 537.439 145.993 537.215 145.25 537.237C144.645 537.237 144.113 537.433 143.657 537.819C143.199 538.24 142.823 538.792 142.526 539.467C141.919 540.844 141.618 542.287 141.618 543.797V551.445H137.637V533.803Z" fill="#7B7979"/>
<path d="M169.919 542.642C169.895 544.298 170.114 545.707 170.57 546.866C171.026 548.051 171.805 548.655 172.907 548.678C173.611 548.678 174.155 548.499 174.542 548.134C174.917 547.784 175.215 547.327 175.439 546.756C175.65 546.166 175.778 545.506 175.825 544.782C175.87 544.068 175.893 543.355 175.893 542.642C175.893 541.918 175.87 541.199 175.825 540.486C175.754 539.762 175.614 539.114 175.403 538.546C175.179 537.954 174.882 537.47 174.506 537.095C174.097 536.756 173.562 536.587 172.907 536.587C172.381 536.587 171.943 536.756 171.59 537.095C171.203 537.47 170.875 537.954 170.606 538.546C170.149 539.79 169.919 541.155 169.919 542.642ZM165.943 533.803H169.919V536.246H170.007C170.242 535.678 170.745 535.076 171.515 534.436C172.253 533.772 173.159 533.428 174.234 533.404C176.491 533.451 178.046 534.363 178.898 536.136C179.739 537.923 180.15 540.087 180.126 542.634C180.126 545.251 179.669 547.423 178.758 549.147C177.799 550.896 176.291 551.8 174.234 551.863C173.638 551.863 173.101 551.759 172.621 551.556C172.165 551.412 171.755 551.202 171.393 550.926C170.726 550.363 170.266 549.836 170.007 549.344H169.919V559.371H165.943V533.803Z" fill="#7B7979"/>
<path d="M194.315 548.17H194.244C194.151 548.482 193.97 548.85 193.7 549.269C193.467 549.689 193.146 550.097 192.735 550.493C192.327 550.855 191.836 551.173 191.263 551.449C190.666 551.725 189.97 551.863 189.175 551.863C187.888 551.863 186.814 551.391 185.947 550.451C185.036 549.485 184.567 548.014 184.543 546.034V533.803H188.52V543.897C188.52 545.637 188.65 546.763 188.908 547.285C189.155 547.803 189.614 548.05 190.283 548.027C190.952 548.027 191.538 547.803 192.043 547.358C192.548 546.933 192.971 546.402 193.311 545.761C193.98 544.397 194.315 542.959 194.315 541.449V533.803H198.292V551.446H194.315V548.17Z" fill="#7B7979"/>
<path d="M213.906 551.557C212.83 551.759 211.738 551.863 210.627 551.863C209.53 551.863 208.637 551.723 207.947 551.447C207.247 551.205 206.711 550.862 206.335 550.417C205.998 549.945 205.758 549.414 205.618 548.822C205.467 548.254 205.39 547.645 205.39 546.994V536.661H202.057V533.805H205.39V529.625L209.369 527.145V533.805H214.433V536.661H209.369V545.005C209.343 546.09 209.497 547.002 209.825 547.739C210.001 548.111 210.266 548.395 210.617 548.59C210.981 548.843 211.461 548.969 212.059 548.969C212.715 548.969 213.331 548.866 213.906 548.661V551.557Z" fill="#7B7979"/>
<path d="M220.515 546.85C220.515 548.262 221.224 548.967 222.644 548.967C223.289 548.967 223.853 548.793 224.333 548.443C224.768 548.129 225.132 547.707 225.427 547.175C225.708 546.634 225.925 546.066 226.077 545.473C226.171 544.858 226.217 544.254 226.217 543.662C224.845 543.662 223.584 543.886 222.432 544.331C221.881 544.574 221.435 544.907 221.096 545.329C220.708 545.751 220.515 546.259 220.515 546.85ZM226.217 549.402H226.148C225.901 549.97 225.444 550.511 224.776 551.03C224.413 551.259 223.98 551.446 223.477 551.59C222.973 551.735 222.376 551.826 221.684 551.863C220.22 551.826 219.02 551.405 218.083 550.598C217.121 549.754 216.643 548.634 216.643 547.238C216.664 545.782 217.063 544.631 217.836 543.787C218.575 542.981 219.483 542.405 220.559 542.053C221.649 541.705 222.709 541.483 223.739 541.386C224.795 541.29 225.62 541.254 226.217 541.277V539.541C226.217 538.621 226.072 537.855 225.779 537.241C225.452 536.637 224.797 536.322 223.815 536.298C222.763 536.322 222.055 536.623 221.692 537.205C221.329 537.771 221.159 538.377 221.184 539.014H217.315C217.315 535.371 219.481 533.501 223.815 533.405C227.972 533.429 230.039 535.257 230.015 538.886V551.446H226.217V549.402Z" fill="#7B7979"/>
<path d="M239.638 551.3C235.971 550.264 234.09 547.114 233.997 541.854C233.971 539.477 234.606 537.488 235.897 535.882C237.177 534.278 239.21 533.45 241.997 533.404C243.325 533.404 244.431 533.573 245.314 533.912C246.139 534.261 246.811 534.745 247.326 535.362C247.601 535.664 247.822 535.972 247.989 536.286C248.157 536.661 248.293 537.048 248.401 537.445C248.569 538.232 248.653 539.037 248.653 539.857H244.418C244.418 538.966 244.258 538.154 243.937 537.417C243.554 536.696 242.806 536.321 241.694 536.297C240.558 536.321 239.699 536.778 239.118 537.669C238.526 538.586 238.227 539.737 238.227 541.122C238.227 542.002 238.367 542.901 238.642 543.816C238.917 544.732 239.323 545.581 239.861 546.365C240.445 547.112 241.186 547.721 242.083 548.19C242.991 548.709 244.109 548.966 245.434 548.966C246.581 548.966 247.561 548.818 248.374 548.516V551.029C246.854 551.548 245.177 551.826 243.339 551.862C242.765 551.862 242.211 551.818 241.681 551.734L241.205 553.849C241.346 553.826 241.517 553.813 241.718 553.813C242.062 553.813 242.435 553.849 242.837 553.922C243.251 554.018 243.642 554.206 244.006 554.482C244.398 554.724 244.701 555.068 244.913 555.516C245.137 555.961 245.251 556.516 245.251 557.18C245.251 558.24 244.901 559.122 244.202 559.821C243.514 560.557 242.441 560.938 240.981 560.961C240.27 560.938 239.69 560.828 239.243 560.636C238.798 560.466 238.446 560.316 238.194 560.185V557.852C238.578 558.081 238.975 558.292 239.385 558.485C239.769 558.677 240.226 558.794 240.759 558.828C241.366 558.794 241.793 558.594 242.041 558.232C242.301 557.906 242.431 557.554 242.431 557.182C242.405 556.373 242.103 555.828 241.519 555.552C240.899 555.286 240.275 555.164 239.642 555.188C239.33 555.188 239.021 555.237 238.721 555.333L239.638 551.3Z" fill="#7B7979"/>
<path d="M254.788 546.85C254.788 548.262 255.496 548.967 256.917 548.967C257.561 548.967 258.127 548.793 258.608 548.443C259.041 548.129 259.405 547.707 259.7 547.175C259.981 546.634 260.199 546.066 260.351 545.473C260.444 544.858 260.491 544.254 260.491 543.662C259.119 543.662 257.857 543.886 256.705 544.331C256.155 544.574 255.708 544.907 255.369 545.329C254.981 545.751 254.788 546.259 254.788 546.85ZM253.217 530.399C253.193 528.707 253.351 527.438 253.691 526.598C254.031 525.757 254.673 525.334 255.62 525.334C256.031 525.334 256.463 525.462 256.919 525.714C257.399 525.931 257.867 526.211 258.321 526.561C258.801 526.85 259.223 527.121 259.585 527.371C259.936 527.637 260.211 527.769 260.411 527.769C260.667 527.793 260.848 527.65 260.955 527.337C261.001 527.011 261.025 526.459 261.025 525.678H263.129C263.129 527.421 263.001 528.699 262.744 529.517C262.427 530.322 261.744 530.725 260.692 530.725C260.211 530.725 259.756 530.605 259.323 530.363C258.843 530.113 258.392 529.853 257.972 529.59C257.539 529.265 257.152 528.993 256.815 528.777C256.451 528.574 256.163 528.473 255.953 528.473C255.732 528.473 255.573 528.598 255.481 528.85C255.387 529.115 255.34 529.631 255.34 530.399H253.217ZM260.491 549.402H260.421C260.175 549.97 259.717 550.511 259.051 551.03C258.687 551.259 258.252 551.446 257.751 551.59C257.247 551.735 256.648 551.826 255.957 551.863C254.493 551.826 253.293 551.405 252.356 550.598C251.395 549.754 250.916 548.634 250.916 547.238C250.937 545.782 251.336 544.631 252.109 543.787C252.848 542.981 253.756 542.405 254.833 542.053C255.923 541.705 256.983 541.483 258.013 541.386C259.068 541.29 259.892 541.254 260.491 541.277V539.541C260.491 538.621 260.345 537.855 260.051 537.241C259.725 536.637 259.071 536.322 258.088 536.298C257.036 536.322 256.329 536.623 255.967 537.205C255.603 537.771 255.432 538.377 255.457 539.014H251.588C251.588 535.371 253.755 533.501 258.088 533.405C262.245 533.429 264.312 535.257 264.288 538.886V551.446H260.491V549.402Z" fill="#7B7979"/>
<path d="M272.812 542.642C272.812 543.449 272.859 544.227 272.952 544.975C273.023 545.71 273.164 546.385 273.376 546.999C273.621 547.59 273.975 548.058 274.433 548.407C274.868 548.782 275.432 548.967 276.124 548.967C276.84 548.967 277.429 548.782 277.888 548.407C278.32 548.058 278.651 547.59 278.872 546.999C279.109 546.385 279.273 545.71 279.368 544.975C279.415 544.227 279.439 543.449 279.439 542.642C279.461 540.907 279.276 539.426 278.872 538.197C278.651 537.606 278.32 537.137 277.888 536.785C277.429 536.462 276.84 536.298 276.124 536.298C275.432 536.298 274.868 536.462 274.433 536.785C273.975 537.137 273.621 537.606 273.376 538.197C272.975 539.426 272.785 540.907 272.812 542.642ZM276.124 551.863C271.117 551.754 268.604 548.678 268.58 542.634C268.604 536.577 271.117 533.502 276.124 533.405C281.131 533.502 283.645 536.577 283.669 542.634C283.645 548.678 281.131 551.754 276.124 551.863Z" fill="#7B7979"/>
<path d="M69.4847 384.473C61.7674 380.4 54.8354 376.298 48.9834 372.358C46.3567 370.342 44.2434 368.192 42.5914 365.828C41.0394 363.973 40.2901 361.924 40.2901 359.564C40.2901 354.577 41.842 351.113 45.0914 348.926C48.1821 346.673 52.3007 345.53 57.2901 345.53C63.5047 345.65 69.2114 346.577 74.2434 348.285C79.4167 350.046 84.1181 351.888 88.2247 353.762L91.1434 355.096V329.762L89.6061 329.356C87.2034 328.721 83.1794 327.962 77.6674 327.098C71.9661 326.158 65.3674 325.681 58.0527 325.681C45.454 325.681 34.7554 328.47 26.2527 333.973C17.25 339.837 12.622 349.098 12.498 361.544C12.6234 371.166 16.0527 379.08 22.6527 385.033C28.7527 390.82 35.9154 395.88 43.9247 400.066C51.638 404.192 58.5207 408.554 64.406 413.046C70.0167 417.181 72.7954 422.34 72.906 428.776C72.906 432.749 71.566 436.28 68.8314 439.546C65.8367 443.009 60.4327 444.825 52.8314 444.937C45.3394 444.822 38.57 443.276 32.662 440.32C26.7847 437.596 21.8487 434.96 18.0047 432.497L14.8274 430.46V458.825L16.4407 459.186C18.646 459.678 23.0007 460.694 29.5154 462.233C36.0701 463.741 43.6007 464.598 51.8901 464.785H51.9367C66.4327 464.785 78.2207 461.44 86.9634 454.848C95.8914 448.184 100.509 438.328 100.701 425.489C100.509 415.244 97.1434 406.736 90.6927 400.208C84.5994 394.044 77.4687 388.754 69.4847 384.473Z" fill="white"/>
<path d="M179.156 432.878C177.656 435.558 175.64 437.656 173.223 439.08C170.564 440.5 167.606 441.451 164.375 441.914C160.971 442.508 157.484 442.81 154.006 442.81H147.416V401.312H154.006C162.684 401.312 169.588 402.94 174.462 406.115C178.968 409.247 181.216 414.626 181.327 422.518C181.327 426.82 180.596 430.302 179.156 432.878ZM147.416 347.656H159.16C160.466 347.656 161.834 347.771 163.199 347.995C165.687 348.432 167.815 349.279 169.658 350.594C171.348 351.623 172.64 353.12 173.55 355.023C174.414 357.304 174.851 360.451 174.851 364.38C174.851 368.2 174.37 371.219 173.404 373.378C172.438 375.632 171.107 377.31 169.454 378.362C167.716 379.451 165.548 380.23 162.992 380.678C160.199 381.206 157.159 381.474 153.959 381.474H147.416V347.656ZM196.984 397.287C194.099 394.588 190.903 392.55 187.42 391.203C186.252 390.792 185.096 390.438 183.956 390.132C186.706 388.572 189.554 386.46 192.487 383.799C195.002 381.331 197.054 378.172 198.596 374.38C200.056 370.635 200.796 365.995 200.796 360.586C200.796 353.659 199.534 347.902 197.023 343.448C194.399 338.954 191.067 335.555 187.194 333.388C183.264 330.968 179.066 329.408 174.687 328.755C170.415 328.126 166.43 327.807 162.844 327.807H121.842V462.656H162.951C167.651 462.656 172.63 462.211 177.782 461.326C182.89 460.362 187.698 458.602 192.028 456.115C196.684 453.578 200.442 449.618 203.192 444.342C205.786 439.388 207.163 432.698 207.29 424.419C207.29 417.692 206.351 412.126 204.494 407.854C202.512 403.394 199.963 399.818 196.984 397.287Z" fill="white"/>
<path d="M319.484 367.757V365.692C319.484 354.716 315.86 345.246 308.703 337.528C301.464 329.858 290.082 325.874 274.811 325.681C256.286 326.002 242.8 332.71 234.746 345.601C226.734 358.156 222.735 374.658 222.86 394.632C222.86 415.572 227.391 432.562 236.311 445.117C245.223 457.978 259.292 464.596 278.139 464.785H278.174H278.21C286.175 464.598 293.375 463.614 299.532 461.874C302.622 461.117 305.467 460.184 307.864 459.156C310.035 458.413 311.915 457.718 313.45 457.088L314.728 456.564V431.845L311.519 433.989C309.77 435.156 306.28 436.94 301.068 439.328C296.119 441.83 290.059 443.156 283.111 443.273C271.111 443.158 262.942 438.5 258.122 429.005C253.046 419.348 250.532 406.656 250.652 391.254C250.652 386.054 251.04 380.666 251.8 375.224C252.496 369.968 253.754 364.954 255.538 360.306C257.196 355.91 259.647 352.333 262.847 349.65C265.863 347.028 269.91 345.64 274.84 345.53C278.703 345.53 281.819 346.06 283.964 347.028C286.084 348.205 287.61 349.669 288.691 351.609C289.911 353.533 290.75 355.716 291.152 357.91C291.384 360.486 291.504 363.104 291.504 365.692V367.757H319.484Z" fill="white"/>
<path d="M77.9011 0.846635H0.59577C0.59577 0.846635 0.582436 73.436 0.59577 110.391C5.57044 38.0586 77.9011 0.846635 77.9011 0.846635Z" fill="#F3C20A"/>
<path d="M373.337 139.3C367.921 147.16 357.934 157.345 344.062 167.489C348.128 172.949 351.382 178.495 353.937 184.059C368.373 161.673 373.932 142.585 373.337 139.3Z" fill="#3876C4"/>
<path d="M112.588 204.119C93.2175 192.866 81.1602 183.745 70.6949 171.837C65.5322 174.342 52.8122 181.445 47.1762 183.161C51.1295 178.237 60.2469 169.334 65.2695 165.583C12.2082 102.977 69.3909 38.1808 97.0882 13.6995C24.0189 43.7941 -50.5265 192.666 84.5415 258.735C189.316 298.806 269.72 280.413 312.264 241.023C307.231 229.859 300.911 219.965 293.556 211.249C246.686 232.167 189.508 237.949 112.588 204.119Z" fill="#3876C4"/>
</svg>
